<svg width="588" height="585" viewBox="0 0 588 585" fill="none" xmlns="http://www.w3.org/2000/svg">
<path d="M439.482 323.609C427.474 381.245 381.989 426.738 324.364 438.748V323.609H439.482Z" stroke="#F3F3F3" stroke-width="3"/>
<path d="M586.498 1.5V262.836H500.696C487.41 171.742 415.442 99.7601 324.364 86.4717V1.5L586.498 1.5Z" stroke="#F3F3F3" stroke-width="3"/>
<path d="M584.73 323.645C584.335 327.383 583.884 331.137 583.343 334.828L583.327 334.937V335.04C564.668 462.606 463.424 563.593 335.831 581.929L335.698 581.948L335.695 581.949H335.653L335.543 581.965C331.847 582.512 328.114 582.938 324.364 583.332V499.972C415.43 486.685 487.391 414.721 500.691 323.645H584.73ZM335.792 581.949C335.791 581.949 335.79 581.949 335.788 581.949C335.795 581.949 335.799 581.948 335.8 581.948C335.799 581.948 335.797 581.949 335.792 581.949Z" stroke="#F3F3F3" stroke-width="3"/>
<path d="M87.2683 323.574C100.553 414.656 172.503 486.63 263.564 499.932V583.312C131.054 569.629 24.528 467.084 4.78003 336.34L4.55054 334.795C4.0089 331.066 3.55664 327.335 3.16187 323.574H87.2683Z" stroke="#F3F3F3" stroke-width="3"/>
<path d="M263.6 262.801H148.481C160.489 205.165 205.975 159.671 263.6 147.661V262.801Z" stroke="#F3F3F3" stroke-width="3"/>
<path d="M263.635 1.5V86.4365C172.557 99.7251 100.589 171.707 87.3027 262.801H1.5L1.5 1.5L263.635 1.5Z" stroke="#F3F3F3" stroke-width="3"/>
<path d="M324.364 147.661C381.989 159.671 427.474 205.165 439.482 262.801H324.364V147.661Z" stroke="#F3F3F3" stroke-width="3"/>
<path d="M263.6 323.574V438.713C205.975 426.703 160.489 381.21 148.481 323.574H263.6Z" stroke="#F3F3F3" stroke-width="3"/>
</svg>
