<svg width="80" height="79" viewBox="0 0 80 79" fill="none" xmlns="http://www.w3.org/2000/svg">
<path d="M1.69873 39.3904C1.69873 40.6602 1.76249 41.9528 1.89001 43.2317C3.68443 61.2278 18.0216 75.5607 35.9703 77.3101C37.2091 77.4288 38.4616 77.4928 39.6867 77.4928C40.9118 77.4928 42.1643 77.4334 43.403 77.3101C61.3564 75.5607 75.6889 61.2278 77.4834 43.2317C77.6109 41.9528 77.6746 40.6648 77.6746 39.3904V1.50732H1.69873V39.3904Z" fill="#004278"/>
<path d="M78.1573 0H0.191162V39.3904C0.191162 40.7104 0.259478 42.0533 0.391554 43.3824C2.25884 62.0956 17.1607 76.9949 35.8245 78.8127C37.1088 78.9361 38.4114 79 39.6912 79C40.9709 79 42.2689 78.9361 43.5578 78.8127C62.2216 76.9949 77.1235 62.091 78.9908 43.3824C79.1229 42.0578 79.1912 40.715 79.1912 39.3904V0H78.1619H78.1573ZM77.6791 1.50729V35.7546H66.2294C64.5808 23.9019 55.2352 14.5293 43.4166 12.8759V1.50729H77.6746H77.6791ZM35.9566 43.2454V58.5968C28.2461 57.085 22.1614 50.9782 20.6494 43.2454H35.9566ZM20.6494 35.7546C22.1569 28.0218 28.2461 21.915 35.9566 20.4032V35.7546H20.6494ZM43.4212 43.2454H58.7284C57.2209 50.9782 51.1317 57.085 43.4212 58.5968V43.2454ZM43.4212 35.7546V20.4032C51.1317 21.915 57.2209 28.0218 58.7284 35.7546H43.4212ZM35.9566 1.50729V12.8804C24.138 14.5339 14.7925 23.9065 13.1438 35.7592H1.6941V1.50729H35.952H35.9566ZM1.88994 43.2454H13.1438C14.7925 55.0981 24.138 64.4707 35.9566 66.1241V77.31C18.0169 75.5561 3.69347 61.2323 1.88994 43.2454ZM43.4212 77.31V66.1241C55.2398 64.4707 64.5853 55.0981 66.234 43.2454H77.4878C75.6843 61.2323 61.3654 75.5561 43.4212 77.31Z" fill="#FDB913"/>
</svg>
