<svg width="312" height="56" viewBox="0 0 312 56" fill="none" xmlns="http://www.w3.org/2000/svg">
<g clip-path="url(#clip0_18832_7802)">
<path d="M256.516 27.9233C256.516 28.8251 256.561 29.7397 256.651 30.6478C257.94 43.4071 268.2 53.5697 281.051 54.8041C281.94 54.8872 282.835 54.932 283.711 54.932C284.587 54.932 285.489 54.8872 286.371 54.8041C299.228 53.5633 309.489 43.4007 310.77 30.6478C310.861 29.7397 310.906 28.8251 310.906 27.9233V1.06812H256.503V27.9233H256.516Z" fill="#004278"/>
<path d="M311.266 0H255.44V27.9233C255.44 28.8634 255.485 29.81 255.582 30.7501C256.922 44.0146 267.588 54.5802 280.954 55.8657C281.875 55.9552 282.809 56 283.724 56C284.638 56 285.572 55.9552 286.493 55.8657C299.859 54.5738 310.526 44.0146 311.865 30.7501C311.962 29.81 312.007 28.857 312.007 27.9233V0H311.266ZM310.925 1.06807V25.3458H302.732C301.553 16.942 294.86 10.2969 286.397 9.12654V1.06807H310.925ZM281.05 30.6542V41.5331C275.53 40.4587 271.17 36.1352 270.094 30.6542H281.05ZM270.088 25.3458C271.17 19.8648 275.524 15.5349 281.044 14.4669V25.3458H270.088ZM286.397 30.6542H297.353C296.271 36.1352 291.917 40.4651 286.397 41.5331V30.6542ZM286.397 25.3458V14.4669C291.917 15.5413 296.278 19.8648 297.353 25.3458H286.397ZM281.05 1.06807V9.12654C272.587 10.2969 265.894 16.942 264.716 25.3458H256.522V1.06807H281.05ZM256.658 30.6542H264.716C265.894 39.058 272.587 45.7031 281.05 46.8735V54.804C268.207 53.5569 257.952 43.407 256.658 30.6542ZM286.397 54.804V46.8735C294.86 45.7031 301.553 39.058 302.732 30.6542H310.79C309.501 43.407 299.247 53.5569 286.397 54.804Z" fill="#FDB913"/>
<path d="M10.1261 9.91968H3.66554C3.62046 9.91968 3.58825 9.95166 3.58825 9.99643V10.8151C3.58825 10.8598 3.62046 10.8918 3.66554 10.8918H4.56087C5.14703 10.8918 5.23076 10.8918 5.37247 11.0645C5.53994 11.2755 5.65588 11.8384 5.65588 13.8594V25.0773C5.65588 27.7634 4.55443 29.3112 2.64139 29.3112C1.92641 29.3112 1.07617 28.9722 0.895818 28.3966C0.805641 28.1536 0.69614 27.9233 0.399844 27.9233C0.135754 27.9233 0.000488281 28.0832 0.000488281 28.3966C0.000488281 28.646 0.264578 30.0595 0.277461 30.117C0.277461 30.1426 0.303226 30.1682 0.328991 30.1746C0.966672 30.3729 1.78471 30.4752 2.69292 30.4752C6.34509 30.4752 8.70258 28.4606 8.70258 25.3459V11.1604C8.70258 10.9686 8.77988 10.8918 8.97311 10.8918H10.1197C10.1647 10.8918 10.1969 10.8598 10.1969 10.8151V9.99643C10.1969 9.95166 10.1647 9.91968 10.1197 9.91968H10.1261Z" fill="white"/>
<path d="M20.5479 9.44629C15.5624 9.44629 11.9424 13.1557 11.9424 18.2594C11.9424 23.3631 15.1243 26.2604 20.0454 26.2604C24.9665 26.2604 28.6509 22.5509 28.6509 17.4472C28.6509 12.3435 25.469 9.44629 20.5479 9.44629ZM19.82 10.4888C21.9649 10.4888 25.6042 12.2348 25.6042 18.7775C25.6042 22.8067 23.7942 25.2115 20.7669 25.2115C17.9843 25.2115 14.9826 22.6149 14.9826 16.9228C14.9826 15.4134 15.3305 10.4888 19.82 10.4888Z" fill="white"/>
<path d="M46.8285 24.8215H45.7592C45.0185 24.8215 44.8381 24.8215 44.8381 21.8539V11.1604C44.8381 10.9686 44.9154 10.8918 45.1087 10.8918H46.2552C46.3003 10.8918 46.3325 10.8598 46.3325 10.8151V9.99643C46.3325 9.95166 46.3003 9.91968 46.2552 9.91968H39.7947C39.7496 9.91968 39.7174 9.95166 39.7174 9.99643V10.8151C39.7174 10.8598 39.7496 10.8918 39.7947 10.8918H40.69C41.2761 10.8918 41.3599 10.8918 41.5016 11.0645C41.6691 11.2755 41.7786 11.8384 41.7786 13.8594V16.6287H34.8993V11.186C34.8993 10.9302 34.9895 10.8918 35.1956 10.8918H36.3164C36.3615 10.8918 36.3937 10.8598 36.3937 10.8151V9.99643C36.3937 9.95166 36.3615 9.91968 36.3164 9.91968H29.8559C29.8108 9.91968 29.7786 9.95166 29.7786 9.99643V10.8151C29.7786 10.8598 29.8108 10.8918 29.8559 10.8918H30.7512C31.3373 10.8918 31.4211 10.8918 31.5628 11.0645C31.7303 11.2755 31.8462 11.8384 31.8462 13.8594V24.5273C31.8462 24.7319 31.8075 24.8215 31.5499 24.8215H30.4291C30.384 24.8215 30.3518 24.8534 30.3518 24.8982V25.7168C30.3518 25.7616 30.384 25.7936 30.4291 25.7936H36.8897C36.9348 25.7936 36.967 25.7616 36.967 25.7168V24.8982C36.967 24.8534 36.9348 24.8215 36.8897 24.8215H35.8204C35.0797 24.8215 34.8993 24.8215 34.8993 21.8539V17.7479H41.7786V24.5273C41.7786 24.7319 41.7399 24.8215 41.4823 24.8215H40.3615C40.3164 24.8215 40.2842 24.8534 40.2842 24.8982V25.7168C40.2842 25.7616 40.3164 25.7936 40.3615 25.7936H46.822C46.8671 25.7936 46.8993 25.7616 46.8993 25.7168V24.8982C46.8993 24.8534 46.8671 24.8215 46.822 24.8215H46.8285Z" fill="white"/>
<path d="M65.1081 9.91968H60.4446C60.3996 9.91968 60.3674 9.95166 60.3674 9.99643V10.8151C60.3674 10.8598 60.3996 10.8918 60.4446 10.8918H61.34C61.8037 10.8918 61.9841 10.8918 62.1322 11.0453C62.3899 11.3011 62.5058 12.7274 62.5058 15.5478V21.0161L52.6894 9.95166C52.6894 9.95166 52.6508 9.92607 52.6314 9.92607H48.3158C48.2707 9.92607 48.2385 9.95805 48.2385 10.0028V10.8215C48.2385 10.8662 48.2707 10.8982 48.3158 10.8982H49.0115C49.4946 10.8982 49.881 11.1668 50.1387 11.6721C50.3448 12.0622 50.4801 12.6762 50.4801 13.2454V24.5592C50.4801 24.7639 50.4801 24.8279 50.0356 24.8279H49.0888C49.0437 24.8279 49.0115 24.8598 49.0115 24.9046V25.7232C49.0115 25.768 49.0437 25.8 49.0888 25.8H53.7522C53.7973 25.8 53.8295 25.768 53.8295 25.7232V24.9046C53.8295 24.8598 53.7973 24.8279 53.7522 24.8279H52.7281C52.1612 24.8279 52.0195 24.7831 51.9036 24.3162C51.7554 23.7278 51.6846 22.2888 51.6846 20.0247V13.0983L62.7699 25.5953C63.0598 25.9343 63.2079 26.043 63.3754 26.043C63.6137 26.043 63.7039 25.8384 63.7039 25.6721V11.1668C63.7039 10.9622 63.7039 10.8982 64.1226 10.8982H65.0952C65.1403 10.8982 65.1725 10.8662 65.1725 10.8215V10.0028C65.1725 9.95805 65.1403 9.92607 65.0952 9.92607L65.1081 9.91968Z" fill="white"/>
<path d="M86.3062 24.8213H85.559C85.3078 24.8213 85.1081 24.7125 84.9471 24.4823L79.7168 16.6605C80.2708 16.0337 80.902 15.3046 81.9261 13.9999L83.0984 12.5161C83.311 12.2475 83.4849 12.0236 83.6266 11.8382C84.0775 11.2562 84.2321 11.0579 84.3738 10.9748C84.5284 10.8852 84.5864 10.8852 84.8569 10.8852H85.5268C85.5719 10.8852 85.6041 10.8532 85.6041 10.8085V9.98983C85.6041 9.94506 85.5719 9.91309 85.5268 9.91309H80.8118C80.7667 9.91309 80.7345 9.94506 80.7345 9.98983V10.8085C80.7345 10.8532 80.7667 10.8852 80.8118 10.8852H82.1065C82.5059 10.8852 82.5059 11.0259 82.5059 11.1027C82.5059 11.3009 82.1774 11.851 81.5203 12.7399C80.8698 13.6225 80.1097 14.5755 79.1242 15.7267L76.7603 12.1516C76.3352 11.5056 76.026 11.0387 76.026 10.9556C76.026 10.9172 76.026 10.8852 76.1741 10.8852H77.5461C77.5912 10.8852 77.6234 10.8532 77.6234 10.8085V9.98983C77.6234 9.94506 77.5912 9.91309 77.5461 9.91309H71.0856C71.0405 9.91309 71.0083 9.94506 71.0083 9.98983V10.8085C71.0083 10.8532 71.0405 10.8852 71.0856 10.8852H71.3819C71.8843 10.8852 72.2192 10.9556 72.3803 11.0899C72.5413 11.205 72.7603 11.4288 73.7844 12.983L76.9728 17.7925C74.8344 20.6257 73.1532 23.216 72.6894 23.9451C72.2192 24.6806 72.0646 24.8277 71.311 24.8277H70.8859C70.8408 24.8277 70.8086 24.8596 70.8086 24.9044V25.723C70.8086 25.7678 70.8408 25.7998 70.8859 25.7998H75.7748C75.8199 25.7998 75.8521 25.7678 75.8521 25.723V24.9044C75.8521 24.8596 75.8199 24.8277 75.7748 24.8277H74.3062C74.1001 24.8277 74.0356 24.7637 74.0356 24.5846C74.0356 24.2776 74.4092 23.5166 75.1435 22.3206C76.0453 20.8752 76.8311 19.7431 77.617 18.771L80.9986 23.9323L81.0695 24.041C81.1983 24.2393 81.4559 24.6422 81.4559 24.7317C81.4559 24.7573 81.4559 24.8277 81.2112 24.8277H79.8907C79.8456 24.8277 79.8134 24.8596 79.8134 24.9044V25.723C79.8134 25.7678 79.8456 25.7998 79.8907 25.7998H86.2997C86.3448 25.7998 86.377 25.7678 86.377 25.723V24.9044C86.377 24.8596 86.3448 24.8277 86.2997 24.8277L86.3062 24.8213ZM79.1564 15.8418C79.253 15.7203 79.3368 15.6244 79.4269 15.5156C79.3368 15.6244 79.253 15.7267 79.1629 15.8418H79.1564ZM77.5976 18.6559V18.6687C77.5139 18.7838 77.4237 18.9053 77.3271 19.0268C77.4173 18.9053 77.5075 18.7774 77.5976 18.6559Z" fill="white"/>
<path d="M103.601 24.8213H102.854C102.603 24.8213 102.403 24.7125 102.242 24.4823L97.0117 16.6605C97.5657 16.0337 98.1969 15.3046 99.2211 13.9999L100.393 12.5161C100.606 12.2475 100.78 12.0236 100.922 11.8382C101.372 11.2562 101.527 11.0579 101.669 10.9748C101.823 10.8852 101.881 10.8852 102.152 10.8852H102.822C102.867 10.8852 102.899 10.8532 102.899 10.8085V9.98983C102.899 9.94506 102.867 9.91309 102.822 9.91309H98.1067C98.0616 9.91309 98.0294 9.94506 98.0294 9.98983V10.8085C98.0294 10.8532 98.0616 10.8852 98.1067 10.8852H99.4014C99.8008 10.8852 99.8008 11.0259 99.8008 11.1027C99.8008 11.3009 99.4723 11.851 98.8153 12.7399C98.1647 13.6225 97.4046 14.5755 96.4191 15.7267L94.0552 12.1516C93.6301 11.5056 93.3209 11.0387 93.3209 10.9556C93.3209 10.9172 93.3209 10.8852 93.4691 10.8852H94.841C94.8861 10.8852 94.9183 10.8532 94.9183 10.8085V9.98983C94.9183 9.94506 94.8861 9.91309 94.841 9.91309H88.3805C88.3354 9.91309 88.3032 9.94506 88.3032 9.98983V10.8085C88.3032 10.8532 88.3354 10.8852 88.3805 10.8852H88.6768C89.1792 10.8852 89.5141 10.9556 89.6752 11.0899C89.8362 11.205 90.0552 11.4288 91.0794 12.983L94.2678 17.7925C92.1293 20.6257 90.4481 23.216 89.9844 23.9451C89.5141 24.6806 89.3596 24.8277 88.6059 24.8277H88.1808C88.1357 24.8277 88.1035 24.8596 88.1035 24.9044V25.723C88.1035 25.7678 88.1357 25.7998 88.1808 25.7998H93.0697C93.1148 25.7998 93.147 25.7678 93.147 25.723V24.9044C93.147 24.8596 93.1148 24.8277 93.0697 24.8277H91.6011C91.395 24.8277 91.3306 24.7637 91.3306 24.5846C91.3306 24.2776 91.7042 23.5166 92.4385 22.3206C93.3402 20.8752 94.1261 19.7431 94.9119 18.771L98.2935 23.9323L98.3644 24.041C98.4932 24.2393 98.7509 24.6422 98.7509 24.7317C98.7509 24.7573 98.7509 24.8277 98.5061 24.8277H97.1856C97.1406 24.8277 97.1083 24.8596 97.1083 24.9044V25.723C97.1083 25.7678 97.1406 25.7998 97.1856 25.7998H103.595C103.64 25.7998 103.672 25.7678 103.672 25.723V24.9044C103.672 24.8596 103.64 24.8277 103.595 24.8277L103.601 24.8213ZM96.4513 15.8418C96.548 15.7203 96.6317 15.6244 96.7219 15.5156C96.6317 15.6244 96.548 15.7267 96.4578 15.8418H96.4513ZM94.8926 18.6559V18.6687C94.8088 18.7838 94.7186 18.9053 94.622 19.0268C94.7122 18.9053 94.8024 18.7774 94.8926 18.6559Z" fill="white"/>
<path d="M112.515 24.8215H111.446C110.705 24.8215 110.525 24.8215 110.525 21.8539V11.1604C110.525 10.9686 110.602 10.8918 110.796 10.8918H111.942C111.987 10.8918 112.019 10.8598 112.019 10.8151V9.99643C112.019 9.95166 111.987 9.91968 111.942 9.91968H105.482C105.436 9.91968 105.404 9.95166 105.404 9.99643V10.8151C105.404 10.8598 105.436 10.8918 105.482 10.8918H106.377C106.963 10.8918 107.047 10.8918 107.189 11.0645C107.356 11.2755 107.465 11.8384 107.465 13.8594V24.5273C107.465 24.7319 107.427 24.8215 107.169 24.8215H106.048C106.003 24.8215 105.971 24.8534 105.971 24.8982V25.7168C105.971 25.7616 106.003 25.7936 106.048 25.7936H112.509C112.554 25.7936 112.586 25.7616 112.586 25.7168V24.8982C112.586 24.8534 112.554 24.8215 112.509 24.8215H112.515Z" fill="white"/>
<path d="M121.437 24.8215H120.368C119.627 24.8215 119.447 24.8215 119.447 21.8539V11.1604C119.447 10.9686 119.524 10.8918 119.717 10.8918H120.864C120.909 10.8918 120.941 10.8598 120.941 10.8151V9.99643C120.941 9.95166 120.909 9.91968 120.864 9.91968H114.403C114.358 9.91968 114.326 9.95166 114.326 9.99643V10.8151C114.326 10.8598 114.358 10.8918 114.403 10.8918H115.299C115.885 10.8918 115.968 10.8918 116.11 11.0645C116.278 11.2755 116.394 11.8384 116.394 13.8594V24.5273C116.394 24.7319 116.355 24.8215 116.097 24.8215H114.976C114.931 24.8215 114.899 24.8534 114.899 24.8982V25.7168C114.899 25.7616 114.931 25.7936 114.976 25.7936H121.437C121.482 25.7936 121.514 25.7616 121.514 25.7168V24.8982C121.514 24.8534 121.482 24.8215 121.437 24.8215Z" fill="white"/>
<path d="M130.352 24.8215H129.282C128.542 24.8215 128.361 24.8215 128.361 21.8539V11.1604C128.361 10.9686 128.439 10.8918 128.632 10.8918H129.778C129.823 10.8918 129.856 10.8598 129.856 10.8151V9.99643C129.856 9.95166 129.823 9.91968 129.778 9.91968H123.318C123.273 9.91968 123.24 9.95166 123.24 9.99643V10.8151C123.24 10.8598 123.273 10.8918 123.318 10.8918H124.213C124.799 10.8918 124.883 10.8918 125.025 11.0645C125.192 11.2755 125.308 11.8384 125.308 13.8594V24.5273C125.308 24.7319 125.269 24.8215 125.012 24.8215H123.891C123.846 24.8215 123.814 24.8534 123.814 24.8982V25.7168C123.814 25.7616 123.846 25.7936 123.891 25.7936H130.352C130.397 25.7936 130.429 25.7616 130.429 25.7168V24.8982C130.429 24.8534 130.397 24.8215 130.352 24.8215Z" fill="white"/>
<path d="M150.996 22.1991C150.661 22.1991 150.622 22.3782 150.526 22.8131C150.21 24.2137 147.595 25.0963 145.933 25.0963C142.423 25.0963 139.878 22.1096 139.878 17.9908C139.878 13.6482 142.596 10.6166 146.481 10.6166C148.072 10.6166 149.766 11.4097 149.92 12.0173C150.043 12.5673 150.126 12.6952 150.371 12.6952C150.809 12.6952 150.822 12.4778 150.996 10.3992C150.996 10.3672 150.977 10.3352 150.944 10.3224C149.328 9.72125 148.007 9.45264 146.68 9.45264C140.98 9.45264 136.677 13.3284 136.677 18.4641C136.677 23.5997 139.865 26.2667 145.205 26.2667C147.286 26.2667 149.45 25.8062 151.15 24.994C151.176 24.9812 151.189 24.9556 151.196 24.93L151.395 22.5509C151.395 22.3782 151.253 22.1927 150.996 22.1927V22.1991Z" fill="white"/>
<path d="M161.971 9.44629C156.986 9.44629 153.366 13.1557 153.366 18.2594C153.366 23.3631 156.548 26.2604 161.469 26.2604C166.39 26.2604 170.074 22.5509 170.074 17.4472C170.074 12.3435 166.892 9.44629 161.971 9.44629ZM167.028 18.7839C167.028 22.8131 165.218 25.2179 162.19 25.2179C159.408 25.2179 156.406 22.6213 156.406 16.9292C156.406 15.4198 156.754 10.4952 161.243 10.4952C163.388 10.4952 167.028 12.2412 167.028 18.7839Z" fill="white"/>
<path d="M184.49 22.9857C184.252 22.9857 184.161 23.1456 184.078 23.2991C184.045 23.3631 184.007 23.427 183.955 23.4846C183.659 23.8619 183.169 24.1305 182.429 24.3224C181.855 24.4695 180.857 24.6678 178.834 24.6678H177.81C177.379 24.6678 177.276 24.6358 177.179 24.4823C176.967 24.1113 176.863 23.5421 176.863 20.0182V11.1027C176.863 10.9492 176.902 10.8852 177.134 10.8852H178.255C178.3 10.8852 178.332 10.8532 178.332 10.8085V9.98983C178.332 9.94506 178.3 9.91309 178.255 9.91309H171.82C171.775 9.91309 171.743 9.94506 171.743 9.98983V10.8085C171.743 10.8532 171.775 10.8852 171.82 10.8852H172.715C173.301 10.8852 173.385 10.8852 173.527 11.0579C173.694 11.269 173.81 11.8318 173.81 13.8528V24.5207C173.81 24.7253 173.772 24.8149 173.514 24.8149H172.393C172.348 24.8149 172.316 24.8468 172.316 24.8916V25.7103C172.316 25.755 172.348 25.787 172.393 25.787H184.11C184.142 25.787 184.174 25.7678 184.187 25.7294L184.664 24.1433C184.767 23.7916 184.844 23.5166 184.844 23.3567C184.844 23.1328 184.702 22.9857 184.49 22.9857Z" fill="white"/>
<path d="M198.802 22.9857C198.564 22.9857 198.474 23.1456 198.39 23.2991C198.358 23.3631 198.319 23.427 198.267 23.4846C197.971 23.8619 197.482 24.1305 196.741 24.3224C196.168 24.4695 195.169 24.6678 193.147 24.6678H192.123C191.691 24.6678 191.588 24.6358 191.491 24.4823C191.279 24.105 191.176 23.5421 191.176 20.0182V11.1027C191.176 10.9492 191.214 10.8852 191.446 10.8852H192.567C192.612 10.8852 192.644 10.8532 192.644 10.8085V9.98983C192.644 9.94506 192.612 9.91309 192.567 9.91309H186.132C186.087 9.91309 186.055 9.94506 186.055 9.98983V10.8085C186.055 10.8532 186.087 10.8852 186.132 10.8852H187.028C187.614 10.8852 187.697 10.8852 187.839 11.0579C188.007 11.269 188.123 11.8318 188.123 13.8528V24.5207C188.123 24.7253 188.084 24.8149 187.826 24.8149H186.705C186.66 24.8149 186.628 24.8468 186.628 24.8916V25.7103C186.628 25.755 186.66 25.787 186.705 25.787H198.422C198.454 25.787 198.486 25.7678 198.499 25.7294L198.976 24.1433C199.079 23.7788 199.156 23.5102 199.156 23.3567C199.156 23.1328 199.015 22.9857 198.802 22.9857Z" fill="white"/>
<path d="M213.115 22.9859C212.877 22.9859 212.786 23.1458 212.703 23.2993C212.67 23.3633 212.632 23.4272 212.58 23.4848C212.284 23.8621 211.794 24.1307 211.054 24.3226C210.48 24.4697 209.482 24.668 207.459 24.668H206.435C206.004 24.668 205.901 24.636 205.804 24.4825C205.592 24.1115 205.488 23.5423 205.488 20.0184V17.6712H207.827C210.39 17.6712 210.39 17.9526 210.39 18.3363V19.1805C210.39 19.2253 210.422 19.2573 210.468 19.2573H211.215C211.26 19.2573 211.292 19.2253 211.292 19.1805V14.8251C211.292 14.7803 211.26 14.7484 211.215 14.7484H210.468C210.422 14.7484 210.39 14.7803 210.39 14.8251V15.5926C210.39 16.3473 210.39 16.6287 207.801 16.6287H205.482V11.2819C205.482 11.0965 205.501 11.0389 205.727 11.0389H207.55C210.274 11.0389 211.601 11.6017 211.64 11.9855C211.666 12.318 211.717 12.5994 212.116 12.5994C212.439 12.5994 212.458 12.4523 212.741 10.0156C212.741 10.0092 212.741 10.0028 212.741 9.99643C212.741 9.95166 212.709 9.91968 212.664 9.91968H200.445C200.4 9.91968 200.368 9.95166 200.368 9.99643V10.8151C200.368 10.8598 200.4 10.8918 200.445 10.8918H201.34C201.926 10.8918 202.01 10.8918 202.152 11.0645C202.319 11.2755 202.435 11.8384 202.435 13.8594V24.5273C202.435 24.7319 202.397 24.8215 202.139 24.8215H201.018C200.973 24.8215 200.941 24.8534 200.941 24.8982V25.7168C200.941 25.7616 200.973 25.7936 201.018 25.7936H212.735C212.767 25.7936 212.799 25.7744 212.812 25.736L213.289 24.1499C213.392 23.7982 213.469 23.5231 213.469 23.3633C213.469 23.1394 213.327 22.9923 213.115 22.9923V22.9859ZM212.67 9.99643C212.664 10.0668 212.651 10.1371 212.645 10.2011C212.651 10.1307 212.658 10.0668 212.664 9.99643H212.67Z" fill="white"/>
<path d="M231.717 18.3618H225.134C225.089 18.3618 225.057 18.3938 225.057 18.4385V19.2572C225.057 19.3019 225.089 19.3339 225.134 19.3339H226.403C227.202 19.3339 227.35 19.3339 227.35 22.4997V24.5527C226.577 24.9173 225.72 25.0964 224.735 25.0964C220.574 25.0964 218.68 21.3357 218.68 17.8437C218.68 12.1388 222.88 10.6167 225.359 10.6167C227.839 10.6167 229.269 11.6911 229.269 12.1516C229.269 12.4394 229.321 12.772 229.72 12.772C229.978 12.772 230.145 12.6569 230.442 10.4248C230.442 10.3928 230.429 10.3609 230.396 10.3481C228.696 9.53583 226.545 9.44629 225.701 9.44629C224.561 9.44629 223.453 9.59978 222.409 9.88759C222.287 9.91956 222.165 9.95154 222.049 9.98992C221.958 10.0155 221.868 10.0475 221.778 10.0795C220.818 10.3928 219.975 10.8149 219.247 11.3266C219.092 11.4289 218.937 11.5313 218.796 11.64C216.722 13.2389 215.627 15.5093 215.627 18.2211C215.627 23.1841 218.783 26.2668 223.859 26.2668C225.546 26.2668 227.073 25.883 228.297 25.5696L228.387 25.544C230.467 25.0068 230.641 24.6998 230.641 24.4056C230.641 24.2649 230.583 24.1946 230.525 24.1114C230.429 23.9771 230.293 23.798 230.293 23.1137V19.5769C230.293 19.4362 230.293 19.3339 230.641 19.3339H231.71C231.756 19.3339 231.788 19.3019 231.788 19.2572V18.4385C231.788 18.3938 231.756 18.3618 231.71 18.3618H231.717Z" fill="white"/>
<path d="M246.383 22.9859C246.145 22.9859 246.055 23.1458 245.971 23.2993C245.939 23.3633 245.9 23.4272 245.849 23.4848C245.552 23.8621 245.063 24.1307 244.322 24.3226C243.749 24.4697 242.751 24.668 240.728 24.668H239.704C239.272 24.668 239.169 24.636 239.073 24.4825C238.86 24.1115 238.763 23.5423 238.763 20.0184V17.6712H241.102C243.665 17.6712 243.665 17.9526 243.665 18.3363V19.1805C243.665 19.2253 243.697 19.2573 243.743 19.2573H244.49C244.535 19.2573 244.567 19.2253 244.567 19.1805V14.8251C244.567 14.7803 244.535 14.7484 244.49 14.7484H243.743C243.697 14.7484 243.665 14.7803 243.665 14.8251V15.5926C243.665 16.3473 243.665 16.6287 241.076 16.6287H238.757V11.2819C238.757 11.0965 238.776 11.0389 239.002 11.0389H240.825C243.549 11.0389 244.876 11.6017 244.908 11.9855C244.934 12.318 244.986 12.5994 245.385 12.5994C245.707 12.5994 245.726 12.4523 246.01 10.0156C246.01 10.0092 246.01 10.0028 246.01 9.99643C246.01 9.95166 245.978 9.91968 245.933 9.91968H233.714C233.668 9.91968 233.636 9.95166 233.636 9.99643V10.8151C233.636 10.8598 233.668 10.8918 233.714 10.8918H234.609C235.195 10.8918 235.279 10.8918 235.427 11.0645C235.594 11.2755 235.704 11.8384 235.704 13.8594V24.5273C235.704 24.7319 235.665 24.8215 235.408 24.8215H234.287C234.242 24.8215 234.209 24.8534 234.209 24.8982V25.7168C234.209 25.7616 234.242 25.7936 234.287 25.7936H246.003C246.036 25.7936 246.068 25.7744 246.081 25.736L246.557 24.1499C246.66 23.7854 246.738 23.5168 246.738 23.3633C246.738 23.1394 246.596 22.9923 246.383 22.9923V22.9859ZM245.907 10.2139C245.913 10.1435 245.92 10.0668 245.926 9.99003C245.92 10.0668 245.907 10.1371 245.9 10.2139H245.907Z" fill="white"/>
<path d="M143.71 37.6447C142.158 37.0947 141.282 36.7301 141.282 35.7068C141.282 34.7858 142.119 34.1207 143.279 34.1207C143.697 34.1207 144.831 34.2678 144.986 34.9521C145.011 35.0928 145.057 35.2527 145.25 35.2527C145.314 35.2527 145.514 35.2527 145.514 34.9713C145.514 34.8626 145.501 34.6835 145.482 34.4533C145.469 34.2486 145.449 33.9992 145.437 33.7306C145.437 33.7114 145.424 33.6922 145.404 33.6858C144.889 33.4875 144.264 33.3916 143.504 33.3916C141.694 33.3916 139.775 34.3957 139.775 36.2568C139.775 37.6319 140.496 38.4505 142.274 39.0901C143.884 39.6657 144.799 40.043 144.799 41.1815C144.799 42.4734 143.581 43.0554 142.448 43.0554C141.385 43.0554 140.296 42.5054 140.11 41.885C140.052 41.6803 139.994 41.5396 139.8 41.5396C139.549 41.5396 139.517 41.7059 139.517 41.853C139.517 41.9361 139.543 42.0832 139.594 42.3391L139.781 43.2984C139.781 43.2984 139.794 43.3304 139.813 43.3368C140.619 43.631 141.501 43.7845 142.358 43.7845C145.598 43.7845 146.306 41.5268 146.306 40.6634C146.306 39.1796 145.553 38.3098 143.717 37.6511L143.71 37.6447Z" fill="white"/>
<path d="M156.251 41.7571C156.103 41.7571 156.045 41.853 155.993 41.949C155.974 41.9873 155.948 42.0257 155.923 42.0641C155.736 42.2943 155.439 42.4606 154.982 42.5821C154.628 42.6717 154.01 42.7932 152.76 42.7932H152.129C151.865 42.7932 151.8 42.774 151.742 42.6781C151.613 42.4478 151.549 42.0961 151.549 39.9216V38.4762H152.992C154.576 38.4762 154.576 38.6488 154.576 38.8855V39.4035C154.576 39.4035 154.602 39.4547 154.628 39.4547H155.092C155.092 39.4547 155.143 39.4291 155.143 39.4035V36.711C155.143 36.711 155.117 36.6598 155.092 36.6598H154.628C154.628 36.6598 154.576 36.6854 154.576 36.711V37.1842C154.576 37.6511 154.576 37.8238 152.979 37.8238H151.549V34.5237C151.549 34.4021 151.562 34.3766 151.697 34.3766H152.824C154.505 34.3766 155.324 34.7219 155.349 34.9586C155.362 35.1696 155.394 35.3423 155.646 35.3423C155.845 35.3423 155.858 35.2528 156.032 33.7434C156.032 33.7434 156.032 33.737 156.032 33.7306C156.032 33.705 156.013 33.6794 155.981 33.6794H148.431C148.431 33.6794 148.38 33.705 148.38 33.7306V34.2359C148.38 34.2359 148.406 34.287 148.431 34.287H148.985C149.346 34.287 149.398 34.287 149.488 34.3894C149.591 34.5237 149.662 34.8626 149.662 36.1162V42.7101C149.662 42.838 149.636 42.8891 149.481 42.8891H148.786C148.786 42.8891 148.734 42.9147 148.734 42.9403V43.4455C148.734 43.4455 148.76 43.4967 148.786 43.4967H156.026C156.026 43.4967 156.071 43.4839 156.077 43.4583L156.367 42.4798C156.431 42.2624 156.476 42.0897 156.476 41.9937C156.476 41.853 156.386 41.7635 156.257 41.7635L156.251 41.7571ZM155.974 33.7306C155.974 33.7754 155.968 33.8138 155.961 33.8521C155.961 33.8074 155.968 33.7754 155.974 33.7306Z" fill="white"/>
<path d="M166.151 41.7571C166.003 41.7571 165.945 41.853 165.894 41.949C165.874 41.9873 165.849 42.0257 165.823 42.0641C165.636 42.2943 165.34 42.4606 164.883 42.5821C164.528 42.6717 163.91 42.7932 162.66 42.7932H162.029C161.765 42.7932 161.701 42.774 161.643 42.6781C161.514 42.4478 161.449 42.0961 161.449 39.9216V38.4762H162.892C164.477 38.4762 164.477 38.6488 164.477 38.8855V39.4035C164.477 39.4035 164.502 39.4547 164.528 39.4547H164.992C164.992 39.4547 165.044 39.4291 165.044 39.4035V36.711C165.044 36.711 165.018 36.6598 164.992 36.6598H164.528C164.528 36.6598 164.477 36.6854 164.477 36.711V37.1842C164.477 37.6511 164.477 37.8238 162.879 37.8238H161.449V34.5237C161.449 34.4021 161.462 34.3766 161.598 34.3766H162.725C164.406 34.3766 165.224 34.7219 165.25 34.9586C165.263 35.1696 165.295 35.3423 165.546 35.3423C165.746 35.3423 165.759 35.2528 165.932 33.7434C165.932 33.7434 165.932 33.737 165.932 33.7306C165.932 33.705 165.913 33.6794 165.881 33.6794H158.332C158.332 33.6794 158.28 33.705 158.28 33.7306V34.2359C158.28 34.2359 158.306 34.287 158.332 34.287H158.886C159.246 34.287 159.298 34.287 159.388 34.3894C159.491 34.5237 159.562 34.8626 159.562 36.1162V42.7101C159.562 42.838 159.536 42.8891 159.382 42.8891H158.686C158.686 42.8891 158.635 42.9147 158.635 42.9403V43.4455C158.635 43.4455 158.66 43.4967 158.686 43.4967H165.926C165.926 43.4967 165.971 43.4839 165.978 43.4583L166.267 42.4798C166.332 42.2624 166.377 42.0897 166.377 41.9937C166.377 41.853 166.287 41.7635 166.158 41.7635L166.151 41.7571ZM165.874 33.7306C165.874 33.7754 165.868 33.8138 165.862 33.8585C165.862 33.8138 165.868 33.7818 165.874 33.7306Z" fill="white"/>
<path d="M178.229 42.8892H178.139C177.707 42.8892 177.533 42.8252 177.353 42.6973C177.166 42.5566 176.689 42.0002 175.884 40.9769L173.372 37.8175C174.828 36.4616 175.704 35.5854 176.129 35.1569L176.296 34.9842L176.445 34.8307C176.85 34.4086 176.979 34.2807 177.398 34.2807H177.61C177.61 34.2807 177.662 34.2551 177.662 34.2295V33.7243C177.662 33.7243 177.636 33.6731 177.61 33.6731H174.28C174.28 33.6731 174.229 33.6987 174.229 33.7243V34.2295C174.229 34.2295 174.254 34.2807 174.28 34.2807H175.298C175.485 34.2807 175.523 34.3191 175.523 34.383C175.523 34.4534 175.343 34.7667 174.139 36.0011C173.263 36.9029 172.251 37.939 171.343 38.796V34.447C171.343 34.3318 171.388 34.2807 171.511 34.2807H172.219C172.219 34.2807 172.271 34.2551 172.271 34.2295V33.7243C172.271 33.7243 172.245 33.6731 172.219 33.6731H168.232C168.232 33.6731 168.18 33.6987 168.18 33.7243V34.2295C168.18 34.2295 168.206 34.2807 168.232 34.2807H168.786C169.147 34.2807 169.198 34.2807 169.288 34.383C169.391 34.5173 169.462 34.8563 169.462 36.1098V42.7037C169.462 42.8316 169.436 42.8828 169.282 42.8828H168.586C168.586 42.8828 168.535 42.9084 168.535 42.9339V43.4392C168.535 43.4392 168.56 43.4904 168.586 43.4904H172.573C172.573 43.4904 172.625 43.4648 172.625 43.4392V42.9339C172.625 42.9339 172.599 42.8828 172.573 42.8828H171.91C171.453 42.8828 171.343 42.8828 171.343 41.0536V39.7297L172.129 39.0326L174.776 42.5694C175.272 43.2217 175.472 43.4904 175.987 43.4904H178.222C178.222 43.4904 178.274 43.4648 178.274 43.4392V42.9339C178.274 42.9339 178.248 42.8828 178.222 42.8828L178.229 42.8892ZM171.82 38.4186C171.652 38.5849 171.485 38.7576 171.324 38.9175V38.8919C171.485 38.7384 171.652 38.5785 171.82 38.4186Z" fill="white"/>
<path d="M188.277 33.6793H184.29C184.29 33.6793 184.238 33.7049 184.238 33.7305V34.2357C184.238 34.2357 184.264 34.2869 184.29 34.2869H184.844C185.205 34.2869 185.256 34.2869 185.346 34.3892C185.449 34.5235 185.52 34.8625 185.52 36.116V43.0425C185.52 44.6989 184.844 45.6519 183.659 45.6519C183.221 45.6519 182.693 45.4408 182.583 45.0891C182.525 44.942 182.461 44.7949 182.274 44.7949C182.106 44.7949 182.023 44.8972 182.023 45.0891C182.023 45.2426 182.184 46.1188 182.19 46.1507C182.19 46.1699 182.209 46.1827 182.222 46.1891C182.615 46.3106 183.124 46.3746 183.685 46.3746C185.939 46.3746 187.401 45.1274 187.401 43.2024V34.4404C187.401 34.3253 187.446 34.2741 187.569 34.2741H188.277C188.277 34.2741 188.329 34.2485 188.329 34.2229V33.7177C188.329 33.7177 188.303 33.6665 188.277 33.6665V33.6793Z" fill="white"/>
<path d="M200.49 33.6795H197.611C197.611 33.6795 197.559 33.7051 197.559 33.7307V34.2359C197.559 34.2359 197.585 34.2871 197.611 34.2871H198.242C198.474 34.2871 198.615 34.2935 198.693 34.4278C198.822 34.658 198.886 35.6046 198.886 37.325V39.8321C198.886 41.8595 197.849 42.9787 195.962 42.9787C194.229 42.9787 193.424 41.9554 193.424 39.7553V34.447C193.424 34.3318 193.469 34.2807 193.591 34.2807H194.3C194.3 34.2807 194.351 34.2551 194.351 34.2295V33.7243C194.351 33.7243 194.326 33.6731 194.3 33.6731H190.313C190.313 33.6731 190.261 33.6987 190.261 33.7243V34.2295C190.261 34.2295 190.287 34.2807 190.313 34.2807H191.008C191.44 34.2807 191.543 34.2807 191.543 36.2505V40.3501C191.543 42.595 192.928 43.7782 195.549 43.7782C197.527 43.7782 199.633 42.7357 199.633 39.8129V34.4598C199.633 34.2999 199.633 34.2807 199.923 34.2807H200.49C200.49 34.2807 200.541 34.2551 200.541 34.2295V33.7243C200.541 33.7243 200.516 33.6731 200.49 33.6731V33.6795Z" fill="white"/>
<path d="M206.589 37.6447C205.037 37.0947 204.161 36.7301 204.161 35.7068C204.161 34.7858 204.998 34.1207 206.158 34.1207C206.577 34.1207 207.71 34.2678 207.865 34.9521C207.891 35.0928 207.936 35.2527 208.129 35.2527C208.193 35.2527 208.393 35.2527 208.393 34.9713C208.393 34.8626 208.38 34.6835 208.361 34.4533C208.348 34.2486 208.329 33.9992 208.316 33.7306C208.316 33.7114 208.303 33.6922 208.284 33.6858C207.768 33.4875 207.143 33.3916 206.383 33.3916C204.573 33.3916 202.654 34.3957 202.654 36.2568C202.654 37.6319 203.375 38.4505 205.153 39.0901C206.763 39.6657 207.678 40.043 207.678 41.1815C207.678 42.4734 206.461 43.0554 205.327 43.0554C204.264 43.0554 203.176 42.5054 202.989 41.885C202.931 41.6803 202.873 41.5396 202.68 41.5396C202.428 41.5396 202.396 41.7059 202.396 41.853C202.396 41.9361 202.422 42.0832 202.474 42.3391L202.66 43.2984C202.66 43.2984 202.673 43.3304 202.693 43.3368C203.498 43.631 204.38 43.7845 205.237 43.7845C208.477 43.7845 209.185 41.5268 209.185 40.6634C209.185 39.1796 208.432 38.3098 206.596 37.6511L206.589 37.6447Z" fill="white"/>
<path d="M219.446 34.7731C219.362 34.5237 219.24 34.1783 219.105 33.7178C219.105 33.6986 219.079 33.6794 219.053 33.6794H211.105C211.105 33.6794 211.066 33.6922 211.053 33.7178C210.854 34.351 210.738 34.7027 210.667 34.9138C210.596 35.1249 210.577 35.1824 210.577 35.2336C210.577 35.3743 210.68 35.4702 210.828 35.4702C210.995 35.4702 211.053 35.3615 211.156 35.1696V35.1568C211.44 34.6452 212.342 34.3894 213.849 34.3894H214.139V42.7228C214.139 42.8763 214.087 42.9019 213.945 42.9019H212.805C212.805 42.9019 212.754 42.9275 212.754 42.9531V43.4583C212.754 43.4583 212.78 43.5095 212.805 43.5095H217.598C217.598 43.5095 217.649 43.4839 217.649 43.4583V42.9531C217.649 42.9531 217.623 42.9019 217.598 42.9019H216.522C216.097 42.9019 216.032 42.7612 216.032 40.6571V34.3894H216.303C217.829 34.3894 218.731 34.6452 219.002 35.1568C219.111 35.3743 219.189 35.4766 219.337 35.4766C219.485 35.4766 219.588 35.3807 219.588 35.24C219.588 35.1824 219.549 35.0673 219.453 34.7859L219.446 34.7731Z" fill="white"/>
<path d="M225.585 42.8891H224.921C224.464 42.8891 224.354 42.8891 224.354 41.06V34.4533C224.354 34.3382 224.399 34.287 224.522 34.287H225.23C225.23 34.287 225.282 34.2614 225.282 34.2359V33.7306C225.282 33.7306 225.256 33.6794 225.23 33.6794H221.243C221.243 33.6794 221.192 33.705 221.192 33.7306V34.2359C221.192 34.2359 221.217 34.287 221.243 34.287H221.797C222.158 34.287 222.209 34.287 222.3 34.3894C222.403 34.5237 222.473 34.8626 222.473 36.1162V42.7101C222.473 42.838 222.448 42.8891 222.293 42.8891H221.597C221.597 42.8891 221.546 42.9147 221.546 42.9403V43.4455C221.546 43.4455 221.572 43.4967 221.597 43.4967H225.585C225.585 43.4967 225.636 43.4711 225.636 43.4455V42.9403C225.636 42.9403 225.61 42.8891 225.585 42.8891Z" fill="white"/>
<path d="M236.161 41.2646C235.955 41.2646 235.929 41.3797 235.865 41.6483C235.774 42.0385 235.388 42.3966 234.757 42.6716C234.216 42.9083 233.559 43.0554 233.031 43.0554C230.866 43.0554 229.295 41.2134 229.295 38.668C229.295 35.9882 230.969 34.1143 233.372 34.1143C234.351 34.1143 235.401 34.6004 235.497 34.9777C235.575 35.3167 235.626 35.3998 235.774 35.3998C236.045 35.3998 236.058 35.2655 236.167 33.98C236.167 33.9544 236.154 33.9352 236.135 33.9288C235.137 33.5579 234.319 33.3916 233.501 33.3916C229.977 33.3916 227.317 35.79 227.317 38.9622C227.317 42.1344 229.288 43.7845 232.586 43.7845C233.874 43.7845 235.208 43.4967 236.258 42.9978C236.277 42.9914 236.283 42.9722 236.283 42.9594L236.406 41.4885C236.406 41.3797 236.316 41.2646 236.154 41.2646H236.161Z" fill="white"/>
<path d="M246.512 41.7571C246.364 41.7571 246.306 41.853 246.254 41.949C246.235 41.9873 246.209 42.0257 246.184 42.0641C245.997 42.2943 245.701 42.4606 245.243 42.5821C244.889 42.6717 244.271 42.7932 243.021 42.7932H242.39C242.126 42.7932 242.061 42.774 242.003 42.6781C241.874 42.4478 241.81 42.0961 241.81 39.9216V38.4762H243.253C244.837 38.4762 244.837 38.6488 244.837 38.8855V39.4035C244.837 39.4035 244.863 39.4547 244.889 39.4547H245.353C245.353 39.4547 245.404 39.4291 245.404 39.4035V36.711C245.404 36.711 245.378 36.6598 245.353 36.6598H244.889C244.889 36.6598 244.837 36.6854 244.837 36.711V37.1842C244.837 37.6511 244.837 37.8238 243.24 37.8238H241.81V34.5237C241.81 34.4021 241.823 34.3766 241.958 34.3766H243.085C244.767 34.3766 245.585 34.7219 245.604 34.9586C245.617 35.1696 245.649 35.3423 245.9 35.3423C246.1 35.3423 246.113 35.2528 246.287 33.7434C246.287 33.7434 246.287 33.737 246.287 33.7306C246.287 33.705 246.267 33.6794 246.235 33.6794H238.686C238.686 33.6794 238.635 33.705 238.635 33.7306V34.2359C238.635 34.2359 238.66 34.287 238.686 34.287H239.24C239.601 34.287 239.652 34.287 239.742 34.3894C239.845 34.5173 239.916 34.8626 239.916 36.1162V42.7101C239.916 42.838 239.891 42.8891 239.736 42.8891H239.04C239.04 42.8891 238.989 42.9147 238.989 42.9403V43.4455C238.989 43.4455 239.015 43.4967 239.04 43.4967H246.28C246.28 43.4967 246.325 43.4839 246.332 43.4583L246.622 42.4798C246.686 42.256 246.731 42.0897 246.731 41.9937C246.731 41.853 246.641 41.7635 246.512 41.7635V41.7571ZM246.222 33.8649C246.222 33.8201 246.229 33.7818 246.235 33.7306C246.235 33.7818 246.222 33.8138 246.222 33.8649Z" fill="white"/>
</g>
<defs>
<clipPath id="clip0_18832_7802">
<rect width="312" height="56" fill="white"/>
</clipPath>
</defs>
</svg>
