<svg width="57" height="56" viewBox="0 0 57 56" fill="none" xmlns="http://www.w3.org/2000/svg">
<path d="M1.07611 27.9232C1.07611 28.825 1.12121 29.7396 1.21139 30.6478C2.49963 43.407 12.7605 53.5697 25.6107 54.804C26.4996 54.8872 27.3949 54.9319 28.271 54.9319C29.147 54.9319 30.0487 54.8872 30.9312 54.804C43.7879 53.5633 54.0487 43.4006 55.3305 30.6478C55.4207 29.7396 55.4658 28.825 55.4658 27.9232V1.06805H1.06323V27.9232H1.07611Z" fill="#004278"/>
<path d="M55.8263 0H0.000244141V27.9233C0.000244141 28.8634 0.0453335 29.81 0.141952 30.7501C1.48173 44.0146 12.1484 54.5802 25.5139 55.8657C26.435 55.9552 27.369 56 28.2837 56C29.1983 56 30.1323 55.9552 31.0534 55.8657C44.4189 54.5738 55.0856 44.0146 56.4254 30.7501C56.522 29.81 56.5671 28.857 56.5671 27.9233V0H55.8263ZM55.4849 1.06807V25.3458H47.2917C46.113 16.942 39.4205 10.2969 30.9568 9.12654V1.06807H55.4849ZM25.6105 30.6542V41.5331C20.0904 40.4587 15.7297 36.1352 14.654 30.6542H25.6105ZM14.6476 25.3458C15.7297 19.8648 20.084 15.5349 25.6041 14.4669V25.3458H14.6476ZM30.9568 30.6542H41.9133C40.8312 36.1352 36.4769 40.4651 30.9568 41.5331V30.6542ZM30.9568 25.3458V14.4669C36.4769 15.5413 40.8376 19.8648 41.9133 25.3458H30.9568ZM25.6105 1.06807V9.12654C17.1468 10.2969 10.4543 16.942 9.2756 25.3458H1.08237V1.06807H25.6105ZM1.21763 30.6542H9.2756C10.4543 39.058 17.1468 45.7031 25.6105 46.8735V54.804C12.7667 53.5569 2.51231 43.407 1.21763 30.6542ZM30.9568 54.804V46.8735C39.4205 45.7031 46.113 39.058 47.2917 30.6542H55.3497C54.0614 43.407 43.807 53.5569 30.9568 54.804Z" fill="#FDB913"/>
</svg>
