<svg width="247" height="37" viewBox="0 0 247 37" fill="none" xmlns="http://www.w3.org/2000/svg">
<path d="M10.1256 0.473389H3.66506C3.61997 0.473389 3.58776 0.505367 3.58776 0.550136V1.36877C3.58776 1.41354 3.61997 1.44552 3.66506 1.44552H4.56039C5.14654 1.44552 5.23027 1.44552 5.37198 1.6182C5.53945 1.82926 5.65539 2.39207 5.65539 4.41309V15.631C5.65539 18.3172 4.55395 19.8649 2.6409 19.8649C1.92593 19.8649 1.07568 19.5259 0.89533 18.9503C0.805153 18.7073 0.695652 18.477 0.399356 18.477C0.135266 18.477 0 18.6369 0 18.9503C0 19.1997 0.26409 20.6132 0.276973 20.6707C0.276973 20.6963 0.302738 20.7219 0.328502 20.7283C0.966184 20.9266 1.78422 21.0289 2.69243 21.0289C6.34461 21.0289 8.70209 19.0143 8.70209 15.8996V1.71414C8.70209 1.52227 8.77939 1.44552 8.97262 1.44552H10.1192C10.1643 1.44552 10.1965 1.41354 10.1965 1.36877V0.550136C10.1965 0.505367 10.1643 0.473389 10.1192 0.473389H10.1256Z" fill="white"/>
<path d="M20.5474 0C15.5619 0 11.9419 3.70946 11.9419 8.81316C11.9419 13.9169 15.1239 16.8141 20.045 16.8141C24.966 16.8141 28.6504 13.1046 28.6504 8.00091C28.6504 2.89721 25.4685 0 20.5474 0ZM19.8195 1.04248C21.9644 1.04248 25.6037 2.78849 25.6037 9.3312C25.6037 13.3604 23.7937 15.7652 20.7664 15.7652C17.9838 15.7652 14.9822 13.1686 14.9822 7.47647C14.9822 5.96711 15.33 1.04248 19.8195 1.04248Z" fill="white"/>
<path d="M46.828 15.3752H45.7588C45.018 15.3752 44.8377 15.3752 44.8377 12.4076V1.71414C44.8377 1.52227 44.915 1.44552 45.1082 1.44552H46.2547C46.2998 1.44552 46.332 1.41354 46.332 1.36877V0.550136C46.332 0.505367 46.2998 0.473389 46.2547 0.473389H39.7942C39.7491 0.473389 39.7169 0.505367 39.7169 0.550136V1.36877C39.7169 1.41354 39.7491 1.44552 39.7942 1.44552H40.6895C41.2757 1.44552 41.3594 1.44552 41.5011 1.6182C41.6686 1.82926 41.7781 2.39207 41.7781 4.41309V7.18239H34.8988V1.73972C34.8988 1.4839 34.989 1.44552 35.1951 1.44552H36.3159C36.361 1.44552 36.3932 1.41354 36.3932 1.36877V0.550136C36.3932 0.505367 36.361 0.473389 36.3159 0.473389H29.8554C29.8103 0.473389 29.7781 0.505367 29.7781 0.550136V1.36877C29.7781 1.41354 29.8103 1.44552 29.8554 1.44552H30.7507C31.3369 1.44552 31.4206 1.44552 31.5623 1.6182C31.7298 1.82926 31.8457 2.39207 31.8457 4.41309V15.081C31.8457 15.2856 31.8071 15.3752 31.5494 15.3752H30.4286C30.3836 15.3752 30.3513 15.4071 30.3513 15.4519V16.2706C30.3513 16.3153 30.3836 16.3473 30.4286 16.3473H36.8892C36.9343 16.3473 36.9665 16.3153 36.9665 16.2706V15.4519C36.9665 15.4071 36.9343 15.3752 36.8892 15.3752H35.8199C35.0792 15.3752 34.8988 15.3752 34.8988 12.4076V8.30162H41.7781V15.081C41.7781 15.2856 41.7394 15.3752 41.4818 15.3752H40.361C40.3159 15.3752 40.2837 15.4071 40.2837 15.4519V16.2706C40.2837 16.3153 40.3159 16.3473 40.361 16.3473H46.8216C46.8666 16.3473 46.8988 16.3153 46.8988 16.2706V15.4519C46.8988 15.4071 46.8666 15.3752 46.8216 15.3752H46.828Z" fill="white"/>
<path d="M65.1076 0.473389H60.4442C60.3991 0.473389 60.3669 0.505367 60.3669 0.550136V1.36877C60.3669 1.41354 60.3991 1.44552 60.4442 1.44552H61.3395C61.8033 1.44552 61.9836 1.44552 62.1318 1.59902C62.3894 1.85484 62.5053 3.28106 62.5053 6.10153V11.5698L52.6889 0.505367C52.6889 0.505367 52.6503 0.479784 52.631 0.479784H48.3153C48.2702 0.479784 48.238 0.511762 48.238 0.556532V1.37517C48.238 1.41994 48.2702 1.45192 48.3153 1.45192H49.011C49.4941 1.45192 49.8805 1.72053 50.1382 2.22579C50.3443 2.61592 50.4796 3.2299 50.4796 3.79911V15.113C50.4796 15.3176 50.4796 15.3816 50.0351 15.3816H49.0883C49.0432 15.3816 49.011 15.4135 49.011 15.4583V16.277C49.011 16.3217 49.0432 16.3537 49.0883 16.3537H53.7517C53.7968 16.3537 53.829 16.3217 53.829 16.277V15.4583C53.829 15.4135 53.7968 15.3816 53.7517 15.3816H52.7276C52.1607 15.3816 52.019 15.3368 51.9031 14.8699C51.7549 14.2815 51.6841 12.8425 51.6841 10.5785V3.65201L62.7694 16.149C63.0593 16.488 63.2074 16.5967 63.3749 16.5967C63.6132 16.5967 63.7034 16.3921 63.7034 16.2258V1.72053C63.7034 1.51587 63.7034 1.45192 64.1221 1.45192H65.0947C65.1398 1.45192 65.172 1.41994 65.172 1.37517V0.556532C65.172 0.511762 65.1398 0.479784 65.0947 0.479784L65.1076 0.473389Z" fill="white"/>
<path d="M86.3057 15.375H85.5585C85.3073 15.375 85.1076 15.2662 84.9466 15.036L79.7163 7.21417C80.2703 6.5874 80.9015 5.8583 81.9257 4.55359L83.098 3.06981C83.3105 2.8012 83.4844 2.57735 83.6261 2.39188C84.077 1.80988 84.2316 1.61161 84.3733 1.52847C84.5279 1.43893 84.5859 1.43893 84.8564 1.43893H85.5263C85.5714 1.43893 85.6036 1.40695 85.6036 1.36218V0.543544C85.6036 0.498775 85.5714 0.466797 85.5263 0.466797H80.8113C80.7662 0.466797 80.734 0.498775 80.734 0.543544V1.36218C80.734 1.40695 80.7662 1.43893 80.8113 1.43893H82.106C82.5054 1.43893 82.5054 1.57963 82.5054 1.65638C82.5054 1.85465 82.1769 2.40467 81.5199 3.29366C80.8693 4.17625 80.1092 5.1292 79.1237 6.28041L76.7598 2.70526C76.3347 2.0593 76.0255 1.59242 76.0255 1.50928C76.0255 1.47091 76.0255 1.43893 76.1736 1.43893H77.5456C77.5907 1.43893 77.6229 1.40695 77.6229 1.36218V0.543544C77.6229 0.498775 77.5907 0.466797 77.5456 0.466797H71.0851C71.04 0.466797 71.0078 0.498775 71.0078 0.543544V1.36218C71.0078 1.40695 71.04 1.43893 71.0851 1.43893H71.3814C71.8838 1.43893 72.2187 1.50928 72.3798 1.64359C72.5408 1.75871 72.7598 1.98256 73.784 3.53669L76.9724 8.34619C74.8339 11.1795 73.1527 13.7697 72.6889 14.4988C72.2187 15.2343 72.0641 15.3814 71.3105 15.3814H70.8854C70.8403 15.3814 70.8081 15.4133 70.8081 15.4581V16.2768C70.8081 16.3215 70.8403 16.3535 70.8854 16.3535H75.7743C75.8194 16.3535 75.8516 16.3215 75.8516 16.2768V15.4581C75.8516 15.4133 75.8194 15.3814 75.7743 15.3814H74.3057C74.0996 15.3814 74.0352 15.3174 74.0352 15.1383C74.0352 14.8313 74.4088 14.0703 75.1431 12.8743C76.0448 11.4289 76.8306 10.2969 77.6165 9.32472L80.9981 14.486L81.069 14.5947C81.1978 14.793 81.4554 15.1959 81.4554 15.2854C81.4554 15.311 81.4554 15.3814 81.2107 15.3814H79.8902C79.8451 15.3814 79.8129 15.4133 79.8129 15.4581V16.2768C79.8129 16.3215 79.8451 16.3535 79.8902 16.3535H86.2992C86.3443 16.3535 86.3765 16.3215 86.3765 16.2768V15.4581C86.3765 15.4133 86.3443 15.3814 86.2992 15.3814L86.3057 15.375ZM79.1559 6.39553C79.2525 6.27401 79.3363 6.17808 79.4265 6.06936C79.3363 6.17808 79.2526 6.28041 79.1624 6.39553H79.1559ZM77.5972 9.2096V9.22239C77.5134 9.33751 77.4232 9.45903 77.3266 9.58055C77.4168 9.45903 77.507 9.33112 77.5972 9.2096Z" fill="white"/>
<path d="M103.601 15.375H102.853C102.602 15.375 102.403 15.2662 102.242 15.036L97.0112 7.21417C97.5652 6.5874 98.1964 5.8583 99.2206 4.55359L100.393 3.06981C100.605 2.8012 100.779 2.57735 100.921 2.39188C101.372 1.80988 101.527 1.61161 101.668 1.52847C101.823 1.43893 101.881 1.43893 102.151 1.43893H102.821C102.866 1.43893 102.899 1.40695 102.899 1.36218V0.543544C102.899 0.498775 102.866 0.466797 102.821 0.466797H98.1062C98.0612 0.466797 98.029 0.498775 98.029 0.543544V1.36218C98.029 1.40695 98.0612 1.43893 98.1062 1.43893H99.4009C99.8003 1.43893 99.8003 1.57963 99.8003 1.65638C99.8003 1.85465 99.4718 2.40467 98.8148 3.29366C98.1642 4.17625 97.4042 5.1292 96.4186 6.28041L94.0547 2.70526C93.6296 2.0593 93.3204 1.59242 93.3204 1.50928C93.3204 1.47091 93.3204 1.43893 93.4686 1.43893H94.8406C94.8856 1.43893 94.9178 1.40695 94.9178 1.36218V0.543544C94.9178 0.498775 94.8856 0.466797 94.8406 0.466797H88.38C88.3349 0.466797 88.3027 0.498775 88.3027 0.543544V1.36218C88.3027 1.40695 88.3349 1.43893 88.38 1.43893H88.6763C89.1787 1.43893 89.5137 1.50928 89.6747 1.64359C89.8357 1.75871 90.0547 1.98256 91.0789 3.53669L94.2673 8.34619C92.1288 11.1795 90.4476 13.7697 89.9839 14.4988C89.5137 15.2343 89.3591 15.3814 88.6054 15.3814H88.1803C88.1352 15.3814 88.103 15.4133 88.103 15.4581V16.2768C88.103 16.3215 88.1352 16.3535 88.1803 16.3535H93.0692C93.1143 16.3535 93.1465 16.3215 93.1465 16.2768V15.4581C93.1465 15.4133 93.1143 15.3814 93.0692 15.3814H91.6006C91.3945 15.3814 91.3301 15.3174 91.3301 15.1383C91.3301 14.8313 91.7037 14.0703 92.438 12.8743C93.3397 11.4289 94.1256 10.2969 94.9114 9.32472L98.293 14.486L98.3639 14.5947C98.4927 14.793 98.7504 15.1959 98.7504 15.2854C98.7504 15.311 98.7504 15.3814 98.5056 15.3814H97.1852C97.1401 15.3814 97.1079 15.4133 97.1079 15.4581V16.2768C97.1079 16.3215 97.1401 16.3535 97.1852 16.3535H103.594C103.639 16.3535 103.671 16.3215 103.671 16.2768V15.4581C103.671 15.4133 103.639 15.3814 103.594 15.3814L103.601 15.375ZM96.4509 6.39553C96.5475 6.27401 96.6312 6.17808 96.7214 6.06936C96.6312 6.17808 96.5475 6.28041 96.4573 6.39553H96.4509ZM94.8921 9.2096V9.22239C94.8083 9.33751 94.7182 9.45903 94.6215 9.58055C94.7117 9.45903 94.8019 9.33112 94.8921 9.2096Z" fill="white"/>
<path d="M112.515 15.3752H111.446C110.705 15.3752 110.525 15.3752 110.525 12.4076V1.71414C110.525 1.52227 110.602 1.44552 110.795 1.44552H111.942C111.987 1.44552 112.019 1.41354 112.019 1.36877V0.550136C112.019 0.505367 111.987 0.473389 111.942 0.473389H105.481C105.436 0.473389 105.404 0.505367 105.404 0.550136V1.36877C105.404 1.41354 105.436 1.44552 105.481 1.44552H106.376C106.963 1.44552 107.046 1.44552 107.188 1.6182C107.356 1.82926 107.465 2.39207 107.465 4.41309V15.081C107.465 15.2856 107.426 15.3752 107.169 15.3752H106.048C106.003 15.3752 105.971 15.4071 105.971 15.4519V16.2706C105.971 16.3153 106.003 16.3473 106.048 16.3473H112.508C112.554 16.3473 112.586 16.3153 112.586 16.2706V15.4519C112.586 15.4071 112.554 15.3752 112.508 15.3752H112.515Z" fill="white"/>
<path d="M121.437 15.3752H120.367C119.627 15.3752 119.446 15.3752 119.446 12.4076V1.71414C119.446 1.52227 119.524 1.44552 119.717 1.44552H120.863C120.908 1.44552 120.941 1.41354 120.941 1.36877V0.550136C120.941 0.505367 120.908 0.473389 120.863 0.473389H114.403C114.358 0.473389 114.325 0.505367 114.325 0.550136V1.36877C114.325 1.41354 114.358 1.44552 114.403 1.44552H115.298C115.884 1.44552 115.968 1.44552 116.11 1.6182C116.277 1.82926 116.393 2.39207 116.393 4.41309V15.081C116.393 15.2856 116.354 15.3752 116.097 15.3752H114.976C114.931 15.3752 114.899 15.4071 114.899 15.4519V16.2706C114.899 16.3153 114.931 16.3473 114.976 16.3473H121.437C121.482 16.3473 121.514 16.3153 121.514 16.2706V15.4519C121.514 15.4071 121.482 15.3752 121.437 15.3752Z" fill="white"/>
<path d="M130.351 15.3752H129.282C128.541 15.3752 128.361 15.3752 128.361 12.4076V1.71414C128.361 1.52227 128.438 1.44552 128.631 1.44552H129.778C129.823 1.44552 129.855 1.41354 129.855 1.36877V0.550136C129.855 0.505367 129.823 0.473389 129.778 0.473389H123.317C123.272 0.473389 123.24 0.505367 123.24 0.550136V1.36877C123.24 1.41354 123.272 1.44552 123.317 1.44552H124.213C124.799 1.44552 124.883 1.44552 125.024 1.6182C125.192 1.82926 125.308 2.39207 125.308 4.41309V15.081C125.308 15.2856 125.269 15.3752 125.011 15.3752H123.891C123.845 15.3752 123.813 15.4071 123.813 15.4519V16.2706C123.813 16.3153 123.845 16.3473 123.891 16.3473H130.351C130.396 16.3473 130.428 16.3153 130.428 16.2706V15.4519C130.428 15.4071 130.396 15.3752 130.351 15.3752Z" fill="white"/>
<path d="M150.995 12.7528C150.66 12.7528 150.622 12.9319 150.525 13.3668C150.21 14.7674 147.594 15.65 145.933 15.65C142.422 15.65 139.878 12.6633 139.878 8.54449C139.878 4.20187 142.596 1.17035 146.48 1.17035C148.071 1.17035 149.765 1.96341 149.92 2.57099C150.042 3.12101 150.126 3.24892 150.371 3.24892C150.809 3.24892 150.821 3.03147 150.995 0.952899C150.995 0.920921 150.976 0.888942 150.944 0.876151C149.327 0.274963 148.007 0.00634766 146.68 0.00634766C140.979 0.00634766 136.677 3.88209 136.677 9.01777C136.677 14.1534 139.865 16.8204 145.205 16.8204C147.285 16.8204 149.449 16.3599 151.15 15.5477C151.176 15.5349 151.189 15.5093 151.195 15.4837L151.395 13.1046C151.395 12.9319 151.253 12.7464 150.995 12.7464V12.7528Z" fill="white"/>
<path d="M161.971 0C156.985 0 153.365 3.70946 153.365 8.81316C153.365 13.9169 156.547 16.8141 161.468 16.8141C166.389 16.8141 170.074 13.1046 170.074 8.00091C170.074 2.89721 166.892 0 161.971 0ZM167.027 9.3376C167.027 13.3668 165.217 15.7716 162.19 15.7716C159.407 15.7716 156.405 13.175 156.405 7.48287C156.405 5.9735 156.753 1.04888 161.243 1.04888C163.388 1.04888 167.027 2.79488 167.027 9.3376Z" fill="white"/>
<path d="M184.489 13.5394C184.251 13.5394 184.161 13.6993 184.077 13.8528C184.045 13.9168 184.006 13.9807 183.955 14.0383C183.658 14.4156 183.169 14.6842 182.428 14.8761C181.855 15.0232 180.857 15.2215 178.834 15.2215H177.81C177.378 15.2215 177.275 15.1895 177.179 15.036C176.966 14.6651 176.863 14.0959 176.863 10.5719V1.65638C176.863 1.50289 176.902 1.43893 177.133 1.43893H178.254C178.299 1.43893 178.332 1.40695 178.332 1.36218V0.543544C178.332 0.498775 178.299 0.466797 178.254 0.466797H171.819C171.774 0.466797 171.742 0.498775 171.742 0.543544V1.36218C171.742 1.40695 171.774 1.43893 171.819 1.43893H172.715C173.301 1.43893 173.385 1.43893 173.526 1.61161C173.694 1.82267 173.81 2.38548 173.81 4.4065V15.0744C173.81 15.279 173.771 15.3686 173.514 15.3686H172.393C172.348 15.3686 172.315 15.4006 172.315 15.4453V16.264C172.315 16.3087 172.348 16.3407 172.393 16.3407H184.109C184.142 16.3407 184.174 16.3215 184.187 16.2832L184.663 14.697C184.766 14.3453 184.844 14.0703 184.844 13.9104C184.844 13.6865 184.702 13.5394 184.489 13.5394Z" fill="white"/>
<path d="M198.802 13.5394C198.563 13.5394 198.473 13.6993 198.389 13.8528C198.357 13.9168 198.319 13.9807 198.267 14.0383C197.971 14.4156 197.481 14.6842 196.74 14.8761C196.167 15.0232 195.169 15.2215 193.146 15.2215H192.122C191.691 15.2215 191.587 15.1895 191.491 15.036C191.278 14.6587 191.175 14.0959 191.175 10.5719V1.65638C191.175 1.50289 191.214 1.43893 191.446 1.43893H192.567C192.612 1.43893 192.644 1.40695 192.644 1.36218V0.543544C192.644 0.498775 192.612 0.466797 192.567 0.466797H186.132C186.087 0.466797 186.054 0.498775 186.054 0.543544V1.36218C186.054 1.40695 186.087 1.43893 186.132 1.43893H187.027C187.613 1.43893 187.697 1.43893 187.839 1.61161C188.006 1.82267 188.122 2.38548 188.122 4.4065V15.0744C188.122 15.279 188.083 15.3686 187.826 15.3686H186.705C186.66 15.3686 186.628 15.4006 186.628 15.4453V16.264C186.628 16.3087 186.66 16.3407 186.705 16.3407H198.422C198.454 16.3407 198.486 16.3215 198.499 16.2832L198.976 14.697C199.079 14.3325 199.156 14.0639 199.156 13.9104C199.156 13.6865 199.014 13.5394 198.802 13.5394Z" fill="white"/>
<path d="M213.114 13.5396C212.876 13.5396 212.786 13.6995 212.702 13.853C212.67 13.917 212.631 13.9809 212.58 14.0385C212.283 14.4158 211.794 14.6844 211.053 14.8763C210.48 15.0234 209.482 15.2217 207.459 15.2217H206.435C206.003 15.2217 205.9 15.1897 205.804 15.0362C205.591 14.6653 205.488 14.096 205.488 10.5721V8.22487H207.826C210.39 8.22487 210.39 8.50628 210.39 8.89002V9.73424C210.39 9.77901 210.422 9.81099 210.467 9.81099H211.214C211.259 9.81099 211.291 9.77901 211.291 9.73424V5.37883C211.291 5.33406 211.259 5.30208 211.214 5.30208H210.467C210.422 5.30208 210.39 5.33406 210.39 5.37883V6.1463C210.39 6.90098 210.39 7.18239 207.8 7.18239H205.482V1.83565C205.482 1.65018 205.501 1.59262 205.726 1.59262H207.549C210.274 1.59262 211.601 2.15544 211.639 2.53917C211.665 2.87174 211.717 3.15315 212.116 3.15315C212.438 3.15315 212.457 3.00605 212.741 0.569323C212.741 0.562927 212.741 0.556532 212.741 0.550136C212.741 0.505367 212.709 0.473389 212.663 0.473389H200.444C200.399 0.473389 200.367 0.505367 200.367 0.550136V1.36877C200.367 1.41354 200.399 1.44552 200.444 1.44552H201.34C201.926 1.44552 202.01 1.44552 202.151 1.6182C202.319 1.82926 202.435 2.39207 202.435 4.41309V15.081C202.435 15.2856 202.396 15.3752 202.139 15.3752H201.018C200.973 15.3752 200.94 15.4071 200.94 15.4519V16.2706C200.94 16.3153 200.973 16.3473 201.018 16.3473H212.734C212.767 16.3473 212.799 16.3281 212.812 16.2897L213.288 14.7036C213.391 14.3519 213.469 14.0769 213.469 13.917C213.469 13.6931 213.327 13.546 213.114 13.546V13.5396ZM212.67 0.550136C212.663 0.620488 212.651 0.690839 212.644 0.754795C212.651 0.684444 212.657 0.620488 212.663 0.550136H212.67Z" fill="white"/>
<path d="M231.716 8.91549H225.133C225.088 8.91549 225.056 8.94746 225.056 8.99223V9.81087C225.056 9.85564 225.088 9.88762 225.133 9.88762H226.402C227.201 9.88762 227.349 9.88762 227.349 13.0534V15.1064C226.576 15.471 225.72 15.6501 224.734 15.6501C220.573 15.6501 218.679 11.8894 218.679 8.39744C218.679 2.69255 222.879 1.1704 225.359 1.1704C227.839 1.1704 229.269 2.24486 229.269 2.70534C229.269 2.99315 229.32 3.32572 229.72 3.32572C229.977 3.32572 230.145 3.2106 230.441 0.978528C230.441 0.94655 230.428 0.914573 230.396 0.901781C228.695 0.0895385 226.544 0 225.7 0C224.56 0 223.452 0.153494 222.409 0.441297C222.286 0.473275 222.164 0.505253 222.048 0.543627C221.958 0.569209 221.868 0.601188 221.778 0.633166C220.818 0.946551 219.974 1.36866 219.246 1.88031C219.092 1.98264 218.937 2.08497 218.795 2.1937C216.721 3.7926 215.626 6.06304 215.626 8.77478C215.626 13.7378 218.782 16.8205 223.858 16.8205C225.546 16.8205 227.072 16.4367 228.296 16.1233L228.386 16.0978C230.467 15.5605 230.641 15.2535 230.641 14.9593C230.641 14.8186 230.583 14.7483 230.525 14.6651C230.428 14.5308 230.293 14.3518 230.293 13.6674V10.1307C230.293 9.98995 230.293 9.88762 230.641 9.88762H231.71C231.755 9.88762 231.787 9.85564 231.787 9.81087V8.99223C231.787 8.94746 231.755 8.91549 231.71 8.91549H231.716Z" fill="white"/>
<path d="M246.383 13.5396C246.145 13.5396 246.054 13.6995 245.971 13.853C245.938 13.917 245.9 13.9809 245.848 14.0385C245.552 14.4158 245.062 14.6844 244.322 14.8763C243.748 15.0234 242.75 15.2217 240.728 15.2217H239.703C239.272 15.2217 239.169 15.1897 239.072 15.0362C238.86 14.6653 238.763 14.096 238.763 10.5721V8.22487H241.101C243.665 8.22487 243.665 8.50628 243.665 8.89002V9.73424C243.665 9.77901 243.697 9.81099 243.742 9.81099H244.489C244.534 9.81099 244.567 9.77901 244.567 9.73424V5.37883C244.567 5.33406 244.534 5.30208 244.489 5.30208H243.742C243.697 5.30208 243.665 5.33406 243.665 5.37883V6.1463C243.665 6.90098 243.665 7.18239 241.075 7.18239H238.757V1.83565C238.757 1.65018 238.776 1.59262 239.001 1.59262H240.824C243.549 1.59262 244.876 2.15544 244.908 2.53917C244.934 2.87174 244.985 3.15315 245.385 3.15315C245.707 3.15315 245.726 3.00605 246.009 0.569323C246.009 0.562927 246.009 0.556532 246.009 0.550136C246.009 0.505367 245.977 0.473389 245.932 0.473389H233.713C233.668 0.473389 233.636 0.505367 233.636 0.550136V1.36877C233.636 1.41354 233.668 1.44552 233.713 1.44552H234.608C235.195 1.44552 235.278 1.44552 235.426 1.6182C235.594 1.82926 235.703 2.39207 235.703 4.41309V15.081C235.703 15.2856 235.665 15.3752 235.407 15.3752H234.286C234.241 15.3752 234.209 15.4071 234.209 15.4519V16.2706C234.209 16.3153 234.241 16.3473 234.286 16.3473H246.003C246.035 16.3473 246.067 16.3281 246.08 16.2897L246.557 14.7036C246.66 14.3391 246.737 14.0705 246.737 13.917C246.737 13.6931 246.595 13.546 246.383 13.546V13.5396ZM245.906 0.767587C245.913 0.697235 245.919 0.620488 245.926 0.54374C245.919 0.620488 245.906 0.69084 245.9 0.767587H245.906Z" fill="white"/>
<path d="M143.71 28.1984C142.157 27.6484 141.281 27.2838 141.281 26.2605C141.281 25.3396 142.119 24.6744 143.278 24.6744C143.697 24.6744 144.831 24.8215 144.985 25.5058C145.011 25.6465 145.056 25.8064 145.249 25.8064C145.314 25.8064 145.513 25.8064 145.513 25.525C145.513 25.4163 145.5 25.2372 145.481 25.007C145.468 24.8023 145.449 24.5529 145.436 24.2843C145.436 24.2651 145.423 24.2459 145.404 24.2395C144.889 24.0412 144.264 23.9453 143.504 23.9453C141.694 23.9453 139.774 24.9494 139.774 26.8105C139.774 28.1856 140.496 29.0042 142.273 29.6438C143.884 30.2194 144.798 30.5968 144.798 31.7352C144.798 33.0271 143.581 33.6091 142.447 33.6091C141.385 33.6091 140.296 33.0591 140.109 32.4387C140.051 32.234 139.993 32.0933 139.8 32.0933C139.549 32.0933 139.517 32.2596 139.517 32.4067C139.517 32.4899 139.542 32.637 139.594 32.8928L139.781 33.8521C139.781 33.8521 139.794 33.8841 139.813 33.8905C140.618 34.1847 141.5 34.3382 142.357 34.3382C145.597 34.3382 146.306 32.0805 146.306 31.2171C146.306 29.7333 145.552 28.8635 143.716 28.2048L143.71 28.1984Z" fill="white"/>
<path d="M156.251 32.3108C156.102 32.3108 156.044 32.4067 155.993 32.5027C155.974 32.5411 155.948 32.5794 155.922 32.6178C155.735 32.848 155.439 33.0143 154.982 33.1359C154.627 33.2254 154.009 33.3469 152.759 33.3469H152.128C151.864 33.3469 151.8 33.3277 151.742 33.2318C151.613 33.0015 151.548 32.6498 151.548 30.4753V29.0299H152.991C154.576 29.0299 154.576 29.2025 154.576 29.4392V29.9572C154.576 29.9572 154.602 30.0084 154.627 30.0084H155.091C155.091 30.0084 155.143 29.9828 155.143 29.9572V27.2647C155.143 27.2647 155.117 27.2135 155.091 27.2135H154.627C154.627 27.2135 154.576 27.2391 154.576 27.2647V27.738C154.576 28.2048 154.576 28.3775 152.978 28.3775H151.548V25.0774C151.548 24.9559 151.561 24.9303 151.697 24.9303H152.824C154.505 24.9303 155.323 25.2756 155.349 25.5123C155.362 25.7233 155.394 25.896 155.645 25.896C155.845 25.896 155.858 25.8065 156.032 24.2971C156.032 24.2971 156.032 24.2907 156.032 24.2843C156.032 24.2587 156.012 24.2332 155.98 24.2332H148.431C148.431 24.2332 148.379 24.2587 148.379 24.2843V24.7896C148.379 24.7896 148.405 24.8407 148.431 24.8407H148.985C149.346 24.8407 149.397 24.8407 149.487 24.9431C149.59 25.0774 149.661 25.4163 149.661 26.6699V33.2638C149.661 33.3917 149.635 33.4428 149.481 33.4428H148.785C148.785 33.4428 148.734 33.4684 148.734 33.494V33.9993C148.734 33.9993 148.759 34.0504 148.785 34.0504H156.025C156.025 34.0504 156.07 34.0376 156.077 34.012L156.367 33.0335C156.431 32.8161 156.476 32.6434 156.476 32.5475C156.476 32.4068 156.386 32.3172 156.257 32.3172L156.251 32.3108ZM155.974 24.2843C155.974 24.3291 155.967 24.3675 155.961 24.4058C155.961 24.3611 155.967 24.3291 155.974 24.2843Z" fill="white"/>
<path d="M166.151 32.3108C166.003 32.3108 165.945 32.4067 165.893 32.5027C165.874 32.5411 165.848 32.5794 165.822 32.6178C165.636 32.848 165.339 33.0143 164.882 33.1359C164.528 33.2254 163.909 33.3469 162.66 33.3469H162.029C161.764 33.3469 161.7 33.3277 161.642 33.2318C161.513 33.0015 161.449 32.6498 161.449 30.4753V29.0299H162.892C164.476 29.0299 164.476 29.2025 164.476 29.4392V29.9572C164.476 29.9572 164.502 30.0084 164.528 30.0084H164.992C164.992 30.0084 165.043 29.9828 165.043 29.9572V27.2647C165.043 27.2647 165.017 27.2135 164.992 27.2135H164.528C164.528 27.2135 164.476 27.2391 164.476 27.2647V27.738C164.476 28.2048 164.476 28.3775 162.879 28.3775H161.449V25.0774C161.449 24.9559 161.462 24.9303 161.597 24.9303H162.724C164.405 24.9303 165.223 25.2756 165.249 25.5123C165.262 25.7233 165.294 25.896 165.545 25.896C165.745 25.896 165.758 25.8065 165.932 24.2971C165.932 24.2971 165.932 24.2907 165.932 24.2843C165.932 24.2587 165.913 24.2332 165.88 24.2332H158.331C158.331 24.2332 158.28 24.2587 158.28 24.2843V24.7896C158.28 24.7896 158.306 24.8407 158.331 24.8407H158.885C159.246 24.8407 159.297 24.8407 159.388 24.9431C159.491 25.0774 159.562 25.4163 159.562 26.6699V33.2638C159.562 33.3917 159.536 33.4428 159.381 33.4428H158.686C158.686 33.4428 158.634 33.4684 158.634 33.494V33.9993C158.634 33.9993 158.66 34.0504 158.686 34.0504H165.926C165.926 34.0504 165.971 34.0376 165.977 34.012L166.267 33.0335C166.331 32.8161 166.376 32.6434 166.376 32.5475C166.376 32.4068 166.286 32.3172 166.157 32.3172L166.151 32.3108ZM165.874 24.2843C165.874 24.3291 165.868 24.3675 165.861 24.4122C165.861 24.3675 165.868 24.3355 165.874 24.2843Z" fill="white"/>
<path d="M178.228 33.4429H178.138C177.706 33.4429 177.533 33.3789 177.352 33.251C177.165 33.1103 176.689 32.5539 175.884 31.5306L173.372 28.3712C174.827 27.0153 175.703 26.1391 176.128 25.7106L176.296 25.5379L176.444 25.3844C176.85 24.9623 176.979 24.8344 177.397 24.8344H177.61C177.61 24.8344 177.661 24.8088 177.661 24.7832V24.278C177.661 24.278 177.636 24.2268 177.61 24.2268H174.28C174.28 24.2268 174.228 24.2524 174.228 24.278V24.7832C174.228 24.7832 174.254 24.8344 174.28 24.8344H175.297C175.484 24.8344 175.523 24.8728 175.523 24.9367C175.523 25.0071 175.343 25.3205 174.138 26.5548C173.262 27.4566 172.251 28.4927 171.343 29.3497V25.0007C171.343 24.8856 171.388 24.8344 171.51 24.8344H172.219C172.219 24.8344 172.27 24.8088 172.27 24.7832V24.278C172.27 24.278 172.244 24.2268 172.219 24.2268H168.231C168.231 24.2268 168.18 24.2524 168.18 24.278V24.7832C168.18 24.7832 168.206 24.8344 168.231 24.8344H168.785C169.146 24.8344 169.198 24.8344 169.288 24.9367C169.391 25.071 169.462 25.41 169.462 26.6635V33.2574C169.462 33.3853 169.436 33.4365 169.281 33.4365H168.586C168.586 33.4365 168.534 33.4621 168.534 33.4877V33.9929C168.534 33.9929 168.56 34.0441 168.586 34.0441H172.573C172.573 34.0441 172.624 34.0185 172.624 33.9929V33.4877C172.624 33.4877 172.599 33.4365 172.573 33.4365H171.909C171.452 33.4365 171.343 33.4365 171.343 31.6073V30.2835L172.128 29.5863L174.776 33.1231C175.272 33.7755 175.471 34.0441 175.987 34.0441H178.222C178.222 34.0441 178.273 34.0185 178.273 33.9929V33.4877C178.273 33.4877 178.248 33.4365 178.222 33.4365L178.228 33.4429ZM171.819 28.9724C171.652 29.1386 171.484 29.3113 171.323 29.4712V29.4456C171.484 29.2921 171.652 29.1322 171.819 28.9724Z" fill="white"/>
<path d="M188.277 24.233H184.29C184.29 24.233 184.238 24.2586 184.238 24.2842V24.7894C184.238 24.7894 184.264 24.8406 184.29 24.8406H184.843C185.204 24.8406 185.256 24.8406 185.346 24.9429C185.449 25.0772 185.52 25.4162 185.52 26.6697V33.5962C185.52 35.2527 184.843 36.2056 183.658 36.2056C183.22 36.2056 182.692 35.9945 182.583 35.6428C182.525 35.4957 182.46 35.3486 182.273 35.3486C182.106 35.3486 182.022 35.4509 182.022 35.6428C182.022 35.7963 182.183 36.6725 182.19 36.7045C182.19 36.7236 182.209 36.7364 182.222 36.7428C182.615 36.8643 183.124 36.9283 183.684 36.9283C185.938 36.9283 187.401 35.6812 187.401 33.7561V24.9941C187.401 24.879 187.446 24.8278 187.568 24.8278H188.277C188.277 24.8278 188.328 24.8022 188.328 24.7766V24.2714C188.328 24.2714 188.302 24.2202 188.277 24.2202V24.233Z" fill="white"/>
<path d="M200.489 24.2332H197.61C197.61 24.2332 197.559 24.2588 197.559 24.2844V24.7896C197.559 24.7896 197.584 24.8408 197.61 24.8408H198.241C198.473 24.8408 198.615 24.8472 198.692 24.9815C198.821 25.2117 198.886 26.1583 198.886 27.8787V30.3858C198.886 32.4132 197.849 33.5324 195.961 33.5324C194.229 33.5324 193.423 32.5091 193.423 30.309V25.0007C193.423 24.8856 193.468 24.8344 193.591 24.8344H194.299C194.299 24.8344 194.351 24.8088 194.351 24.7832V24.278C194.351 24.278 194.325 24.2268 194.299 24.2268H190.312C190.312 24.2268 190.261 24.2524 190.261 24.278V24.7832C190.261 24.7832 190.286 24.8344 190.312 24.8344H191.008C191.439 24.8344 191.543 24.8344 191.543 26.8042V30.9038C191.543 33.1487 192.927 34.3319 195.549 34.3319C197.526 34.3319 199.633 33.2894 199.633 30.3666V25.0135C199.633 24.8536 199.633 24.8344 199.923 24.8344H200.489C200.489 24.8344 200.541 24.8088 200.541 24.7832V24.278C200.541 24.278 200.515 24.2268 200.489 24.2268V24.2332Z" fill="white"/>
<path d="M206.589 28.1984C205.037 27.6484 204.161 27.2838 204.161 26.2605C204.161 25.3396 204.998 24.6744 206.157 24.6744C206.576 24.6744 207.71 24.8215 207.864 25.5058C207.89 25.6465 207.935 25.8064 208.128 25.8064C208.193 25.8064 208.393 25.8064 208.393 25.525C208.393 25.4163 208.38 25.2372 208.36 25.007C208.347 24.8023 208.328 24.5529 208.315 24.2843C208.315 24.2651 208.302 24.2459 208.283 24.2395C207.768 24.0412 207.143 23.9453 206.383 23.9453C204.573 23.9453 202.653 24.9494 202.653 26.8105C202.653 28.1856 203.375 29.0042 205.153 29.6438C206.763 30.2194 207.678 30.5968 207.678 31.7352C207.678 33.0271 206.46 33.6091 205.327 33.6091C204.264 33.6091 203.175 33.0591 202.988 32.4387C202.93 32.234 202.872 32.0933 202.679 32.0933C202.428 32.0933 202.396 32.2596 202.396 32.4067C202.396 32.4899 202.422 32.637 202.473 32.8928L202.66 33.8521C202.66 33.8521 202.673 33.8841 202.692 33.8905C203.497 34.1847 204.38 34.3382 205.236 34.3382C208.476 34.3382 209.185 32.0805 209.185 31.2171C209.185 29.7333 208.431 28.8635 206.595 28.2048L206.589 28.1984Z" fill="white"/>
<path d="M219.446 25.3268C219.362 25.0774 219.24 24.732 219.104 24.2715C219.104 24.2523 219.079 24.2332 219.053 24.2332H211.104C211.104 24.2332 211.066 24.2459 211.053 24.2715C210.853 24.9047 210.737 25.2565 210.666 25.4675C210.595 25.6786 210.576 25.7361 210.576 25.7873C210.576 25.928 210.679 26.0239 210.827 26.0239C210.995 26.0239 211.053 25.9152 211.156 25.7233V25.7105C211.439 25.1989 212.341 24.9431 213.848 24.9431H214.138V33.2766C214.138 33.4301 214.087 33.4556 213.945 33.4556H212.805C212.805 33.4556 212.753 33.4812 212.753 33.5068V34.012C212.753 34.012 212.779 34.0632 212.805 34.0632H217.597C217.597 34.0632 217.649 34.0376 217.649 34.012V33.5068C217.649 33.5068 217.623 33.4556 217.597 33.4556H216.521C216.096 33.4556 216.032 33.3149 216.032 31.2108V24.9431H216.302C217.829 24.9431 218.731 25.1989 219.001 25.7105C219.111 25.928 219.188 26.0303 219.336 26.0303C219.484 26.0303 219.587 25.9344 219.587 25.7937C219.587 25.7361 219.549 25.621 219.452 25.3396L219.446 25.3268Z" fill="white"/>
<path d="M225.584 33.4428H224.921C224.463 33.4428 224.354 33.4428 224.354 31.6137V25.007C224.354 24.8919 224.399 24.8407 224.521 24.8407H225.23C225.23 24.8407 225.281 24.8152 225.281 24.7896V24.2843C225.281 24.2843 225.256 24.2332 225.23 24.2332H221.243C221.243 24.2332 221.191 24.2587 221.191 24.2843V24.7896C221.191 24.7896 221.217 24.8407 221.243 24.8407H221.797C222.157 24.8407 222.209 24.8407 222.299 24.9431C222.402 25.0774 222.473 25.4163 222.473 26.6699V33.2638C222.473 33.3917 222.447 33.4428 222.293 33.4428H221.597C221.597 33.4428 221.545 33.4684 221.545 33.494V33.9993C221.545 33.9993 221.571 34.0504 221.597 34.0504H225.584C225.584 34.0504 225.636 34.0248 225.636 33.9993V33.494C225.636 33.494 225.61 33.4428 225.584 33.4428Z" fill="white"/>
<path d="M236.16 31.8183C235.954 31.8183 235.929 31.9334 235.864 32.2021C235.774 32.5922 235.387 32.9503 234.756 33.2254C234.215 33.462 233.558 33.6091 233.03 33.6091C230.866 33.6091 229.294 31.7671 229.294 29.2217C229.294 26.5419 230.969 24.668 233.371 24.668C234.35 24.668 235.4 25.1541 235.497 25.5314C235.574 25.8704 235.626 25.9535 235.774 25.9535C236.045 25.9535 236.057 25.8192 236.167 24.5337C236.167 24.5081 236.154 24.4889 236.135 24.4825C235.136 24.1116 234.318 23.9453 233.5 23.9453C229.977 23.9453 227.317 26.3437 227.317 29.5159C227.317 32.6881 229.288 34.3382 232.586 34.3382C233.874 34.3382 235.207 34.0504 236.257 33.5515C236.276 33.5451 236.283 33.5259 236.283 33.5132L236.405 32.0422C236.405 31.9334 236.315 31.8183 236.154 31.8183H236.16Z" fill="white"/>
<path d="M246.512 32.3108C246.363 32.3108 246.306 32.4067 246.254 32.5027C246.235 32.5411 246.209 32.5794 246.183 32.6178C245.996 32.848 245.7 33.0143 245.243 33.1359C244.888 33.2254 244.27 33.3469 243.021 33.3469H242.389C242.125 33.3469 242.061 33.3277 242.003 33.2318C241.874 33.0015 241.81 32.6498 241.81 30.4753V29.0299H243.252C244.837 29.0299 244.837 29.2025 244.837 29.4392V29.9572C244.837 29.9572 244.863 30.0084 244.888 30.0084H245.352C245.352 30.0084 245.404 29.9828 245.404 29.9572V27.2647C245.404 27.2647 245.378 27.2135 245.352 27.2135H244.888C244.888 27.2135 244.837 27.2391 244.837 27.2647V27.738C244.837 28.2048 244.837 28.3775 243.24 28.3775H241.81V25.0774C241.81 24.9559 241.822 24.9303 241.958 24.9303H243.085C244.766 24.9303 245.584 25.2756 245.603 25.5123C245.616 25.7233 245.649 25.896 245.9 25.896C246.099 25.896 246.112 25.8065 246.286 24.2971C246.286 24.2971 246.286 24.2907 246.286 24.2843C246.286 24.2587 246.267 24.2332 246.235 24.2332H238.686C238.686 24.2332 238.634 24.2587 238.634 24.2843V24.7896C238.634 24.7896 238.66 24.8407 238.686 24.8407H239.24C239.6 24.8407 239.652 24.8407 239.742 24.9431C239.845 25.071 239.916 25.4163 239.916 26.6699V33.2638C239.916 33.3917 239.89 33.4428 239.735 33.4428H239.04C239.04 33.4428 238.988 33.4684 238.988 33.494V33.9993C238.988 33.9993 239.014 34.0504 239.04 34.0504H246.28C246.28 34.0504 246.325 34.0376 246.331 34.012L246.621 33.0335C246.686 32.8097 246.731 32.6434 246.731 32.5475C246.731 32.4068 246.64 32.3172 246.512 32.3172V32.3108ZM246.222 24.4186C246.222 24.3739 246.228 24.3355 246.235 24.2843C246.235 24.3355 246.222 24.3675 246.222 24.4186Z" fill="white"/>
</svg>
