<svg width="145" height="204" viewBox="0 0 145 204" fill="none" xmlns="http://www.w3.org/2000/svg">
    <path d="M16.8274 57.0663C16.8274 58.9059 16.92 60.7785 17.1053 62.6313C19.7125 88.7029 40.5433 109.468 66.6215 112.002C68.4214 112.174 70.2411 112.267 72.0211 112.267C73.8011 112.267 75.6208 112.181 77.4207 112.002C103.506 109.468 124.33 88.7029 126.937 62.6313C127.122 60.7785 127.215 58.9125 127.215 57.0663V2.18359H16.8274V57.0663Z"
          fill="#004278"/>
    <g>

        <path d="M127.916 0H14.6372V57.0664C14.6372 58.9787 14.7365 60.9242 14.9284 62.8498C17.6414 89.9603 39.2927 111.545 66.4098 114.179C68.2759 114.358 70.1684 114.45 72.0278 114.45C73.8872 114.45 75.7731 114.358 77.6458 114.179C104.763 111.545 126.414 89.9536 129.127 62.8498C129.319 60.9308 129.418 58.9853 129.418 57.0664V0H127.923H127.916ZM127.222 2.18366V51.7991H110.586C108.191 34.6276 94.6122 21.0492 77.4406 18.6538V2.18366H127.215H127.222ZM66.6017 62.6512V84.8915C55.3989 82.7012 46.5584 73.8541 44.3615 62.6512H66.6017ZM44.3615 51.7991C46.5518 40.5963 55.3989 31.7491 66.6017 29.5588V51.7991H44.3615ZM77.4473 62.6512H99.6875C97.4972 73.8541 88.6501 82.7012 77.4473 84.8915V62.6512ZM77.4473 51.7991V29.5588C88.6501 31.7491 97.4972 40.5963 99.6875 51.7991H77.4473ZM66.6017 2.18366V18.6604C49.4302 21.0558 35.8518 34.6342 33.4564 51.8057H16.8209V2.18366H66.5951H66.6017ZM17.1054 62.6512H33.4564C35.8518 79.8228 49.4302 93.4012 66.6017 95.7966V112.002C40.5368 109.461 19.7258 88.7096 17.1054 62.6512ZM77.4473 112.002V95.7966C94.6188 93.4012 108.197 79.8228 110.593 62.6512H126.944C124.323 88.7096 103.519 109.461 77.4473 112.002Z"
              fill="#FDB913"/>
        <path d="M17.5686 194.22C15.8547 193.611 14.8886 193.207 14.8886 192.063C14.8886 191.044 15.815 190.302 17.0921 190.302C17.5553 190.302 18.7993 190.468 18.9714 191.229C18.9979 191.388 19.0508 191.56 19.2626 191.56C19.3353 191.56 19.5537 191.56 19.5537 191.249C19.5537 191.13 19.5405 190.931 19.5206 190.673C19.5074 190.448 19.4875 190.17 19.4677 189.866C19.4677 189.846 19.4544 189.826 19.4346 189.819C18.8655 189.601 18.1773 189.495 17.3436 189.495C15.3518 189.495 13.2277 190.607 13.2277 192.678C13.2277 194.2 14.0284 195.113 15.9804 195.821C17.7538 196.456 18.7596 196.88 18.7596 198.144C18.7596 199.573 17.4164 200.228 16.1657 200.228C14.9945 200.228 13.7902 199.619 13.585 198.925C13.5189 198.693 13.4593 198.547 13.2409 198.547C12.963 198.547 12.9299 198.733 12.9299 198.891C12.9299 198.984 12.9564 199.15 13.016 199.427L13.2211 200.493C13.2211 200.493 13.2409 200.526 13.2542 200.533C14.1409 200.857 15.1136 201.029 16.0598 201.029C19.6265 201.029 20.4073 198.528 20.4073 197.561C20.4073 195.914 19.5802 194.948 17.5553 194.213L17.5686 194.22Z"
              fill="#939598"/>
        <path d="M31.3853 198.779C31.2199 198.779 31.1603 198.892 31.1008 198.998C31.0743 199.037 31.0544 199.084 31.0214 199.124C30.8162 199.382 30.4854 199.567 29.9825 199.699C29.592 199.798 28.9105 199.937 27.5341 199.937H26.8393C26.5482 199.937 26.4754 199.918 26.4092 199.812C26.2636 199.554 26.1974 199.17 26.1974 196.755V195.147H27.7856C29.5325 195.147 29.5325 195.338 29.5325 195.603V196.179C29.5325 196.179 29.559 196.232 29.5854 196.232H30.095C30.095 196.232 30.1479 196.205 30.1479 196.179V193.195C30.1479 193.195 30.1214 193.142 30.095 193.142H29.5854C29.5854 193.142 29.5325 193.168 29.5325 193.195V193.717C29.5325 194.233 29.5325 194.425 27.7723 194.425H26.1974V190.766C26.1974 190.634 26.2107 190.601 26.3629 190.601H27.6003C29.4531 190.601 30.353 190.984 30.3795 191.249C30.3927 191.481 30.4324 191.673 30.7037 191.673C30.9287 191.673 30.9353 191.573 31.1338 189.899C31.1338 189.899 31.1338 189.893 31.1338 189.886C31.1338 189.853 31.1074 189.833 31.0809 189.833H22.7631C22.7631 189.833 22.7102 189.859 22.7102 189.886V190.448C22.7102 190.448 22.7367 190.501 22.7631 190.501H23.3719C23.769 190.501 23.8285 190.501 23.9211 190.62C24.0336 190.766 24.113 191.15 24.113 192.533V199.851C24.113 199.99 24.0866 200.05 23.9145 200.05H23.1536C23.1536 200.05 23.1006 200.076 23.1006 200.103V200.665C23.1006 200.665 23.1271 200.718 23.1536 200.718H31.1338C31.1338 200.718 31.1802 200.705 31.1868 200.679L31.511 199.593C31.5772 199.355 31.6301 199.163 31.6301 199.051C31.6301 198.899 31.5309 198.793 31.3853 198.793V198.779ZM31.0743 189.873C31.0743 189.926 31.0611 189.959 31.0611 190.012C31.0611 189.965 31.0677 189.926 31.0743 189.873Z"
              fill="#939598"/>
        <path d="M42.2969 198.779C42.1315 198.779 42.0719 198.892 42.0124 198.998C41.9859 199.037 41.9661 199.084 41.933 199.124C41.7278 199.382 41.397 199.567 40.8941 199.699C40.5037 199.798 39.8221 199.937 38.4457 199.937H37.7509C37.4598 199.937 37.387 199.918 37.3208 199.812C37.1752 199.554 37.1091 199.17 37.1091 196.755V195.147H38.6972C40.4441 195.147 40.4441 195.338 40.4441 195.603V196.179C40.4441 196.179 40.4706 196.232 40.4971 196.232H41.0066C41.0066 196.232 41.0595 196.205 41.0595 196.179V193.195C41.0595 193.195 41.033 193.142 41.0066 193.142H40.4971C40.4971 193.142 40.4441 193.168 40.4441 193.195V193.717C40.4441 194.233 40.4441 194.425 38.684 194.425H37.1091V190.766C37.1091 190.634 37.1223 190.601 37.2745 190.601H38.5119C40.3647 190.601 41.2646 190.984 41.2911 191.249C41.3043 191.481 41.344 191.673 41.6154 191.673C41.8403 191.673 41.847 191.573 42.0455 189.899C42.0455 189.899 42.0455 189.893 42.0455 189.886C42.0455 189.853 42.019 189.833 41.9925 189.833H33.6748C33.6748 189.833 33.6218 189.859 33.6218 189.886V190.448C33.6218 190.448 33.6483 190.501 33.6748 190.501H34.2835C34.6806 190.501 34.7401 190.501 34.8328 190.62C34.9453 190.766 35.0247 191.15 35.0247 192.533V199.851C35.0247 199.99 34.9982 200.05 34.8261 200.05H34.0652C34.0652 200.05 34.0122 200.076 34.0122 200.103V200.665C34.0122 200.665 34.0387 200.718 34.0652 200.718H42.0455C42.0455 200.718 42.0918 200.705 42.0984 200.679L42.4226 199.593C42.4888 199.355 42.5418 199.163 42.5418 199.051C42.5418 198.899 42.4425 198.793 42.2969 198.793V198.779ZM41.9925 189.873C41.9925 189.926 41.9793 189.965 41.9793 190.012C41.9793 189.965 41.9859 189.926 41.9925 189.873Z"
              fill="#939598"/>
        <path d="M55.6105 200.036H55.5113C55.0348 200.036 54.8429 199.964 54.6444 199.825C54.4393 199.673 53.9099 199.05 53.0298 197.919L50.2572 194.412C51.8586 192.91 52.8247 191.93 53.2945 191.461L53.4798 191.275L53.6452 191.103C54.0952 190.633 54.2341 190.495 54.6973 190.495H54.9356C54.9356 190.495 54.9885 190.468 54.9885 190.442V189.879C54.9885 189.879 54.962 189.826 54.9356 189.826H51.2697C51.2697 189.826 51.2167 189.853 51.2167 189.879V190.442C51.2167 190.442 51.2432 190.495 51.2697 190.495H52.388C52.5997 190.495 52.6394 190.534 52.6394 190.607C52.6394 190.686 52.4409 191.031 51.1108 192.4C50.1447 193.399 49.0264 194.551 48.0339 195.497V190.673C48.0339 190.541 48.0868 190.495 48.2125 190.495H48.9934C48.9934 190.495 49.0463 190.468 49.0463 190.442V189.879C49.0463 189.879 49.0198 189.826 48.9934 189.826H44.5996C44.5996 189.826 44.5466 189.853 44.5466 189.879V190.442C44.5466 190.442 44.5731 190.495 44.5996 190.495H45.2083C45.6054 190.495 45.6649 190.495 45.7576 190.614C45.8701 190.759 45.9495 191.143 45.9495 192.526V199.845C45.9495 199.984 45.923 200.043 45.751 200.043H44.99C44.99 200.043 44.937 200.07 44.937 200.096V200.658C44.937 200.658 44.9635 200.711 44.99 200.711H49.3838C49.3838 200.711 49.4367 200.685 49.4367 200.658V200.096C49.4367 200.096 49.4102 200.043 49.3838 200.043H48.6559C48.153 200.043 48.0339 200.043 48.0339 198.012V196.543L48.9007 195.768L51.8189 199.692C52.3615 200.414 52.5865 200.718 53.1555 200.718H55.6171C55.6171 200.718 55.6701 200.692 55.6701 200.665V200.103C55.6701 200.103 55.6436 200.05 55.6171 200.05L55.6105 200.036ZM48.5434 195.074C48.3581 195.259 48.1728 195.451 48.0008 195.629V195.603C48.1795 195.431 48.3647 195.252 48.5434 195.074Z"
              fill="#939598"/>
        <path d="M66.6744 189.819H62.2806C62.2806 189.819 62.2277 189.846 62.2277 189.872V190.435C62.2277 190.435 62.2541 190.488 62.2806 190.488H62.8894C63.2864 190.488 63.346 190.488 63.4386 190.607C63.5511 190.752 63.6305 191.136 63.6305 192.519V200.208C63.6305 202.048 62.8828 203.107 61.5792 203.107C61.0961 203.107 60.5204 202.875 60.3947 202.485C60.3352 202.319 60.2558 202.16 60.0506 202.16C59.8653 202.16 59.7727 202.273 59.7727 202.491C59.7727 202.663 59.9514 203.629 59.958 203.676C59.958 203.696 59.9778 203.715 59.9977 203.722C60.4344 203.854 60.9903 203.927 61.6123 203.927C64.1003 203.927 65.7083 202.544 65.7083 200.407V190.68C65.7083 190.547 65.7612 190.501 65.887 190.501H66.6678C66.6678 190.501 66.7207 190.474 66.7207 190.448V189.886C66.7207 189.886 66.6943 189.833 66.6678 189.833L66.6744 189.819Z"
              fill="#939598"/>
        <path d="M80.1404 189.819H76.9642C76.9642 189.819 76.9112 189.846 76.9112 189.872V190.435C76.9112 190.435 76.9377 190.488 76.9642 190.488H77.659C77.9104 190.488 78.0692 190.494 78.1553 190.646C78.3008 190.898 78.367 191.95 78.367 193.862V196.648C78.367 198.898 77.2222 200.142 75.1445 200.142C73.2387 200.142 72.3454 199.004 72.3454 196.562V190.673C72.3454 190.541 72.3983 190.494 72.5241 190.494H73.3049C73.3049 190.494 73.3578 190.468 73.3578 190.441V189.879C73.3578 189.879 73.3314 189.826 73.3049 189.826H68.9111C68.9111 189.826 68.8582 189.852 68.8582 189.879V190.441C68.8582 190.441 68.8846 190.494 68.9111 190.494H69.6721C70.1485 190.494 70.261 190.494 70.261 192.678V197.224C70.261 199.712 71.7896 201.029 74.6813 201.029C76.8583 201.029 79.1875 199.871 79.1875 196.628V190.686C79.1875 190.508 79.1875 190.488 79.5052 190.488H80.1338C80.1338 190.488 80.1867 190.461 80.1867 190.435V189.872C80.1867 189.872 80.1603 189.819 80.1338 189.819H80.1404Z"
              fill="#939598"/>
        <path d="M86.8635 194.22C85.1496 193.611 84.1835 193.207 84.1835 192.063C84.1835 191.044 85.1099 190.302 86.387 190.302C86.8502 190.302 88.0943 190.468 88.2663 191.229C88.2928 191.388 88.3457 191.56 88.5575 191.56C88.6303 191.56 88.8486 191.56 88.8486 191.249C88.8486 191.13 88.8354 190.931 88.8155 190.673C88.8023 190.448 88.7825 190.17 88.7626 189.866C88.7626 189.846 88.7494 189.826 88.7295 189.819C88.1604 189.601 87.4723 189.495 86.6385 189.495C84.6467 189.495 82.5226 190.607 82.5226 192.678C82.5226 194.2 83.3233 195.113 85.2754 195.821C87.0488 196.456 88.0546 196.88 88.0546 198.144C88.0546 199.573 86.7113 200.228 85.4606 200.228C84.2894 200.228 83.0851 199.619 82.88 198.925C82.8138 198.693 82.7542 198.547 82.5359 198.547C82.2579 198.547 82.2249 198.733 82.2249 198.891C82.2249 198.984 82.2513 199.15 82.3109 199.427L82.516 200.493C82.516 200.493 82.5359 200.526 82.5491 200.533C83.4358 200.857 84.4085 201.029 85.3548 201.029C88.9214 201.029 89.7022 198.528 89.7022 197.561C89.7022 195.914 88.8751 194.948 86.8502 194.213L86.8635 194.22Z"
              fill="#939598"/>
        <path d="M101.031 191.03C100.938 190.752 100.806 190.369 100.654 189.859C100.647 189.833 100.627 189.819 100.601 189.819H91.8396C91.8396 189.819 91.7933 189.833 91.7867 189.859C91.5683 190.567 91.436 190.957 91.3566 191.189C91.2772 191.421 91.2573 191.487 91.2573 191.54C91.2573 191.692 91.3698 191.798 91.5352 191.798C91.7205 191.798 91.7801 191.679 91.8992 191.46V191.447C92.2102 190.878 93.2094 190.594 94.8637 190.594H95.1813V199.838C95.1813 200.01 95.1284 200.036 94.9629 200.036H93.7057C93.7057 200.036 93.6527 200.063 93.6527 200.089V200.652C93.6527 200.652 93.6792 200.705 93.7057 200.705H98.9862C98.9862 200.705 99.0391 200.678 99.0391 200.652V200.089C99.0391 200.089 99.0126 200.036 98.9862 200.036H97.7951C97.3253 200.036 97.2591 199.884 97.2591 197.548V190.594H97.5569C99.2376 190.594 100.237 190.878 100.528 191.447C100.647 191.692 100.733 191.798 100.899 191.798C101.064 191.798 101.176 191.692 101.176 191.54C101.176 191.474 101.13 191.348 101.024 191.037L101.031 191.03Z"
              fill="#939598"/>
        <path d="M107.793 200.036H107.066C106.563 200.036 106.444 200.036 106.444 198.005V190.673C106.444 190.541 106.496 190.495 106.622 190.495H107.403C107.403 190.495 107.456 190.468 107.456 190.442V189.879C107.456 189.879 107.429 189.826 107.403 189.826H103.009C103.009 189.826 102.956 189.853 102.956 189.879V190.442C102.956 190.442 102.983 190.495 103.009 190.495H103.618C104.015 190.495 104.075 190.495 104.167 190.614C104.28 190.759 104.359 191.143 104.359 192.526V199.845C104.359 199.984 104.333 200.043 104.161 200.043H103.4C103.4 200.043 103.347 200.07 103.347 200.096V200.658C103.347 200.658 103.373 200.711 103.4 200.711H107.793C107.793 200.711 107.846 200.685 107.846 200.658V200.096C107.846 200.096 107.82 200.043 107.793 200.043V200.036Z"
              fill="#939598"/>
        <path d="M119.453 198.236C119.221 198.236 119.195 198.362 119.129 198.667C119.029 199.097 118.599 199.5 117.911 199.805C117.315 200.069 116.588 200.228 116.012 200.228C113.623 200.228 111.889 198.183 111.889 195.358C111.889 192.38 113.736 190.302 116.382 190.302C117.461 190.302 118.619 190.845 118.725 191.262C118.811 191.639 118.864 191.732 119.036 191.732C119.334 191.732 119.347 191.58 119.466 190.15C119.466 190.124 119.453 190.104 119.433 190.091C118.328 189.674 117.435 189.495 116.528 189.495C112.644 189.495 109.719 192.155 109.719 195.682C109.719 199.209 111.889 201.035 115.529 201.035C116.945 201.035 118.421 200.718 119.579 200.162C119.598 200.155 119.612 200.136 119.612 200.116L119.751 198.488C119.751 198.369 119.651 198.243 119.473 198.243L119.453 198.236Z"
              fill="#939598"/>
        <path d="M130.861 198.779C130.695 198.779 130.636 198.892 130.576 198.998C130.55 199.037 130.53 199.084 130.497 199.124C130.292 199.382 129.961 199.567 129.458 199.699C129.068 199.798 128.386 199.937 127.01 199.937H126.315C126.024 199.937 125.951 199.918 125.885 199.812C125.739 199.554 125.673 199.17 125.673 196.755V195.147H127.261C129.008 195.147 129.008 195.338 129.008 195.603V196.179C129.008 196.179 129.035 196.232 129.061 196.232H129.571C129.571 196.232 129.623 196.205 129.623 196.179V193.195C129.623 193.195 129.597 193.142 129.571 193.142H129.061C129.061 193.142 129.008 193.168 129.008 193.195V193.717C129.008 194.233 129.008 194.425 127.248 194.425H125.673V190.766C125.673 190.634 125.686 190.601 125.838 190.601H127.076C128.929 190.601 129.829 190.984 129.855 191.249C129.875 191.481 129.908 191.673 130.179 191.673C130.404 191.673 130.411 191.573 130.609 189.899C130.609 189.899 130.609 189.893 130.609 189.886C130.609 189.853 130.583 189.833 130.556 189.833H122.239C122.239 189.833 122.186 189.859 122.186 189.886V190.448C122.186 190.448 122.212 190.501 122.239 190.501H122.848C123.245 190.501 123.304 190.501 123.403 190.62C123.516 190.766 123.595 191.15 123.595 192.533V199.851C123.595 199.99 123.569 200.05 123.397 200.05H122.636C122.636 200.05 122.583 200.076 122.583 200.103V200.665C122.583 200.665 122.609 200.718 122.636 200.718H130.616C130.616 200.718 130.662 200.705 130.669 200.679L130.993 199.593C131.066 199.342 131.112 199.157 131.112 199.051C131.112 198.899 131.013 198.793 130.867 198.793L130.861 198.779ZM130.537 190.018C130.537 189.965 130.543 189.926 130.55 189.873C130.55 189.926 130.537 189.965 130.53 190.018H130.537Z"
              fill="#939598"/>
    </g>

    <path d="M11.1764 131.099H4.04308C3.99676 131.099 3.95706 131.139 3.95706 131.185V132.092C3.95706 132.138 3.99676 132.178 4.04308 132.178H5.03566C5.68414 132.178 5.77678 132.185 5.93559 132.37C6.12087 132.608 6.2466 133.23 6.2466 135.48V147.953C6.2466 150.944 5.03566 152.658 2.91817 152.658C2.13072 152.658 1.19109 152.281 0.992573 151.646C0.893316 151.374 0.774207 151.116 0.443349 151.116C0.152195 151.116 0 151.295 0 151.639C0 151.917 0.291155 153.485 0.304389 153.551C0.304389 153.584 0.330858 153.611 0.363944 153.618C1.06536 153.836 1.97191 153.955 2.97772 153.955C7.01419 153.955 9.61473 151.718 9.61473 148.251V132.469C9.61473 132.257 9.70075 132.171 9.9125 132.171H11.1764C11.2227 132.171 11.2624 132.132 11.2624 132.085V131.179C11.2624 131.132 11.2227 131.093 11.1764 131.093V131.099Z"
          fill="#004278"/>
    <path d="M22.6836 130.576C17.1782 130.576 13.1814 134.699 13.1814 140.383C13.1814 146.067 16.6951 149.283 22.1344 149.283C27.5737 149.283 31.6366 145.16 31.6366 139.476C31.6366 133.792 28.1229 130.576 22.6836 130.576ZM21.8896 131.734C24.2585 131.734 28.2751 133.68 28.2751 140.958C28.2751 145.438 26.2767 148.118 22.9351 148.118C19.8581 148.118 16.5495 145.233 16.5495 138.894C16.5495 137.213 16.9333 131.734 21.8896 131.734Z"
          fill="#004278"/>
    <path d="M51.713 147.675H50.5285C49.708 147.675 49.5095 147.675 49.5095 144.373V132.475C49.5095 132.263 49.5955 132.177 49.8073 132.177H51.0711C51.1174 132.177 51.1572 132.138 51.1572 132.091V131.185C51.1572 131.138 51.1174 131.099 51.0711 131.099H43.9378C43.8915 131.099 43.8518 131.138 43.8518 131.185V132.091C43.8518 132.138 43.8915 132.177 43.9378 132.177H44.9304C45.5789 132.177 45.6715 132.184 45.8303 132.369C46.0156 132.607 46.1413 133.229 46.1413 135.479V138.563H38.5448V132.508C38.5448 132.224 38.6441 132.177 38.8757 132.177H40.1131C40.1594 132.177 40.1991 132.138 40.1991 132.091V131.185C40.1991 131.138 40.1594 131.099 40.1131 131.099H32.9798C32.9335 131.099 32.8938 131.138 32.8938 131.185V132.091C32.8938 132.138 32.9335 132.177 32.9798 132.177H33.9724C34.6209 132.177 34.7135 132.184 34.8723 132.369C35.0576 132.607 35.1833 133.229 35.1833 135.479V147.35C35.1833 147.582 35.137 147.681 34.8525 147.681H33.6151C33.5687 147.681 33.529 147.721 33.529 147.767V148.674C33.529 148.72 33.5687 148.76 33.6151 148.76H40.7484C40.7947 148.76 40.8344 148.72 40.8344 148.674V147.767C40.8344 147.721 40.7947 147.681 40.7484 147.681H39.5639C38.7434 147.681 38.5448 147.681 38.5448 144.379V139.813H46.1413V147.357C46.1413 147.589 46.095 147.688 45.8105 147.688H44.5731C44.5268 147.688 44.4871 147.728 44.4871 147.774V148.68C44.4871 148.727 44.5268 148.766 44.5731 148.766H51.7064C51.7527 148.766 51.7924 148.727 51.7924 148.68V147.774C51.7924 147.728 51.7527 147.688 51.7064 147.688L51.713 147.675Z"
          fill="#004278"/>
    <path d="M71.9019 131.099H66.7538C66.7075 131.099 66.6678 131.138 66.6678 131.185V132.091C66.6678 132.138 66.7075 132.177 66.7538 132.177H67.7464C68.2625 132.177 68.4544 132.177 68.6198 132.343C68.9044 132.627 69.0367 134.215 69.0367 137.352V143.433L58.1978 131.125C58.1978 131.125 58.1581 131.099 58.1316 131.099H53.3673C53.321 131.099 53.2812 131.138 53.2812 131.185V132.091C53.2812 132.138 53.321 132.177 53.3673 132.177H54.1415C54.6709 132.177 55.1076 132.475 55.3855 133.037C55.6171 133.468 55.7627 134.156 55.7627 134.791V147.377C55.7627 147.608 55.7627 147.675 55.273 147.675H54.2275C54.1812 147.675 54.1415 147.714 54.1415 147.761V148.667C54.1415 148.714 54.1812 148.753 54.2275 148.753H59.3757C59.422 148.753 59.4617 148.714 59.4617 148.667V147.761C59.4617 147.714 59.422 147.675 59.3757 147.675H58.2441C57.6155 147.675 57.4567 147.622 57.3376 147.106C57.1721 146.45 57.0927 144.849 57.0927 142.335V134.632L69.3345 148.535C69.6587 148.912 69.8175 149.031 70.0028 149.031C70.2675 149.031 70.3667 148.806 70.3667 148.614V132.475C70.3667 132.243 70.3668 132.177 70.83 132.177H71.9019C71.9482 132.177 71.988 132.138 71.988 132.091V131.185C71.988 131.138 71.9482 131.099 71.9019 131.099Z"
          fill="#004278"/>
    <path d="M95.3202 147.675H94.493C94.2151 147.675 93.9968 147.549 93.8181 147.298L88.0413 138.596C88.6501 137.901 89.3515 137.087 90.4831 135.638L91.78 133.984C92.0116 133.686 92.2035 133.435 92.3623 133.23C92.8652 132.581 93.0307 132.363 93.1895 132.264C93.3615 132.164 93.4211 132.164 93.7255 132.164H94.4666C94.5129 132.164 94.5526 132.125 94.5526 132.078V131.172C94.5526 131.125 94.5129 131.086 94.4666 131.086H89.2589C89.2126 131.086 89.1729 131.125 89.1729 131.172V132.078C89.1729 132.125 89.2126 132.164 89.2589 132.164H90.6882C91.1249 132.164 91.1249 132.323 91.1249 132.409C91.1249 132.634 90.761 133.243 90.0397 134.229C89.3184 135.215 88.4781 136.274 87.3928 137.551L84.7857 133.567C84.3159 132.853 83.9718 132.33 83.9718 132.237C83.9718 132.191 83.9718 132.158 84.1372 132.158H85.6525C85.6988 132.158 85.7386 132.118 85.7386 132.072V131.165C85.7386 131.119 85.6988 131.079 85.6525 131.079H78.5192C78.4729 131.079 78.4332 131.119 78.4332 131.165V132.072C78.4332 132.118 78.4729 132.158 78.5192 132.158H78.8501C79.4059 132.158 79.7765 132.237 79.9485 132.383C80.1272 132.508 80.372 132.76 81.5036 134.487L85.0239 139.834C82.6616 142.983 80.8088 145.862 80.2926 146.676C79.7765 147.496 79.5978 147.655 78.7707 147.655H78.3009C78.2545 147.655 78.2148 147.695 78.2148 147.741V148.648C78.2148 148.694 78.2545 148.734 78.3009 148.734H83.7005C83.7468 148.734 83.7865 148.694 83.7865 148.648V147.741C83.7865 147.695 83.7468 147.655 83.7005 147.655H82.0726C81.8477 147.655 81.7749 147.589 81.7749 147.384C81.7749 147.046 82.1851 146.199 82.9991 144.869C83.9916 143.261 84.8651 142.004 85.7253 140.919L89.464 146.656L89.5434 146.782C89.6824 147 89.9735 147.45 89.9735 147.549C89.9735 147.576 89.9735 147.655 89.7022 147.655H88.2398C88.1935 147.655 88.1538 147.695 88.1538 147.741V148.648C88.1538 148.694 88.1935 148.734 88.2398 148.734H95.3202C95.3665 148.734 95.4062 148.694 95.4062 148.648V147.741C95.4062 147.695 95.3665 147.655 95.3202 147.655V147.675ZM87.4193 137.69V137.676C87.5186 137.557 87.6112 137.445 87.7105 137.326C87.6112 137.445 87.5186 137.564 87.4193 137.69ZM85.6989 140.82V140.833C85.6062 140.965 85.507 141.097 85.4011 141.23C85.5003 141.091 85.5996 140.952 85.6989 140.82Z"
          fill="#004278"/>
    <path d="M114.417 147.675H113.59C113.312 147.675 113.094 147.549 112.915 147.298L107.138 138.596C107.747 137.901 108.449 137.087 109.58 135.638L110.877 133.984C111.109 133.686 111.301 133.435 111.459 133.23C111.962 132.581 112.128 132.363 112.287 132.264C112.459 132.164 112.518 132.164 112.823 132.164H113.564C113.61 132.164 113.65 132.125 113.65 132.078V131.172C113.65 131.125 113.61 131.086 113.564 131.086H108.356C108.31 131.086 108.27 131.125 108.27 131.172V132.078C108.27 132.125 108.31 132.164 108.356 132.164H109.785C110.222 132.164 110.222 132.323 110.222 132.409C110.222 132.634 109.858 133.243 109.137 134.229C108.416 135.215 107.575 136.274 106.49 137.551L103.883 133.567C103.413 132.853 103.069 132.33 103.069 132.237C103.069 132.191 103.069 132.158 103.234 132.158H104.75C104.796 132.158 104.836 132.118 104.836 132.072V131.165C104.836 131.119 104.796 131.079 104.75 131.079H97.6164C97.5701 131.079 97.5304 131.119 97.5304 131.165V132.072C97.5304 132.118 97.5701 132.158 97.6164 132.158H97.9473C98.5031 132.158 98.8737 132.237 99.0457 132.383C99.2244 132.508 99.4692 132.76 100.601 134.487L104.121 139.834C101.759 142.983 99.9059 145.862 99.3898 146.676C98.8737 147.496 98.695 147.655 97.8679 147.655H97.398C97.3517 147.655 97.312 147.695 97.312 147.741V148.648C97.312 148.694 97.3517 148.734 97.398 148.734H102.798C102.844 148.734 102.884 148.694 102.884 148.648V147.741C102.884 147.695 102.844 147.655 102.798 147.655H101.17C100.945 147.655 100.872 147.589 100.872 147.384C100.872 147.046 101.282 146.199 102.096 144.869C103.089 143.261 103.962 142.004 104.822 140.919L108.561 146.656L108.641 146.782C108.78 147 109.071 147.45 109.071 147.549C109.071 147.576 109.071 147.655 108.799 147.655H107.337C107.291 147.655 107.251 147.695 107.251 147.741V148.648C107.251 148.694 107.291 148.734 107.337 148.734H114.417C114.464 148.734 114.503 148.694 114.503 148.648V147.741C114.503 147.695 114.464 147.655 114.417 147.655V147.675ZM106.523 137.69V137.676C106.622 137.557 106.715 137.445 106.814 137.326C106.715 137.445 106.622 137.564 106.523 137.69ZM104.803 140.82V140.833C104.71 140.965 104.611 141.097 104.505 141.23C104.604 141.091 104.703 140.952 104.803 140.82Z"
          fill="#004278"/>
    <path d="M124.27 147.675H123.086C122.265 147.675 122.067 147.675 122.067 144.373V132.475C122.067 132.263 122.153 132.177 122.364 132.177H123.628C123.675 132.177 123.714 132.138 123.714 132.091V131.185C123.714 131.138 123.675 131.099 123.628 131.099H116.495C116.449 131.099 116.409 131.138 116.409 131.185V132.091C116.409 132.138 116.449 132.177 116.495 132.177H117.488C118.136 132.177 118.229 132.184 118.387 132.369C118.573 132.607 118.698 133.229 118.698 135.479V147.35C118.698 147.582 118.652 147.681 118.368 147.681H117.13C117.084 147.681 117.044 147.721 117.044 147.767V148.674C117.044 148.72 117.084 148.76 117.13 148.76H124.264C124.31 148.76 124.35 148.72 124.35 148.674V147.767C124.35 147.721 124.31 147.681 124.264 147.681L124.27 147.675Z"
          fill="#004278"/>
    <path d="M134.117 147.675H132.932C132.112 147.675 131.913 147.675 131.913 144.373V132.475C131.913 132.263 131.999 132.177 132.211 132.177H133.475C133.521 132.177 133.561 132.138 133.561 132.091V131.185C133.561 131.138 133.521 131.099 133.475 131.099H126.341C126.295 131.099 126.255 131.138 126.255 131.185V132.091C126.255 132.138 126.295 132.177 126.341 132.177H127.334C127.982 132.177 128.075 132.184 128.234 132.369C128.419 132.607 128.545 133.229 128.545 135.479V147.35C128.545 147.582 128.499 147.681 128.214 147.681H126.977C126.93 147.681 126.891 147.721 126.891 147.767V148.674C126.891 148.72 126.93 148.76 126.977 148.76H134.11C134.156 148.76 134.196 148.72 134.196 148.674V147.767C134.196 147.721 134.156 147.681 134.11 147.681L134.117 147.675Z"
          fill="#004278"/>
    <path d="M143.97 147.675H142.785C141.965 147.675 141.766 147.675 141.766 144.373V132.475C141.766 132.263 141.852 132.177 142.064 132.177H143.328C143.374 132.177 143.414 132.138 143.414 132.091V131.185C143.414 131.138 143.374 131.099 143.328 131.099H136.194C136.148 131.099 136.108 131.138 136.108 131.185V132.091C136.108 132.138 136.148 132.177 136.194 132.177H137.187C137.835 132.177 137.928 132.184 138.087 132.369C138.272 132.607 138.398 133.229 138.398 135.479V147.35C138.398 147.582 138.352 147.681 138.067 147.681H136.83C136.783 147.681 136.744 147.721 136.744 147.767V148.674C136.744 148.72 136.783 148.76 136.83 148.76H143.963C144.009 148.76 144.049 148.72 144.049 148.674V147.767C144.049 147.721 144.009 147.681 143.963 147.681L143.97 147.675Z"
          fill="#004278"/>
    <path d="M27.0577 171.252C26.6871 171.252 26.6474 171.451 26.5349 171.934C26.1842 173.489 23.2991 174.475 21.4662 174.475C17.5885 174.475 14.7762 171.153 14.7762 166.574C14.7762 161.743 17.7738 158.368 22.0683 158.368C23.8219 158.368 25.7012 159.249 25.8666 159.93C25.9989 160.546 26.0916 160.684 26.3629 160.684C26.8459 160.684 26.8658 160.44 27.0511 158.13C27.0511 158.091 27.0312 158.057 26.9981 158.044C25.2115 157.376 23.7557 157.078 22.2867 157.078C15.9872 157.078 11.2427 161.386 11.2427 167.103C11.2427 172.82 14.763 175.778 20.6655 175.778C22.9617 175.778 25.3571 175.262 27.2297 174.369C27.2562 174.356 27.276 174.329 27.276 174.296L27.4944 171.649C27.4944 171.451 27.3422 171.252 27.0511 171.252H27.0577Z"
          fill="#004278"/>
    <path d="M39.1802 157.071C33.6747 157.071 29.678 161.194 29.678 166.878C29.678 172.562 33.1917 175.778 38.631 175.778C44.0703 175.778 48.1332 171.656 48.1332 165.971C48.1332 160.287 44.6195 157.071 39.1802 157.071ZM44.7651 167.46C44.7651 171.94 42.7667 174.62 39.4251 174.62C36.3481 174.62 33.0395 171.735 33.0395 165.396C33.0395 163.715 33.4233 158.236 38.3795 158.236C40.7485 158.236 44.7651 160.181 44.7651 167.46Z"
          fill="#004278"/>
    <path d="M64.0476 172.139C63.7829 172.139 63.6837 172.317 63.591 172.489C63.5513 172.556 63.5116 172.628 63.4587 172.701C63.1278 173.118 62.5918 173.416 61.7713 173.634C61.1361 173.8 60.031 174.018 57.801 174.018H56.6695C56.1931 174.018 56.0806 173.985 55.9681 173.813C55.7365 173.396 55.624 172.767 55.624 168.843V158.931C55.624 158.759 55.6637 158.686 55.9217 158.686H57.1592C57.2055 158.686 57.2452 158.646 57.2452 158.6V157.693C57.2452 157.647 57.2055 157.607 57.1592 157.607H50.0523C50.006 157.607 49.9663 157.647 49.9663 157.693V158.6C49.9663 158.646 50.006 158.686 50.0523 158.686H51.0449C51.6934 158.686 51.786 158.693 51.9448 158.878C52.1301 159.116 52.2558 159.738 52.2558 161.988V173.859C52.2558 174.091 52.2095 174.19 51.925 174.19H50.6876C50.6413 174.19 50.6016 174.23 50.6016 174.276V175.183C50.6016 175.229 50.6413 175.269 50.6876 175.269H63.6307C63.6704 175.269 63.7035 175.242 63.7101 175.209L64.2329 173.449C64.3454 173.058 64.4314 172.747 64.4314 172.569C64.4314 172.317 64.2726 172.152 64.041 172.152L64.0476 172.139Z"
          fill="#004278"/>
    <path d="M79.856 172.139C79.5913 172.139 79.492 172.317 79.3994 172.489C79.3597 172.556 79.32 172.628 79.267 172.701C78.9362 173.118 78.4002 173.416 77.5797 173.634C76.9444 173.8 75.8394 174.018 73.6094 174.018H72.4778C72.0014 174.018 71.8889 173.985 71.7764 173.813C71.5448 173.396 71.4323 172.767 71.4323 168.843V158.931C71.4323 158.759 71.472 158.686 71.7301 158.686H72.9675C73.0138 158.686 73.0535 158.646 73.0535 158.6V157.693C73.0535 157.647 73.0138 157.607 72.9675 157.607H65.8607C65.8144 157.607 65.7747 157.647 65.7747 157.693V158.6C65.7747 158.646 65.8144 158.686 65.8607 158.686H66.8533C67.5017 158.686 67.5944 158.693 67.7532 158.878C67.9385 159.116 68.0642 159.738 68.0642 161.988V173.859C68.0642 174.091 68.0179 174.19 67.7333 174.19H66.4959C66.4496 174.19 66.4099 174.23 66.4099 174.276V175.183C66.4099 175.229 66.4496 175.269 66.4959 175.269H79.4391C79.4788 175.269 79.5119 175.242 79.5185 175.209L80.0412 173.449C80.1537 173.045 80.2398 172.747 80.2398 172.569C80.2398 172.317 80.0809 172.152 79.8493 172.152L79.856 172.139Z"
          fill="#004278"/>
    <path d="M95.6709 172.139C95.4062 172.139 95.307 172.317 95.2143 172.489C95.1746 172.556 95.1349 172.628 95.082 172.701C94.7511 173.118 94.2152 173.416 93.3946 173.634C92.7594 173.8 91.6543 174.018 89.4243 174.018H88.2928C87.8164 174.018 87.7039 173.985 87.5914 173.813C87.3598 173.396 87.2473 172.767 87.2473 168.843V166.23H89.8346C92.6667 166.23 92.6667 166.541 92.6667 166.971V167.904C92.6667 167.95 92.7064 167.99 92.7528 167.99H93.5799C93.6262 167.99 93.6659 167.95 93.6659 167.904V163.06C93.6659 163.014 93.6262 162.974 93.5799 162.974H92.7528C92.7064 162.974 92.6667 163.014 92.6667 163.06V163.914C92.6667 164.754 92.6667 165.065 89.8081 165.065H87.2473V159.123C87.2473 158.918 87.2671 158.851 87.5186 158.851H89.5302C92.541 158.851 94.0034 159.48 94.0431 159.904C94.0696 160.274 94.1291 160.585 94.5659 160.585C94.9232 160.585 94.943 160.42 95.2541 157.713C95.2541 157.707 95.2541 157.7 95.2541 157.693C95.2541 157.647 95.2143 157.607 95.168 157.607H81.669C81.6227 157.607 81.583 157.647 81.583 157.693V158.6C81.583 158.646 81.6227 158.686 81.669 158.686H82.6616C83.3101 158.686 83.4027 158.693 83.5615 158.878C83.7468 159.116 83.8725 159.738 83.8725 161.988V173.859C83.8725 174.091 83.8262 174.19 83.5417 174.19H82.3043C82.258 174.19 82.2183 174.23 82.2183 174.276V175.183C82.2183 175.229 82.258 175.269 82.3043 175.269H95.2474C95.2871 175.269 95.3202 175.242 95.3268 175.209L95.8496 173.449C95.9621 173.058 96.0481 172.747 96.0481 172.569C96.0481 172.317 95.8893 172.152 95.6577 172.152L95.6709 172.139ZM95.1746 157.68C95.168 157.76 95.1548 157.832 95.1482 157.912C95.1548 157.832 95.1614 157.76 95.168 157.68H95.1746Z"
          fill="#004278"/>
    <path d="M116.217 166.984H108.945C108.899 166.984 108.859 167.023 108.859 167.07V167.976C108.859 168.023 108.899 168.062 108.945 168.062H110.348C111.235 168.062 111.393 168.062 111.393 171.583V173.872C110.54 174.276 109.594 174.474 108.502 174.474C103.903 174.474 101.812 170.292 101.812 166.408C101.812 160.062 106.45 158.368 109.19 158.368C111.929 158.368 113.511 159.566 113.511 160.075C113.511 160.4 113.57 160.764 114.007 160.764C114.292 160.764 114.477 160.638 114.808 158.157C114.808 158.117 114.795 158.084 114.762 158.07C112.889 157.171 110.507 157.071 109.574 157.071C108.31 157.071 107.092 157.243 105.941 157.561C105.808 157.594 105.67 157.634 105.537 157.673C105.438 157.707 105.339 157.74 105.233 157.773C104.174 158.117 103.241 158.587 102.44 159.156C102.275 159.268 102.103 159.381 101.944 159.506C99.6545 161.286 98.4436 163.814 98.4436 166.825C98.4436 172.35 101.924 175.778 107.536 175.778C109.402 175.778 111.089 175.348 112.439 175.004L112.538 174.977C114.834 174.382 115.026 174.038 115.026 173.713C115.026 173.561 114.967 173.475 114.9 173.389C114.788 173.244 114.642 173.038 114.642 172.284V168.347C114.642 168.188 114.642 168.076 115.026 168.076H116.211C116.257 168.076 116.297 168.036 116.297 167.99V167.083C116.297 167.037 116.257 166.997 116.211 166.997L116.217 166.984Z"
          fill="#004278"/>
    <path d="M132.409 172.139C132.145 172.139 132.046 172.317 131.953 172.489C131.913 172.556 131.873 172.628 131.821 172.701C131.49 173.118 130.954 173.416 130.133 173.634C129.498 173.8 128.393 174.018 126.163 174.018H125.031C124.555 174.018 124.442 173.985 124.33 173.813C124.098 173.396 123.986 172.767 123.986 168.843V166.23H126.573C129.405 166.23 129.405 166.541 129.405 166.971V167.904C129.405 167.95 129.445 167.99 129.491 167.99H130.318C130.365 167.99 130.404 167.95 130.404 167.904V163.06C130.404 163.014 130.365 162.974 130.318 162.974H129.491C129.445 162.974 129.405 163.014 129.405 163.06V163.914C129.405 164.754 129.405 165.065 126.547 165.065H123.986V159.123C123.986 158.918 124.006 158.851 124.257 158.851H126.269C129.28 158.851 130.742 159.48 130.782 159.904C130.808 160.274 130.868 160.585 131.304 160.585C131.662 160.585 131.682 160.42 131.993 157.713C131.993 157.707 131.993 157.7 131.993 157.693C131.993 157.647 131.953 157.607 131.907 157.607H118.408C118.361 157.607 118.322 157.647 118.322 157.693V158.6C118.322 158.646 118.361 158.686 118.408 158.686H119.4C120.049 158.686 120.141 158.693 120.3 158.878C120.485 159.116 120.611 159.738 120.611 161.988V173.859C120.611 174.091 120.565 174.19 120.28 174.19H119.043C118.996 174.19 118.957 174.23 118.957 174.276V175.183C118.957 175.229 118.996 175.269 119.043 175.269H131.986C132.026 175.269 132.059 175.242 132.065 175.209L132.588 173.449C132.701 173.045 132.787 172.747 132.787 172.569C132.787 172.317 132.628 172.152 132.396 172.152L132.409 172.139Z"
          fill="#004278"/>
</svg>
