<svg width="339" height="30" viewBox="0 0 339 30" fill="none" xmlns="http://www.w3.org/2000/svg">
<path d="M338.36 0.52002L337.875 3.91617H329.038V10.6045H336.731V14.0007H329.038V21.0355H338.499V24.4663H324.463V0.52002H338.36Z" fill="#184376"/>
<path d="M309.954 0C311.525 0 312.911 0.242582 314.112 0.727745C315.337 1.18981 316.492 1.8829 317.578 2.80702L315.117 5.37146C314.262 4.70147 313.454 4.21631 312.691 3.91597C311.952 3.61563 311.086 3.46546 310.092 3.46546C308.244 3.46546 306.731 4.20476 305.553 5.68335C304.374 7.16195 303.785 9.42605 303.785 12.4757C303.785 15.6639 304.247 17.9626 305.171 19.3719C306.119 20.7812 307.551 21.4858 309.469 21.4858C310.924 21.4858 312.195 21.174 313.281 20.5502V14.3123H309.677L309.191 10.9162H317.786V22.6294C315.198 24.2005 312.449 24.986 309.538 24.986C306.119 24.986 303.496 23.9232 301.671 21.7977C299.869 19.6723 298.968 16.5649 298.968 12.4757C298.968 9.86501 299.453 7.62401 300.424 5.75266C301.417 3.85821 302.746 2.42582 304.409 1.45549C306.072 0.485164 307.921 0 309.954 0Z" fill="#184376"/>
<path d="M294.166 0.52002L293.681 3.91617H284.844V10.6045H292.537V14.0007H284.844V21.0355H294.305V24.4663H280.27V0.52002H294.166Z" fill="#184376"/>
<path d="M265.234 0.52002V20.7236H274.833L274.314 24.4663H260.66V0.52002H265.234Z" fill="#184376"/>
<path d="M245.625 0.52002V20.7236H255.224L254.704 24.4663H241.05V0.52002H245.625Z" fill="#184376"/>
<path d="M224.194 0C226.343 0 228.202 0.485164 229.773 1.45549C231.344 2.42582 232.546 3.84666 233.377 5.71801C234.232 7.58936 234.66 9.8419 234.66 12.4757C234.66 15.0863 234.232 17.3273 233.377 19.1986C232.523 21.07 231.31 22.5024 229.739 23.4958C228.168 24.4892 226.319 24.986 224.194 24.986C222.045 24.986 220.186 24.5008 218.615 23.5305C217.044 22.5601 215.831 21.1393 214.976 19.268C214.121 17.3966 213.694 15.1441 213.694 12.5103C213.694 9.92276 214.121 7.69332 214.976 5.82197C215.831 3.92752 217.044 2.48358 218.615 1.49015C220.209 0.496716 222.068 0 224.194 0ZM224.194 3.50011C222.346 3.50011 220.936 4.22786 219.966 5.68335C218.996 7.11574 218.511 9.39139 218.511 12.5103C218.511 18.494 220.405 21.4858 224.194 21.4858C226.042 21.4858 227.44 20.7696 228.387 19.3373C229.357 17.9049 229.843 15.6177 229.843 12.4757C229.843 9.35674 229.357 7.08109 228.387 5.6487C227.44 4.21631 226.042 3.50011 224.194 3.50011Z" fill="#184376"/>
<path d="M203.061 0C204.516 0 205.787 0.207927 206.873 0.623783C207.959 1.03964 209.021 1.67497 210.061 2.52979L207.739 5.23284C206.33 4.10079 204.851 3.53477 203.303 3.53477C201.524 3.53477 200.092 4.25096 199.006 5.68335C197.943 7.11574 197.412 9.36829 197.412 12.441C197.412 15.4444 197.943 17.6738 199.006 19.1293C200.069 20.5848 201.501 21.3126 203.303 21.3126C204.25 21.3126 205.094 21.1509 205.833 20.8274C206.572 20.4809 207.358 19.9957 208.19 19.3719L210.338 22.075C209.53 22.9067 208.501 23.5998 207.254 24.1542C206.029 24.7087 204.655 24.986 203.13 24.986C201.051 24.986 199.214 24.5008 197.62 23.5305C196.026 22.5601 194.79 21.1393 193.912 19.268C193.034 17.3735 192.595 15.0978 192.595 12.441C192.595 9.83035 193.045 7.58936 193.947 5.71801C194.871 3.84666 196.118 2.42582 197.689 1.45549C199.283 0.485164 201.074 0 203.061 0Z" fill="#184376"/>
<path d="M175.477 0.52002V24.4663H170.903V0.52002H175.477Z" fill="#184376"/>
<path d="M163.212 0.52002V24.4663H158.637V0.52002H163.212Z" fill="#184376"/>
<path d="M150.946 0.52002V24.4663H146.371V0.52002H150.946Z" fill="#184376"/>
<path d="M134.432 11.5402L141.536 24.4663H136.442L131.66 14.6591L126.912 24.4663H122.026L128.957 11.7135L122.58 0.52002H127.675L131.729 8.80247L135.957 0.52002H140.843L134.432 11.5402Z" fill="#184376"/>
<path d="M112.893 11.5402L119.998 24.4663H114.903L110.121 14.6591L105.373 24.4663H100.487L107.418 11.7135L101.042 0.52002H106.136L110.19 8.80247L114.418 0.52002H119.305L112.893 11.5402Z" fill="#184376"/>
<path d="M84.8623 24.4663H78.9364L70.7232 5.09443C70.9312 6.80405 71.0813 8.35196 71.1738 9.73814C71.2893 11.1243 71.347 12.7762 71.347 14.6937V24.4663H67.1885V0.52002H72.9758L81.3275 19.9266C81.1889 19.0025 81.0503 17.7896 80.9117 16.2879C80.7731 14.7631 80.7038 13.2498 80.7038 11.7481V0.52002H84.8623V24.4663Z" fill="#184376"/>
<path d="M54.9251 24.4663V13.7581H46.4001V24.4663H41.8257V0.52002H46.4001V10.1193H54.9251V0.52002H59.5342V24.4663H54.9251Z" fill="#184376"/>
<path d="M24.9693 0C27.1179 0 28.9777 0.485164 30.5487 1.45549C32.1197 2.42582 33.3211 3.84666 34.1528 5.71801C35.0076 7.58936 35.435 9.8419 35.435 12.4757C35.435 15.0863 35.0076 17.3273 34.1528 19.1986C33.298 21.07 32.0851 22.5024 30.5141 23.4958C28.9431 24.4892 27.0948 24.986 24.9693 24.986C22.8207 24.986 20.961 24.5008 19.3899 23.5305C17.8189 22.5601 16.606 21.1393 15.7512 19.268C14.8964 17.3966 14.469 15.1441 14.469 12.5103C14.469 9.92276 14.8964 7.69332 15.7512 5.82197C16.606 3.92752 17.8189 2.48358 19.3899 1.49015C20.9841 0.496716 22.8439 0 24.9693 0ZM24.9693 3.50011C23.1211 3.50011 21.7118 4.22786 20.7415 5.68335C19.7711 7.11574 19.286 9.39139 19.286 12.5103C19.286 18.494 21.1804 21.4858 24.9693 21.4858C26.8176 21.4858 28.2153 20.7696 29.1625 19.3373C30.1329 17.9049 30.618 15.6177 30.618 12.4757C30.618 9.35674 30.1329 7.08109 29.1625 5.6487C28.2153 4.21631 26.8176 3.50011 24.9693 3.50011Z" fill="#184376"/>
<path d="M8.24779 20.9662C8.24779 23.5307 7.63556 25.4598 6.4111 26.7535C5.20974 28.0704 3.47701 29.0985 1.21291 29.8378L0 26.5456C1.01653 26.1529 1.77894 25.7024 2.2872 25.1941C2.81857 24.7089 3.17667 24.1313 3.3615 23.4614C3.54632 22.7683 3.63873 21.8788 3.63873 20.793V0.52002H8.24779V20.9662Z" fill="#184376"/>
</svg>
