<svg width="276" height="186" viewBox="0 0 276 186" fill="none" xmlns="http://www.w3.org/2000/svg">
<path d="M274.932 138.98L274.017 145.386H257.349V158.001H271.86V164.407H257.349V177.675H275.193V184.146H248.721V138.98H274.932Z" fill="#184376"/>
<path d="M221.354 138C224.317 138 226.931 138.458 229.197 139.373C231.507 140.244 233.686 141.551 235.734 143.294L231.093 148.131C229.481 146.868 227.956 145.952 226.518 145.386C225.123 144.82 223.489 144.536 221.615 144.536C218.129 144.536 215.275 145.931 213.053 148.72C210.83 151.508 209.719 155.779 209.719 161.531C209.719 167.544 210.591 171.88 212.334 174.538C214.12 177.196 216.822 178.525 220.439 178.525C223.184 178.525 225.581 177.937 227.629 176.76V164.995H220.831L219.916 158.589H236.126V180.682C231.245 183.645 226.06 185.127 220.569 185.127C214.12 185.127 209.175 183.122 205.732 179.113C202.333 175.104 200.634 169.243 200.634 161.531C200.634 156.607 201.549 152.38 203.379 148.85C205.253 145.277 207.758 142.575 210.896 140.745C214.033 138.915 217.519 138 221.354 138Z" fill="#184376"/>
<path d="M191.576 138.98L190.661 145.386H173.993V158.001H188.504V164.407H173.993V177.675H191.837V184.146H165.365V138.98H191.576Z" fill="#184376"/>
<path d="M137.007 138.98V177.087H155.112L154.132 184.146H128.379V138.98H137.007Z" fill="#184376"/>
<path d="M100.021 138.98V177.087H118.127L117.146 184.146H91.3931V138.98H100.021Z" fill="#184376"/>
<path d="M59.5999 138C63.6524 138 67.1602 138.915 70.1233 140.745C73.0865 142.575 75.3524 145.255 76.9211 148.785C78.5334 152.314 79.3395 156.563 79.3395 161.531C79.3395 166.455 78.5334 170.681 76.9211 174.211C75.3088 177.741 73.0211 180.442 70.058 182.316C67.0948 184.19 63.6088 185.127 59.5999 185.127C55.5474 185.127 52.0396 184.212 49.0765 182.381C46.1133 180.551 43.8256 177.871 42.2133 174.342C40.6011 170.812 39.7949 166.564 39.7949 161.596C39.7949 156.716 40.6011 152.511 42.2133 148.981C43.8256 145.408 46.1133 142.684 49.0765 140.811C52.0832 138.937 55.591 138 59.5999 138ZM59.5999 144.602C56.1139 144.602 53.4558 145.974 51.6256 148.72C49.7955 151.421 48.8804 155.713 48.8804 161.596C48.8804 172.882 52.4535 178.525 59.5999 178.525C63.0859 178.525 65.7222 177.174 67.5088 174.473C69.339 171.771 70.2541 167.457 70.2541 161.531C70.2541 155.648 69.339 151.356 67.5088 148.654C65.7222 145.952 63.0859 144.602 59.5999 144.602Z" fill="#184376"/>
<path d="M19.7396 138C22.4849 138 24.8815 138.392 26.9295 139.177C28.9776 139.961 30.982 141.159 32.9429 142.771L28.5636 147.87C25.9055 145.735 23.1167 144.667 20.1972 144.667C16.8419 144.667 14.1402 146.018 12.0921 148.72C10.0877 151.421 9.08545 155.67 9.08545 161.465C9.08545 167.13 10.0877 171.335 12.0921 174.08C14.0966 176.826 16.7983 178.198 20.1972 178.198C21.9837 178.198 23.5742 177.893 24.9686 177.283C26.3631 176.629 27.8446 175.714 29.4133 174.538L33.4658 179.636C31.9407 181.205 30.0016 182.512 27.6485 183.558C25.339 184.604 22.7463 185.127 19.8703 185.127C15.9486 185.127 12.4843 184.212 9.47763 182.381C6.47093 180.551 4.13965 177.871 2.48379 174.342C0.82793 170.769 0 166.476 0 161.465C0 156.541 0.849717 152.314 2.54915 148.785C4.29217 145.255 6.64523 142.575 9.60835 140.745C12.615 138.915 15.9921 138 19.7396 138Z" fill="#184376"/>
<path d="M203.752 69.9805V115.146H195.125V69.9805H203.752Z" fill="#184376"/>
<path d="M180.618 69.9805V115.146H171.99V69.9805H180.618Z" fill="#184376"/>
<path d="M157.483 69.9805V115.146H148.855V69.9805H157.483Z" fill="#184376"/>
<path d="M126.336 90.7659L139.735 115.146H130.127L121.107 96.6486L112.152 115.146H102.936L116.009 91.0927L103.982 69.9805H113.59L121.238 85.6022L129.212 69.9805H138.428L126.336 90.7659Z" fill="#184376"/>
<path d="M85.711 90.7659L99.1104 115.146H89.502L80.4819 96.6486L71.5272 115.146H62.311L75.3836 91.0927L63.3568 69.9805H72.9652L80.6127 85.6022L88.5869 69.9805H97.8031L85.711 90.7659Z" fill="#184376"/>
<path d="M212.967 46.1463H201.79L186.299 9.60838C186.691 12.833 186.974 15.7525 187.149 18.367C187.366 20.9815 187.475 24.0972 187.475 27.7139V46.1463H179.632V0.980469H190.547L206.3 37.5837C206.038 35.8407 205.777 33.553 205.516 30.7206C205.254 27.8446 205.123 24.9905 205.123 22.1581V0.980469H212.967V46.1463Z" fill="#184376"/>
<path d="M156.501 46.1463V25.9491H140.422V46.1463H131.794V0.980469H140.422V19.086H156.501V0.980469H165.194V46.1463H156.501Z" fill="#184376"/>
<path d="M100.001 0C104.054 0 107.562 0.915082 110.525 2.74524C113.488 4.57541 115.754 7.25529 117.322 10.7849C118.935 14.3145 119.741 18.5631 119.741 23.5307C119.741 28.4547 118.935 32.6815 117.322 36.2111C115.71 39.7407 113.422 42.4423 110.459 44.3161C107.496 46.1898 104.01 47.1267 100.001 47.1267C95.9488 47.1267 92.441 46.2116 89.4778 44.3814C86.5147 42.5513 84.227 39.8714 82.6147 36.3418C81.0024 32.8122 80.1963 28.5636 80.1963 23.596C80.1963 18.7156 81.0024 14.5106 82.6147 10.981C84.227 7.4078 86.5147 4.68435 89.4778 2.81061C92.4845 0.936869 95.9923 0 100.001 0ZM100.001 6.60166C96.5152 6.60166 93.8571 7.97428 92.027 10.7195C90.1968 13.4212 89.2817 17.7134 89.2817 23.596C89.2817 34.882 92.8549 40.525 100.001 40.525C103.487 40.525 106.124 39.1742 107.91 36.4725C109.74 33.7709 110.655 29.4569 110.655 23.5307C110.655 17.648 109.74 13.3558 107.91 10.6542C106.124 7.95249 103.487 6.60166 100.001 6.60166Z" fill="#184376"/>
<path d="M68.4622 39.5446C68.4622 44.3815 67.3074 48.02 64.9979 50.4602C62.732 52.944 59.4638 54.8831 55.1935 56.2775L52.9058 50.068C54.8231 49.3273 56.2611 48.4776 57.2197 47.5189C58.222 46.6038 58.8974 45.5144 59.246 44.2507C59.5946 42.9435 59.7689 41.2658 59.7689 39.2178V0.980469H68.4622V39.5446Z" fill="#184376"/>
</svg>
