<svg width="880" height="78" viewBox="0 0 880 78" fill="none" xmlns="http://www.w3.org/2000/svg">
<path d="M878.741 1.3501L877.481 10.1701H854.531V27.5401H874.511V36.3601H854.531V54.6301H879.101V63.5401H842.651V1.3501H878.741Z" fill="#184376"/>
<path d="M804.969 0C809.049 0 812.648 0.629999 815.768 1.89C818.948 3.09 821.948 4.89 824.768 7.29L818.378 13.95C816.158 12.21 814.058 10.95 812.078 10.17C810.158 9.39 807.908 9 805.328 9C800.528 9 796.598 10.92 793.538 14.76C790.478 18.6 788.948 24.48 788.948 32.4C788.948 40.68 790.148 46.65 792.548 50.31C795.008 53.97 798.728 55.8 803.708 55.8C807.488 55.8 810.788 54.99 813.608 53.37V37.17H804.248L802.988 28.35H825.308V58.77C818.588 62.85 811.448 64.89 803.888 64.89C795.008 64.89 788.198 62.13 783.458 56.61C778.778 51.09 776.438 43.02 776.438 32.4C776.438 25.62 777.699 19.8 780.219 14.94C782.799 10.02 786.248 6.3 790.568 3.78C794.888 1.26 799.689 0 804.969 0Z" fill="#184376"/>
<path d="M763.966 1.3501L762.706 10.1701H739.756V27.5401H759.736V36.3601H739.756V54.6301H764.326V63.5401H727.876V1.3501H763.966Z" fill="#184376"/>
<path d="M688.829 1.3501V53.8201H713.759L712.409 63.5401H676.949V1.3501H688.829Z" fill="#184376"/>
<path d="M637.902 1.3501V53.8201H662.832L661.482 63.5401H626.022V1.3501H637.902Z" fill="#184376"/>
<path d="M582.245 0C587.825 0 592.655 1.26 596.735 3.78C600.815 6.3 603.935 9.99 606.095 14.85C608.315 19.71 609.425 25.56 609.425 32.4C609.425 39.18 608.315 45 606.095 49.86C603.875 54.72 600.725 58.44 596.645 61.02C592.565 63.6 587.765 64.89 582.245 64.89C576.665 64.89 571.835 63.63 567.755 61.11C563.675 58.59 560.525 54.9 558.305 50.04C556.085 45.18 554.975 39.33 554.975 32.49C554.975 25.77 556.085 19.98 558.305 15.12C560.525 10.2 563.675 6.45 567.755 3.87C571.895 1.29 576.725 0 582.245 0ZM582.245 9.09C577.445 9.09 573.785 10.98 571.265 14.76C568.745 18.48 567.485 24.39 567.485 32.49C567.485 48.03 572.405 55.8 582.245 55.8C587.045 55.8 590.675 53.94 593.135 50.22C595.655 46.5 596.915 40.56 596.915 32.4C596.915 24.3 595.655 18.39 593.135 14.67C590.675 10.95 587.045 9.09 582.245 9.09Z" fill="#184376"/>
<path d="M527.361 0C531.141 0 534.441 0.54 537.261 1.62C540.081 2.7 542.841 4.35 545.541 6.57L539.511 13.59C535.851 10.65 532.011 9.18 527.991 9.18C523.371 9.18 519.651 11.04 516.831 14.76C514.071 18.48 512.691 24.33 512.691 32.31C512.691 40.11 514.071 45.9 516.831 49.68C519.591 53.46 523.311 55.35 527.991 55.35C530.451 55.35 532.641 54.93 534.561 54.09C536.481 53.19 538.521 51.93 540.681 50.31L546.261 57.33C544.161 59.49 541.491 61.29 538.251 62.73C535.071 64.17 531.501 64.89 527.541 64.89C522.141 64.89 517.371 63.63 513.231 61.11C509.091 58.59 505.881 54.9 503.601 50.04C501.321 45.12 500.181 39.21 500.181 32.31C500.181 25.53 501.351 19.71 503.691 14.85C506.091 9.99 509.331 6.3 513.411 3.78C517.551 1.26 522.201 0 527.361 0Z" fill="#184376"/>
<path d="M455.725 1.3501V63.5401H443.845V1.3501H455.725Z" fill="#184376"/>
<path d="M423.87 1.3501V63.5401H411.99V1.3501H423.87Z" fill="#184376"/>
<path d="M392.015 1.3501V63.5401H380.135V1.3501H392.015Z" fill="#184376"/>
<path d="M349.128 29.9701L367.578 63.5401H354.348L341.928 38.0701L329.598 63.5401H316.908L334.908 30.4201L318.348 1.3501H331.578L342.108 22.8601L353.088 1.3501H365.778L349.128 29.9701Z" fill="#184376"/>
<path d="M293.191 29.9701L311.641 63.5401H298.411L285.991 38.0701L273.661 63.5401H260.971L278.971 30.4201L262.411 1.3501H275.641L286.171 22.8601L297.151 1.3501H309.841L293.191 29.9701Z" fill="#184376"/>
<path d="M220.392 63.5401H205.002L183.672 13.2301C184.212 17.6701 184.602 21.6901 184.842 25.2901C185.142 28.8901 185.292 33.1801 185.292 38.1601V63.5401H174.492V1.3501H189.522L211.212 51.7501C210.852 49.3501 210.492 46.2001 210.132 42.3001C209.772 38.3401 209.592 34.4101 209.592 30.5101V1.3501H220.392V63.5401Z" fill="#184376"/>
<path d="M142.644 63.5401V35.7301H120.504V63.5401H108.624V1.3501H120.504V26.2801H142.644V1.3501H154.614V63.5401H142.644Z" fill="#184376"/>
<path d="M64.8471 0C70.4271 0 75.2572 1.26 79.3372 3.78C83.4172 6.3 86.5372 9.99 88.6971 14.85C90.9171 19.71 92.0271 25.56 92.0271 32.4C92.0271 39.18 90.9171 45 88.6971 49.86C86.4771 54.72 83.3271 58.44 79.2472 61.02C75.1671 63.6 70.3671 64.89 64.8471 64.89C59.2671 64.89 54.4372 63.63 50.3572 61.11C46.2772 58.59 43.1272 54.9 40.9072 50.04C38.6872 45.18 37.5771 39.33 37.5771 32.49C37.5771 25.77 38.6872 19.98 40.9072 15.12C43.1272 10.2 46.2772 6.45 50.3572 3.87C54.4972 1.29 59.3271 0 64.8471 0ZM64.8471 9.09C60.0471 9.09 56.3871 10.98 53.8671 14.76C51.3471 18.48 50.0872 24.39 50.0872 32.49C50.0872 48.03 55.0071 55.8 64.8471 55.8C69.6471 55.8 73.2771 53.94 75.7371 50.22C78.2571 46.5 79.5171 40.56 79.5171 32.4C79.5171 24.3 78.2571 18.39 75.7371 14.67C73.2771 10.95 69.6471 9.09 64.8471 9.09Z" fill="#184376"/>
<path d="M21.42 54.4501C21.42 61.1101 19.83 66.1201 16.65 69.4801C13.53 72.9001 9.03 75.5701 3.15 77.4901L0 68.9401C2.64 67.9201 4.62 66.7501 5.94 65.4301C7.32 64.1701 8.25 62.6701 8.73 60.9301C9.21 59.1301 9.45 56.8201 9.45 54.0001V1.3501H21.42V54.4501Z" fill="#184376"/>
</svg>
