<svg width="103" height="19" viewBox="0 0 103 19" fill="none" xmlns="http://www.w3.org/2000/svg">
<path d="M102.284 10.0203C102.284 10.327 102.271 10.6403 102.244 10.9603H95.5242C95.6042 12.1203 95.8975 12.9736 96.4042 13.5203C96.9109 14.067 97.5642 14.3403 98.3642 14.3403C98.8709 14.3403 99.3375 14.267 99.7642 14.1203C100.191 13.9736 100.638 13.7403 101.104 13.4203L101.904 14.5203C100.784 15.4003 99.5575 15.8403 98.2242 15.8403C96.7575 15.8403 95.6109 15.3603 94.7842 14.4003C93.9709 13.4403 93.5642 12.1203 93.5642 10.4403C93.5642 9.34698 93.7375 8.38031 94.0842 7.54031C94.4442 6.68698 94.9509 6.02031 95.6042 5.54031C96.2709 5.06031 97.0509 4.82031 97.9442 4.82031C99.3442 4.82031 100.418 5.28031 101.164 6.20031C101.911 7.12031 102.284 8.39365 102.284 10.0203ZM100.464 9.48031C100.464 8.44031 100.258 7.64698 99.8442 7.10031C99.4309 6.55365 98.8109 6.28031 97.9842 6.28031C96.4775 6.28031 95.6575 7.38698 95.5242 9.60031H100.464V9.48031Z" fill="#184376"/>
<path d="M89.4042 4.82031C90.0309 4.82031 90.6042 4.91365 91.1242 5.10031C91.6442 5.27365 92.1442 5.56031 92.6242 5.96031L91.7442 7.12031C91.3709 6.85365 91.0042 6.66031 90.6442 6.54031C90.2975 6.40698 89.9109 6.34031 89.4842 6.34031C88.6309 6.34031 87.9642 6.68031 87.4842 7.36031C87.0175 8.04031 86.7842 9.04698 86.7842 10.3803C86.7842 11.7136 87.0175 12.7003 87.4842 13.3403C87.9509 13.967 88.6175 14.2803 89.4842 14.2803C89.8975 14.2803 90.2775 14.2203 90.6242 14.1003C90.9709 13.967 91.3575 13.7603 91.7842 13.4803L92.6242 14.6803C91.6642 15.4536 90.5909 15.8403 89.4042 15.8403C87.9775 15.8403 86.8509 15.3603 86.0242 14.4003C85.2109 13.4403 84.8042 12.1136 84.8042 10.4203C84.8042 9.30031 84.9909 8.32031 85.3642 7.48031C85.7375 6.64031 86.2642 5.98698 86.9442 5.52031C87.6375 5.05365 88.4575 4.82031 89.4042 4.82031Z" fill="#184376"/>
<path d="M82.1595 5.06V15.6H80.3195V5.06H82.1595ZM81.2195 0C81.6061 0 81.9195 0.12 82.1595 0.36C82.3995 0.6 82.5195 0.9 82.5195 1.26C82.5195 1.62 82.3995 1.92 82.1595 2.16C81.9195 2.38667 81.6061 2.5 81.2195 2.5C80.8461 2.5 80.5395 2.38667 80.2995 2.16C80.0595 1.92 79.9395 1.62 79.9395 1.26C79.9395 0.9 80.0595 0.6 80.2995 0.36C80.5395 0.12 80.8461 0 81.2195 0Z" fill="#184376"/>
<path d="M78.813 15.12C78.1196 15.6 77.3329 15.84 76.4529 15.84C75.5596 15.84 74.8596 15.5866 74.353 15.08C73.8596 14.56 73.6129 13.8133 73.6129 12.84V6.47996H71.7729V5.05996H73.6129V2.67996L75.4529 2.45996V5.05996H77.9529L77.753 6.47996H75.4529V12.76C75.4529 13.3066 75.5463 13.7066 75.7329 13.96C75.9329 14.2 76.2596 14.32 76.713 14.32C77.1263 14.32 77.5929 14.18 78.1129 13.9L78.813 15.12Z" fill="#184376"/>
<path d="M67.417 4.82031C68.137 4.82031 68.7837 4.92031 69.357 5.12031C69.9303 5.32031 70.477 5.62031 70.997 6.02031L70.217 7.18031C69.737 6.87365 69.277 6.64698 68.837 6.50031C68.4103 6.35365 67.957 6.28031 67.477 6.28031C66.877 6.28031 66.4036 6.40698 66.057 6.66031C65.7103 6.90031 65.537 7.23365 65.537 7.66031C65.537 8.08698 65.697 8.42031 66.017 8.66031C66.3503 8.90031 66.9437 9.13365 67.797 9.36031C68.9703 9.65365 69.8436 10.0536 70.417 10.5603C71.0036 11.067 71.297 11.7603 71.297 12.6403C71.297 13.6803 70.8903 14.4736 70.077 15.0203C69.277 15.567 68.297 15.8403 67.137 15.8403C65.537 15.8403 64.2103 15.3803 63.157 14.4603L64.137 13.3403C65.0303 14.0203 66.017 14.3603 67.097 14.3603C67.7903 14.3603 68.337 14.2203 68.737 13.9403C69.1503 13.647 69.357 13.2536 69.357 12.7603C69.357 12.4003 69.2836 12.1136 69.137 11.9003C68.9903 11.6736 68.737 11.4803 68.377 11.3203C68.017 11.147 67.4903 10.967 66.797 10.7803C65.677 10.487 64.8636 10.0936 64.357 9.60031C63.8636 9.10698 63.617 8.48031 63.617 7.72031C63.617 7.17365 63.777 6.68031 64.097 6.24031C64.4303 5.78698 64.8836 5.44031 65.457 5.20031C66.0436 4.94698 66.697 4.82031 67.417 4.82031Z" fill="#184376"/>
<path d="M61.1563 15.6001H59.5763L59.4363 13.9601C59.0363 14.6134 58.5763 15.0934 58.0563 15.4001C57.5363 15.6934 56.903 15.8401 56.1563 15.8401C55.2363 15.8401 54.5163 15.5601 53.9963 15.0001C53.4763 14.4401 53.2163 13.6467 53.2163 12.6201V5.06006H55.0563V12.4201C55.0563 13.1401 55.183 13.6534 55.4363 13.9601C55.6896 14.2534 56.103 14.4001 56.6763 14.4001C57.703 14.4001 58.583 13.7934 59.3163 12.5801V5.06006H61.1563V15.6001Z" fill="#184376"/>
<path d="M49.9228 13.6803C49.9228 15.0403 49.6228 16.0603 49.0228 16.7403C48.4361 17.4203 47.5361 17.9536 46.3228 18.3403L45.8228 16.9603C46.4361 16.7203 46.8961 16.4603 47.2028 16.1803C47.5094 15.9003 47.7228 15.5603 47.8428 15.1603C47.9628 14.7603 48.0228 14.2403 48.0228 13.6003V1.82031H49.9228V13.6803Z" fill="#184376"/>
<path d="M34.7353 0.600098V15.6001H32.8953V0.820098L34.7353 0.600098ZM40.7953 5.0601L36.9153 9.7201L41.2353 15.6001H39.0353L34.8553 9.8401L38.7353 5.0601H40.7953Z" fill="#184376"/>
<path d="M30.3567 10.0203C30.3567 10.327 30.3434 10.6403 30.3167 10.9603H23.5967C23.6767 12.1203 23.9701 12.9736 24.4767 13.5203C24.9834 14.067 25.6367 14.3403 26.4367 14.3403C26.9434 14.3403 27.4101 14.267 27.8367 14.1203C28.2634 13.9736 28.7101 13.7403 29.1767 13.4203L29.9767 14.5203C28.8567 15.4003 27.6301 15.8403 26.2967 15.8403C24.8301 15.8403 23.6834 15.3603 22.8567 14.4003C22.0434 13.4403 21.6367 12.1203 21.6367 10.4403C21.6367 9.34698 21.8101 8.38031 22.1567 7.54031C22.5167 6.68698 23.0234 6.02031 23.6767 5.54031C24.3434 5.06031 25.1234 4.82031 26.0167 4.82031C27.4167 4.82031 28.4901 5.28031 29.2367 6.20031C29.9834 7.12031 30.3567 8.39365 30.3567 10.0203ZM28.5367 9.48031C28.5367 8.44031 28.3301 7.64698 27.9167 7.10031C27.5034 6.55365 26.8834 6.28031 26.0567 6.28031C24.5501 6.28031 23.7301 7.38698 23.5967 9.60031H28.5367V9.48031Z" fill="#184376"/>
<path d="M19.8584 10.0203C19.8584 10.327 19.8451 10.6403 19.8184 10.9603H13.0984C13.1784 12.1203 13.4718 12.9736 13.9784 13.5203C14.4851 14.067 15.1384 14.3403 15.9384 14.3403C16.4451 14.3403 16.9118 14.267 17.3384 14.1203C17.7651 13.9736 18.2118 13.7403 18.6784 13.4203L19.4784 14.5203C18.3584 15.4003 17.1318 15.8403 15.7984 15.8403C14.3318 15.8403 13.1851 15.3603 12.3584 14.4003C11.5451 13.4403 11.1384 12.1203 11.1384 10.4403C11.1384 9.34698 11.3118 8.38031 11.6584 7.54031C12.0184 6.68698 12.5251 6.02031 13.1784 5.54031C13.8451 5.06031 14.6251 4.82031 15.5184 4.82031C16.9184 4.82031 17.9918 5.28031 18.7384 6.20031C19.4851 7.12031 19.8584 8.39365 19.8584 10.0203ZM18.0384 9.48031C18.0384 8.44031 17.8318 7.64698 17.4184 7.10031C17.0051 6.55365 16.3851 6.28031 15.5584 6.28031C14.0518 6.28031 13.2318 7.38698 13.0984 9.60031H18.0384V9.48031Z" fill="#184376"/>
<path d="M4.9 1.58008C5.82 1.58008 6.60667 1.71341 7.26 1.98008C7.91333 2.23341 8.54667 2.63341 9.16 3.18008L8.12 4.34008C7.6 3.92674 7.08667 3.62674 6.58 3.44008C6.08667 3.24008 5.55333 3.14008 4.98 3.14008C4.26 3.14008 3.66667 3.30674 3.2 3.64008C2.73333 3.97341 2.5 4.46008 2.5 5.10008C2.5 5.50008 2.58 5.84008 2.74 6.12008C2.9 6.38674 3.19333 6.63341 3.62 6.86008C4.06 7.08675 4.69333 7.32674 5.52 7.58008C6.38667 7.84674 7.10667 8.13341 7.68 8.44008C8.25333 8.74675 8.71333 9.17341 9.06 9.72008C9.42 10.2534 9.6 10.9334 9.6 11.7601C9.6 12.5601 9.4 13.2667 9 13.8801C8.61333 14.4934 8.04667 14.9734 7.3 15.3201C6.56667 15.6667 5.69333 15.8401 4.68 15.8401C2.77333 15.8401 1.21333 15.2467 0 14.0601L1.04 12.9001C1.6 13.3534 2.16667 13.7001 2.74 13.9401C3.31333 14.1667 3.95333 14.2801 4.66 14.2801C5.51333 14.2801 6.22 14.0734 6.78 13.6601C7.34 13.2334 7.62 12.6201 7.62 11.8201C7.62 11.3667 7.53333 10.9934 7.36 10.7001C7.18667 10.3934 6.88667 10.1201 6.46 9.88008C6.04667 9.64008 5.44 9.40008 4.64 9.16008C3.22667 8.73341 2.19333 8.22008 1.54 7.62008C0.886667 7.02008 0.56 6.20675 0.56 5.18008C0.56 4.48675 0.74 3.86674 1.1 3.32008C1.47333 2.77341 1.98667 2.34674 2.64 2.04008C3.30667 1.73341 4.06 1.58008 4.9 1.58008Z" fill="#184376"/>
</svg>
