<svg width="30" height="30" viewBox="0 0 30 30" fill="none" xmlns="http://www.w3.org/2000/svg">
<path d="M15 4.5C9.1875 4.5 4.5 9.1875 4.5 15C4.5 20.8125 9.1875 25.5 15 25.5C20.8125 25.5 25.5 20.8125 25.5 15C25.5 9.1875 20.8125 4.5 15 4.5ZM15 27C8.39062 27 3 21.6094 3 15C3 8.39062 8.39062 3 15 3C21.6094 3 27 8.39062 27 15C27 21.6094 21.6094 27 15 27ZM14.2031 10.5H14.25V9H15.75V10.5H17.625V12H14.2031C13.5938 12 13.125 12.4688 13.125 13.0781C13.125 13.5938 13.5 14.0156 14.0156 14.1094L16.1719 14.3906C17.4375 14.5781 18.375 15.6562 18.375 16.9219C18.375 18.375 17.25 19.5 15.7969 19.5H15.75V21H14.25V19.5H12V18H15.7969C16.4062 18 16.875 17.5312 16.875 16.9219C16.875 16.4062 16.5 15.9844 15.9844 15.8906L13.8281 15.6094C12.5625 15.4219 11.625 14.3438 11.625 13.0781C11.625 11.625 12.7969 10.5 14.2031 10.5Z" fill="#FDB71A"/>
</svg>
