<svg width="30" height="30" viewBox="0 0 30 30" fill="none" xmlns="http://www.w3.org/2000/svg">
<path d="M25.5 15C25.5 9.1875 20.8125 4.5 15 4.5C9.1875 4.5 4.5 9.1875 4.5 15C4.5 20.8125 9.1875 25.5 15 25.5C20.8125 25.5 25.5 20.8125 25.5 15ZM3 15C3 8.39062 8.39062 3 15 3C21.6094 3 27 8.39062 27 15C27 21.6094 21.6094 27 15 27C8.39062 27 3 21.6094 3 15ZM14.25 8.25V7.5H15.75V14.5781L19.9219 17.3906L20.5312 17.8125L19.6875 19.0312L19.0781 18.6094L14.5781 15.6094L14.25 15.4219V8.25Z" fill="#FDB71A"/>
</svg>
