<svg width="60" height="60" viewBox="0 0 60 60" fill="none" xmlns="http://www.w3.org/2000/svg">
<path d="M6 12V18H54V12H6ZM3 19.5V9H57V51H3V19.5ZM54 21H6V48H10.9688L13.5 40.5H28.5L31.0312 48H54V21ZM27.8438 48L26.3438 43.5H15.6562L14.1562 48H27.8438ZM21 34.5C22.6875 34.5 24 33.1875 24 31.5C24 29.8125 22.6875 28.5 21 28.5C19.3125 28.5 18 29.8125 18 31.5C18 33.1875 19.3125 34.5 21 34.5ZM21 25.5C24.2812 25.5 27 28.2188 27 31.5C27 34.7812 24.2812 37.5 21 37.5C17.7188 37.5 15 34.7812 15 31.5C15 28.2188 17.7188 25.5 21 25.5ZM34.5 27H49.5V30H34.5V27ZM34.5 36H49.5V39H34.5V36Z" fill="#FDB71A"/>
</svg>
