<svg width="30" height="30" viewBox="0 0 30 30" fill="none" xmlns="http://www.w3.org/2000/svg">
<path d="M27 15C27 21.1406 22.4062 26.2031 16.4531 26.9062V18.6562H19.6875L20.3906 15H16.4531V13.6875C16.4531 11.7656 17.2031 11.0156 19.1719 11.0156C19.7812 11.0156 20.2969 11.0156 20.5781 11.0625V7.73438C20.0156 7.59375 18.7031 7.45312 17.9531 7.45312C13.9688 7.45312 12.0938 9.32812 12.0938 13.4062V15H9.60938V18.6562H12.0938V26.6719C6.89062 25.3594 3 20.625 3 15C3 8.39062 8.39062 3 15 3C21.6094 3 27 8.39062 27 15Z" fill="#112E52"/>
</svg>
