<svg width="29" height="29" viewBox="0 0 29 29" fill="none" xmlns="http://www.w3.org/2000/svg">
<path d="M5.64706 7.47059C5.64706 5.92647 6.92647 4.64706 8.47059 4.64706H22.5882C24.1324 4.64706 25.4118 5.92647 25.4118 7.47059V18.7647C25.4118 20.3088 24.1324 21.5882 22.5882 21.5882H8.47059C6.92647 21.5882 5.64706 20.3088 5.64706 18.7647V7.47059ZM2.47059 8.88235C3.04412 8.88235 3.52941 9.36764 3.52941 9.94117V23C3.52941 23.3971 3.83824 23.7059 4.2353 23.7059H20.1177C20.6912 23.7059 21.1765 24.1912 21.1765 24.7647C21.1765 25.3382 20.6912 25.8235 20.1177 25.8235H4.2353C2.69118 25.8235 1.41177 24.5441 1.41177 23V9.94117C1.41177 9.36764 1.89706 8.88235 2.47059 8.88235ZM9.88235 10.2941C10.6765 10.2941 11.2941 9.67647 11.2941 8.88235C11.2941 8.08823 10.6765 7.47059 9.88235 7.47059C9.08824 7.47059 8.47059 8.08823 8.47059 8.88235C8.47059 9.67647 9.08824 10.2941 9.88235 10.2941ZM18.5735 10.8235C18.3529 10.4706 18 10.2941 17.6471 10.2941C17.2941 10.2941 16.9412 10.4706 16.7647 10.8235L14.25 14.8824L13.1912 13.5147C12.9706 13.25 12.6618 13.1176 12.3529 13.1176C12.0441 13.1176 11.7353 13.25 11.5147 13.5147L8.69118 17.0441C8.47059 17.3529 8.38235 17.7941 8.55883 18.1471C8.7353 18.5441 9.13235 18.7647 9.52941 18.7647H21.5294C21.9265 18.7647 22.2794 18.5441 22.4559 18.2353C22.6324 17.8824 22.6324 17.4853 22.4118 17.1324L18.5294 10.7794L18.5735 10.8235Z" fill="white"/>
</svg>
