<svg width="30" height="30" viewBox="0 0 30 30" fill="none" xmlns="http://www.w3.org/2000/svg">
<path d="M24 4.5C24.8438 4.5 25.5 5.20312 25.5 6V24C25.5 24.8438 24.8438 25.5 24 25.5H6C5.15625 25.5 4.5 24.8438 4.5 24V6C4.5 5.20312 5.15625 4.5 6 4.5H24ZM10.8281 22.5H10.875V12.4688H7.73438V22.5H10.8281ZM9.28125 7.5C8.29688 7.5 7.5 8.29688 7.5 9.32812C7.5 10.3125 8.29688 11.1094 9.28125 11.1094C10.2656 11.1094 11.1094 10.3125 11.1094 9.32812C11.1094 8.29688 10.2656 7.5 9.28125 7.5ZM22.5 22.5V17.0156C22.5 14.2969 21.9375 12.2344 18.7969 12.2344C17.25 12.2344 16.2656 13.0781 15.8438 13.8281H15.7969V12.4688H12.7969V22.5H15.9375V17.5312C15.9375 16.2188 16.1719 14.9531 17.7656 14.9531C19.3594 14.9531 19.4062 16.4531 19.4062 17.625V22.5H22.5Z" fill="#112E52"/>
</svg>
