<svg width="30" height="30" viewBox="0 0 30 30" fill="none" xmlns="http://www.w3.org/2000/svg">
<path d="M15 9.60938C18 9.60938 20.3906 12.0469 20.3906 15C20.3906 18 17.9531 20.3906 15 20.3906C12 20.3906 9.60938 17.9531 9.60938 15C9.60938 12 12.0469 9.60938 15 9.60938ZM15 11.4844C13.0312 11.5312 11.4844 13.0781 11.4844 15C11.5312 16.9688 13.0781 18.5156 15 18.5156C16.9688 18.4688 18.5156 16.9219 18.5156 15C18.4688 13.0312 16.9219 11.4844 15 11.4844ZM19.3594 9.375C19.3594 10.0781 19.9219 10.6406 20.625 10.6406C21.3281 10.6406 21.8906 10.0781 21.8906 9.375C21.8906 8.67188 21.3281 8.15625 20.625 8.15625C19.9219 8.15625 19.3594 8.67188 19.3594 9.375ZM25.4531 10.6875C25.5469 12.4219 25.5469 17.5781 25.4531 19.3125C25.3594 21 24.9844 22.5 23.7656 23.7188C22.5 24.9844 21.0469 25.3594 19.3594 25.4062C17.625 25.5469 12.4219 25.5469 10.6875 25.4062C9 25.3594 7.5 24.9375 6.28125 23.7188C5.0625 22.5 4.64062 21 4.59375 19.3125C4.5 17.5781 4.5 12.375 4.59375 10.6406C4.6875 9 5.0625 7.5 6.28125 6.28125C7.5 5.01562 9 4.64062 10.6875 4.54688C12.4219 4.45312 17.625 4.45312 19.3594 4.54688C21.0469 4.64062 22.5 5.01562 23.7656 6.28125C24.9844 7.5 25.3594 9 25.4531 10.6875ZM23.2031 21.1875C23.7656 19.8281 23.625 16.5469 23.625 15C23.625 13.4531 23.7656 10.1719 23.2031 8.8125C22.8281 7.875 22.125 7.17188 21.1875 6.79688C19.8281 6.28125 16.5469 6.375 15 6.375C13.5 6.375 10.2188 6.28125 8.8125 6.79688C7.92188 7.17188 7.17188 7.875 6.84375 8.8125C6.28125 10.1719 6.42188 13.4531 6.42188 15C6.42188 16.5469 6.28125 19.8281 6.84375 21.1875C7.21875 22.125 7.92188 22.8281 8.8125 23.2031C10.2188 23.7188 13.5 23.625 15 23.625C16.5469 23.625 19.8281 23.7188 21.1875 23.2031C22.125 22.8281 22.8281 22.125 23.2031 21.1875Z" fill="#112E52"/>
</svg>
