<svg width="60" height="60" viewBox="0 0 60 60" fill="none" xmlns="http://www.w3.org/2000/svg">
<path d="M54 25.5H48V43.5H51V46.5H9V43.5H12V25.5H6V21L30 6L54 21V25.5ZM37.5 25.5V43.5H45V25.5H37.5ZM25.5 43.5H34.5V25.5H25.5V43.5ZM25.2188 22.5C24.9375 21.8438 24.75 21.0938 24.75 20.25C24.75 17.3438 27.0938 15 30 15C32.9062 15 35.25 17.3438 35.25 20.25C35.25 21.0938 35.0625 21.8438 34.7812 22.5H50.7188L30 9.5625L9.28125 22.5H25.2188ZM30 22.5C31.2188 22.5 32.25 21.4688 32.25 20.25C32.25 19.0312 31.2188 18 30 18C28.7812 18 27.75 19.0312 27.75 20.25C27.75 21.4688 28.7812 22.5 30 22.5ZM15 25.5V43.5H22.5V25.5H15ZM7.5 51H54V54H6V51H7.5Z" fill="#FDB71A"/>
</svg>
