<svg width="60" height="60" viewBox="0 0 60 60" fill="none" xmlns="http://www.w3.org/2000/svg">
<path d="M30 51C30.0938 51 30.2812 51 30.375 51C30.6562 50.8125 31.125 50.5312 31.6875 49.9688C32.8125 48.9375 33.9375 47.4375 35.0625 45.375C37.125 41.625 38.7188 36.6562 39 31.5H21C21.2812 36.6562 22.875 41.625 24.9375 45.375C26.0625 47.4375 27.1875 48.9375 28.3125 49.9688C28.875 50.5312 29.3438 50.8125 29.625 51C29.7188 51 29.9062 51 30 51ZM21 28.5H21.0938H39C38.7188 23.3438 37.125 18.375 35.0625 14.625C33.9375 12.6562 32.8125 11.0625 31.6875 10.0312C31.125 9.46875 30.6562 9.1875 30.375 9C30.0938 9 29.9062 9 29.625 9C29.3438 9.1875 28.875 9.46875 28.3125 10.0312C27.1875 11.0625 26.0625 12.6562 24.9375 14.625C22.875 18.375 21.2812 23.3438 21 28.5ZM42 31.5C41.625 39.0938 38.7188 46.125 35.4375 50.25C43.9688 48 50.3438 40.5938 50.9062 31.5H42ZM50.9062 28.5C50.3438 19.5 43.9688 12 35.4375 9.75C38.7188 13.875 41.625 20.9062 42 28.5H50.9062ZM18 28.5C18.375 20.9062 21.375 13.875 24.5625 9.75C16.0312 12 9.65625 19.5 9.09375 28.5H18ZM9.09375 31.5C9.65625 40.5938 16.0312 48 24.5625 50.25C21.375 46.125 18.375 39.0938 18 31.5H9.09375ZM30 54C16.7812 54 6 43.2188 6 30C6 16.7812 16.7812 6 30 6C43.2188 6 54 16.7812 54 30C54 43.2188 43.2188 54 30 54Z" fill="#FDB71A"/>
</svg>
