<svg width="25" height="25" viewBox="0 0 25 25" fill="none" xmlns="http://www.w3.org/2000/svg">
<path d="M17.5 10C16.5625 10 15.6641 9.64844 15 9.0625L9.96094 11.875C10 12.0703 10 12.3047 10 12.5C10 12.7344 10 12.9297 9.96094 13.125L15 15.9375C15.6641 15.3516 16.5625 15 17.5 15C19.5703 15 21.25 16.6797 21.25 18.75C21.25 20.8203 19.5703 22.5 17.5 22.5C15.4297 22.5 13.75 20.8203 13.75 18.75C13.75 18.5547 13.75 18.3203 13.7891 18.125L8.75 15.3125C8.08594 15.8984 7.1875 16.25 6.25 16.25C4.17969 16.25 2.5 14.5703 2.5 12.5C2.5 10.4297 4.17969 8.75 6.25 8.75C7.1875 8.75 8.08594 9.10156 8.75 9.6875L13.7891 6.875C13.7891 6.67969 13.75 6.44531 13.75 6.25C13.75 4.17969 15.4297 2.5 17.5 2.5C19.5703 2.5 21.25 4.17969 21.25 6.25C21.25 8.32031 19.5703 10 17.5 10Z" fill="#112E52"/>
</svg>
