<svg width="40" height="40" viewBox="0 0 40 40" fill="none" xmlns="http://www.w3.org/2000/svg">
<path d="M20 12.8125C24 12.8125 27.1875 16.0625 27.1875 20C27.1875 24 23.9375 27.1875 20 27.1875C16 27.1875 12.8125 23.9375 12.8125 20C12.8125 16 16.0625 12.8125 20 12.8125ZM20 15.3125C17.375 15.375 15.3125 17.4375 15.3125 20C15.375 22.625 17.4375 24.6875 20 24.6875C22.625 24.625 24.6875 22.5625 24.6875 20C24.625 17.375 22.5625 15.3125 20 15.3125ZM25.8125 12.5C25.8125 13.4375 26.5625 14.1875 27.5 14.1875C28.4375 14.1875 29.1875 13.4375 29.1875 12.5C29.1875 11.5625 28.4375 10.875 27.5 10.875C26.5625 10.875 25.8125 11.5625 25.8125 12.5ZM33.9375 14.25C34.0625 16.5625 34.0625 23.4375 33.9375 25.75C33.8125 28 33.3125 30 31.6875 31.625C30 33.3125 28.0625 33.8125 25.8125 33.875C23.5 34.0625 16.5625 34.0625 14.25 33.875C12 33.8125 10 33.25 8.375 31.625C6.75 30 6.1875 28 6.125 25.75C6 23.4375 6 16.5 6.125 14.1875C6.25 12 6.75 10 8.375 8.375C10 6.6875 12 6.1875 14.25 6.0625C16.5625 5.9375 23.5 5.9375 25.8125 6.0625C28.0625 6.1875 30 6.6875 31.6875 8.375C33.3125 10 33.8125 12 33.9375 14.25ZM30.9375 28.25C31.6875 26.4375 31.5 22.0625 31.5 20C31.5 17.9375 31.6875 13.5625 30.9375 11.75C30.4375 10.5 29.5 9.5625 28.25 9.0625C26.4375 8.375 22.0625 8.5 20 8.5C18 8.5 13.625 8.375 11.75 9.0625C10.5625 9.5625 9.5625 10.5 9.125 11.75C8.375 13.5625 8.5625 17.9375 8.5625 20C8.5625 22.0625 8.375 26.4375 9.125 28.25C9.625 29.5 10.5625 30.4375 11.75 30.9375C13.625 31.625 18 31.5 20 31.5C22.0625 31.5 26.4375 31.625 28.25 30.9375C29.5 30.4375 30.4375 29.5 30.9375 28.25Z" fill="#184376"/>
</svg>
