<svg width="40" height="40" viewBox="0 0 40 40" fill="none" xmlns="http://www.w3.org/2000/svg">
<path d="M36.375 11.75C37.0625 14.4375 37.0625 20 37.0625 20C37.0625 20 37.0625 25.625 36.375 28.3125C36 29.75 34.8125 30.875 33.375 31.3125C30.6875 32 20 32 20 32C20 32 9.3125 32 6.6875 31.3125C5.1875 30.875 4.0625 29.75 3.625 28.3125C2.9375 25.625 2.9375 20 2.9375 20C2.9375 20 2.9375 14.4375 3.625 11.75C4.0625 10.25 5.1875 9.125 6.6875 8.75C9.3125 8 20 8 20 8C20 8 30.6875 8 33.3125 8.75C34.8125 9.125 36 10.25 36.375 11.75ZM16.5 25.125L25.4375 20L16.5 14.9375V25.125Z" fill="#184376"/>
</svg>
