<svg width="40" height="40" viewBox="0 0 40 40" fill="none" xmlns="http://www.w3.org/2000/svg">
<path d="M32 6C33.125 6 34 6.9375 34 8V32C34 33.125 33.125 34 32 34H8C6.875 34 6 33.125 6 32V8C6 6.9375 6.875 6 8 6H32ZM14.4375 30H14.5V16.625H10.3125V30H14.4375ZM12.375 10C11.0625 10 10 11.0625 10 12.4375C10 13.75 11.0625 14.8125 12.375 14.8125C13.6875 14.8125 14.8125 13.75 14.8125 12.4375C14.8125 11.0625 13.6875 10 12.375 10ZM30 30V22.6875C30 19.0625 29.25 16.3125 25.0625 16.3125C23 16.3125 21.6875 17.4375 21.125 18.4375H21.0625V16.625H17.0625V30H21.25V23.375C21.25 21.625 21.5625 19.9375 23.6875 19.9375C25.8125 19.9375 25.875 21.9375 25.875 23.5V30H30Z" fill="#184376"/>
</svg>
