<svg width="40" height="40" viewBox="0 0 40 40" fill="none" xmlns="http://www.w3.org/2000/svg">
<path d="M36 20C36 28.1875 29.875 34.9375 21.9375 35.875V24.875H26.25L27.1875 20H21.9375V18.25C21.9375 15.6875 22.9375 14.6875 25.5625 14.6875C26.375 14.6875 27.0625 14.6875 27.4375 14.75V10.3125C26.6875 10.125 24.9375 9.9375 23.9375 9.9375C18.625 9.9375 16.125 12.4375 16.125 17.875V20H12.8125V24.875H16.125V35.5625C9.1875 33.8125 4 27.5 4 20C4 11.1875 11.1875 4 20 4C28.8125 4 36 11.1875 36 20Z" fill="#184376"/>
</svg>
