<svg xmlns="http://www.w3.org/2000/svg" version="1.1" xmlns:xlink="http://www.w3.org/1999/xlink" width="1000" height="1000"><g clip-path="url(#SvgjsClipPath1068)"><rect width="1000" height="1000" fill="#ffffff"></rect><g transform="matrix(14.285714285714286,0,0,14.285714285714286,100,100)"><svg xmlns="http://www.w3.org/2000/svg" version="1.1" xmlns:xlink="http://www.w3.org/1999/xlink" width="56" height="56"><svg width="56" height="56" viewBox="0 0 56 56" fill="none" xmlns="http://www.w3.org/2000/svg">
<path d="M1.06203 27.9233C1.06203 28.8251 1.10655 29.7397 1.19557 30.6478C2.46727 43.4071 12.5964 53.5697 25.2816 54.8041C26.1591 54.8872 27.0429 54.932 27.9076 54.932C28.7724 54.932 29.6626 54.8872 30.5337 54.8041C43.2253 53.5633 53.3544 43.4007 54.6198 30.6478C54.7088 29.7397 54.7533 28.8251 54.7533 27.9233V1.06812H1.04932V27.9233H1.06203Z" fill="#004278"></path>
<path d="M55.1092 0H0V27.9233C0 28.8634 0.0445103 29.81 0.139888 30.7501C1.46246 44.0146 11.9921 54.5802 25.186 55.8657C26.0953 55.9552 27.0173 56 27.9202 56C28.8231 56 29.7451 55.9552 30.6544 55.8657C43.8483 54.5738 54.378 44.0146 55.7005 30.7501C55.7959 29.81 55.8404 28.857 55.8404 27.9233V0H55.1092ZM54.7722 1.06807V25.3458H46.6842C45.5205 16.942 38.9141 10.2969 30.559 9.12654V1.06807H54.7722ZM25.2814 30.6542V41.5331C19.8322 40.4587 15.5275 36.1352 14.4656 30.6542H25.2814ZM14.4592 25.3458C15.5275 19.8648 19.8258 15.5349 25.2751 14.4669V25.3458H14.4592ZM30.559 30.6542H41.3748C40.3066 36.1352 36.0082 40.4651 30.559 41.5331V30.6542ZM30.559 25.3458V14.4669C36.0082 15.5413 40.313 19.8648 41.3748 25.3458H30.559ZM25.2814 1.06807V9.12654C16.9263 10.2969 10.3199 16.942 9.15625 25.3458H1.06822V1.06807H25.2814ZM1.20175 30.6542H9.15625C10.3199 39.058 16.9263 45.7031 25.2814 46.8735V54.804C12.6026 53.5569 2.47981 43.407 1.20175 30.6542ZM30.559 54.804V46.8735C38.9141 45.7031 45.5205 39.058 46.6842 30.6542H54.6387C53.367 43.407 43.2442 53.5569 30.559 54.804Z" fill="#FDB913"></path>
</svg></svg></g></g><defs><clipPath id="SvgjsClipPath1068"><rect width="1000" height="1000" x="0" y="0" rx="0" ry="0"></rect></clipPath></defs></svg>