<svg width="180" height="60" viewBox="0 0 180 60" fill="none" xmlns="http://www.w3.org/2000/svg">
<path d="M73.9 25.1001C69.4048 32.2477 66.4571 40.0525 65.0571 48.5002H73.9V25.1001Z" fill="#2E3092"/>
<path d="M87.9048 26.8477C88.7476 24.943 89.9524 23.3382 91.5286 22.0287C93.1 20.7239 94.8857 20.0668 96.8762 20.0668C98.2048 20.0668 99.4238 20.3525 100.529 20.9287C101.633 21.5049 102.6 22.2811 103.419 23.2525C104.238 24.2287 104.867 25.3572 105.314 26.6382C105.757 27.9239 105.976 29.2715 105.976 30.6906C105.976 32.1096 105.743 33.4382 105.281 34.6763C104.814 35.9192 104.162 37.0001 103.319 37.9335C102.476 38.862 101.457 39.6049 100.262 40.1573C99.0667 40.7144 97.7572 40.9859 96.3429 40.9859C95.5 40.9859 94.6381 40.843 93.7524 40.5525C92.8667 40.2668 92.0476 39.8668 91.2952 39.3573C90.5429 38.8478 89.8667 38.2382 89.2667 37.5287C88.6714 36.8192 88.2143 36.0239 87.9048 35.1382V26.8334V26.8477ZM86.7762 48.5002V41.862C87.9714 43.943 89.6095 45.5859 91.6952 46.7811C93.7762 47.9763 96.1476 48.5764 98.8048 48.5764C101.105 48.5764 103.257 48.1097 105.248 47.1811C107.243 46.2525 108.967 44.9763 110.429 43.3621C111.89 41.7478 113.029 39.8525 113.852 37.6811C114.671 35.5097 115.081 33.162 115.081 30.6382C115.081 28.1144 114.714 25.8763 113.986 23.662C113.257 21.4477 112.214 19.5191 110.862 17.881C109.51 16.2429 107.905 14.9334 106.043 13.962C104.181 12.9858 102.124 12.5001 99.8619 12.5001C97.1619 12.5001 94.8 13.0858 92.7857 14.262C90.7714 15.4382 89.1429 17.0858 87.9048 19.2096V9.21436C84.681 11.8477 81.7143 14.8001 79 18.0715V48.5049H86.7762V48.5002Z" fill="#2E3092"/>
<path d="M126.495 19.6717C127.515 19.0527 128.776 18.7431 130.281 18.7431C131.919 18.7431 133.567 19.0527 135.229 19.6717C136.891 20.2908 138.605 21.2669 140.376 22.5955L143.962 17.2146C142.057 15.5336 139.962 14.3146 137.686 13.5622C135.405 12.8098 132.957 12.4336 130.343 12.4336C128.619 12.4336 127.01 12.6431 125.51 13.0574C125.567 15.2574 125.724 17.5955 126.019 20.0241C126.162 19.9003 126.315 19.7765 126.486 19.6717" fill="#00ADD8"/>
<path d="M145.3 37.5429C145.3 36.081 145.043 34.8286 144.533 33.7905C144.024 32.7524 143.229 31.8286 142.143 31.0334C141.057 30.2381 139.662 29.5286 137.957 28.9095C136.253 28.2905 134.205 27.6714 131.81 27.0476C130.524 26.7381 129.453 26.4381 128.586 26.1524C127.933 25.9333 127.376 25.7095 126.91 25.481C127.453 28.1333 128.176 30.8667 129.119 33.6381C131.8 34.3857 133.738 35.0476 134.929 35.6191C136.124 36.1953 136.724 37.1 136.724 38.3429C136.724 39.5858 136.214 40.5334 135.195 41.2C134.529 41.6381 133.695 41.9239 132.705 42.0762C133.733 44.0762 134.895 46.0715 136.205 48.0524C138.276 47.5715 140.043 46.762 141.505 45.6191C144.029 43.6477 145.291 40.9572 145.291 37.5477" fill="#00ADD8"/>
<path d="M126.867 41.6336C126.248 41.4669 125.629 41.2717 125.005 41.0288C122.991 40.2526 120.919 39.1145 118.791 37.605L115.467 43.1859C117.462 44.9145 119.853 46.2431 122.643 47.1717C125.257 48.0431 127.924 48.5002 130.653 48.5526C130.495 48.305 130.338 48.0574 130.186 47.805C128.962 45.7812 127.857 43.7193 126.862 41.624" fill="#2E3092"/>
<path d="M117.695 19.1383C117.009 20.5574 116.667 22.1526 116.667 23.9193C116.667 25.2479 116.886 26.3907 117.328 27.3431C117.771 28.2955 118.481 29.1383 119.452 29.8669C120.381 30.5622 121.6 31.1907 123.1 31.7479C121.833 27.4098 121.009 22.924 120.619 18.305C120.543 17.4097 120.495 16.5145 120.452 15.624C119.276 16.6002 118.352 17.7716 117.69 19.1383" fill="#2E3092"/>
<path d="M173.852 14.9189C173.348 14.6141 172.824 14.338 172.286 14.0903C172.809 17.1761 173.138 20.2713 173.252 23.3856L179.867 21.3665C178.538 18.7094 176.533 16.5618 173.852 14.9237" fill="#2E3092"/>
<path d="M180 39.505L172.319 37.1621C171.691 40.8193 170.767 44.4002 169.543 47.9145C171.195 47.4955 172.71 46.8621 174.086 46.0193C176.833 44.3383 178.805 42.1669 180 39.5097" fill="#2E3092"/>
<path d="M164.214 48.5382C165.2 46.0858 166.114 43.4001 166.866 40.5096C165.976 40.8144 165.038 40.9667 164.052 40.9667C162.809 40.9667 161.638 40.7144 160.528 40.2001C159.419 39.6906 158.457 38.9715 157.638 38.0429C156.819 37.1144 156.166 36.0048 155.676 34.7191C155.19 33.4334 154.947 32.0191 154.947 30.4667C154.947 28.9143 155.181 27.5 155.643 26.2143C156.109 24.9286 156.752 23.8334 157.571 22.9238C158.39 22.0191 159.352 21.3096 160.462 20.8C161.571 20.2905 162.766 20.0334 164.052 20.0334C165.557 20.0334 166.928 20.3762 168.171 21.0619C168.424 21.2048 168.662 21.3572 168.895 21.5238C168.771 18.7048 168.462 15.781 167.924 12.7667C166.724 12.5619 165.457 12.4619 164.119 12.4619C161.286 12.4619 158.738 12.9476 156.476 13.9238C154.219 14.9 152.29 16.2048 150.695 17.8429C149.1 19.481 147.881 21.3857 147.043 23.5572C146.2 25.7286 145.781 28.0334 145.781 30.4667C145.781 32.9001 146.214 35.1477 147.076 37.3429C147.938 39.5382 149.166 41.462 150.762 43.1239C152.357 44.7858 154.281 46.1001 156.543 47.0763C158.8 48.0525 161.347 48.5382 164.181 48.5382H164.209" fill="#00ADD8"/>
<path d="M73.9004 13.6855H64.9956V32.0523C67.3432 26.5237 70.3147 21.457 73.9004 16.857V13.6903V13.6855Z" fill="#00ADD8"/>
<path d="M87.9048 0.0854492H79V11.0379C81.7048 8.28547 84.6714 5.72832 87.9048 3.37117V0.0854492Z" fill="#00ADD8"/>
<path d="M69.4476 9.12383C71.9667 9.12383 74.0096 7.08097 74.0096 4.56192C74.0096 2.04286 71.9667 0 69.4476 0C66.9286 0 64.8857 2.04286 64.8857 4.56192C64.8857 7.08097 66.9286 9.12383 69.4476 9.12383Z" fill="#00ADD8"/>
<path d="M65.0811 58.3574H66.043V54.605H65.0811V58.3574ZM65.0811 54.0764H66.043V53.124H65.0811V54.0764Z" fill="#2E3092"/>
<path d="M70.1907 58.3524H69.2335V56.2476C69.2335 55.9476 69.1811 55.7286 69.0764 55.5905C68.9716 55.4524 68.824 55.3809 68.6383 55.3809C68.543 55.3809 68.4431 55.4 68.3431 55.4381C68.2431 55.4762 68.1478 55.5286 68.0573 55.6C67.9716 55.6667 67.8907 55.7524 67.8192 55.8476C67.7478 55.9429 67.6954 56.0476 67.6621 56.1619V58.3524H66.7002V54.6H67.5669V55.2952C67.705 55.0571 67.905 54.8714 68.1669 54.7381C68.4288 54.6048 68.724 54.5381 69.0573 54.5381C69.2907 54.5381 69.4811 54.5809 69.6288 54.6667C69.7764 54.7524 69.8907 54.8619 69.9716 55.0048C70.0526 55.1429 70.1097 55.3 70.1383 55.4762C70.1716 55.6524 70.1859 55.8333 70.1859 56.0143V58.3571L70.1907 58.3524Z" fill="#2E3092"/>
<path d="M72.9955 58.1619C72.8669 58.2191 72.7098 58.2762 72.5241 58.3334C72.3383 58.3905 72.1431 58.4191 71.9383 58.4191C71.805 58.4191 71.6812 58.4048 71.5622 58.3715C71.4479 58.3381 71.3431 58.2858 71.2526 58.2096C71.1669 58.1334 71.0955 58.0381 71.0431 57.9238C70.9907 57.8096 70.9669 57.6667 70.9669 57.5V55.3429H70.4717V54.6048H70.9669V53.3857H71.9241V54.6048H72.7145V55.3429H71.9241V57.1762C71.9241 57.3096 71.9574 57.4048 72.0288 57.4619C72.0955 57.5143 72.1812 57.5429 72.286 57.5429C72.3907 57.5429 72.4812 57.5238 72.5812 57.4905C72.6764 57.4572 72.7526 57.4286 72.8098 57.4048L73.005 58.1619H72.9955Z" fill="#2E3092"/>
<path d="M75.9288 56.1619C75.905 55.8809 75.8003 55.6524 75.6193 55.4857C75.4336 55.3143 75.2098 55.2286 74.9479 55.2286C74.8193 55.2286 74.7003 55.2524 74.586 55.2952C74.4717 55.3429 74.3717 55.4048 74.2907 55.4857C74.205 55.5667 74.1336 55.6619 74.0764 55.7809C74.0193 55.9 73.9907 56.0238 73.9812 56.1619H75.9288ZM74.9526 58.4238C74.6526 58.4238 74.3812 58.3714 74.1336 58.2714C73.8907 58.1667 73.6812 58.0286 73.5098 57.8524C73.3383 57.6762 73.205 57.4714 73.1098 57.2381C73.0193 57.0048 72.9717 56.7571 72.9717 56.5C72.9717 56.2429 73.0193 55.9809 73.1098 55.7429C73.2002 55.5048 73.3336 55.3 73.505 55.119C73.6764 54.9428 73.886 54.8 74.1288 54.6952C74.3764 54.5905 74.6526 54.5381 74.9574 54.5381C75.2622 54.5381 75.5383 54.5905 75.7764 54.6952C76.0193 54.8 76.2241 54.9428 76.3955 55.119C76.5622 55.2952 76.6955 55.5 76.7812 55.7333C76.8669 55.9667 76.9145 56.2095 76.9145 56.4619C76.9145 56.5238 76.9145 56.5857 76.9145 56.6429C76.9145 56.7 76.905 56.7476 76.8955 56.7857H73.9955C74.0098 56.9333 74.0431 57.0619 74.105 57.181C74.1622 57.2952 74.2383 57.3952 74.3288 57.4762C74.4193 57.5571 74.5241 57.619 74.6383 57.6619C74.7526 57.7048 74.8717 57.7238 74.9955 57.7238C75.186 57.7238 75.3669 57.6762 75.5383 57.5857C75.705 57.4905 75.8241 57.3714 75.886 57.219L76.7098 57.4476C76.5717 57.7333 76.3526 57.9667 76.0479 58.1524C75.7431 58.3381 75.3812 58.4286 74.9622 58.4286" fill="#2E3092"/>
<path d="M79.5525 55.4334C79.2621 55.4382 79.0002 55.4954 78.7716 55.6001C78.543 55.7049 78.3764 55.8668 78.2764 56.0811V58.3525H77.3145V54.6001H78.1954V55.4001C78.2621 55.2715 78.3383 55.1573 78.4335 55.0525C78.524 54.9477 78.6192 54.8573 78.7287 54.7811C78.8335 54.7049 78.943 54.6477 79.0478 54.6049C79.1573 54.562 79.2621 54.543 79.3621 54.543H79.4811C79.5049 54.543 79.5287 54.543 79.5573 54.5477V55.4239L79.5525 55.4334Z" fill="#2E3092"/>
<path d="M83.3289 58.3524H82.367V56.2476C82.367 55.9476 82.3146 55.7286 82.2098 55.5905C82.105 55.4524 81.9574 55.3809 81.7717 55.3809C81.6765 55.3809 81.5765 55.4 81.4765 55.4381C81.3765 55.4762 81.2812 55.5286 81.1955 55.6C81.1098 55.6667 81.0289 55.7524 80.9574 55.8476C80.886 55.9429 80.8336 56.0476 80.8003 56.1619V58.3524H79.8384V54.6H80.705V55.2952C80.8431 55.0571 81.0431 54.8714 81.305 54.7381C81.567 54.6048 81.8622 54.5381 82.1955 54.5381C82.4289 54.5381 82.6193 54.5809 82.7669 54.6667C82.9146 54.7524 83.0289 54.8619 83.1098 55.0048C83.1908 55.1429 83.2479 55.3 83.2765 55.4762C83.3098 55.6524 83.3241 55.8333 83.3241 56.0143V58.3571L83.3289 58.3524Z" fill="#2E3092"/>
<path d="M85.2667 57.7242C85.4286 57.7242 85.581 57.6956 85.7286 57.6385C85.8763 57.5813 85.9858 57.5051 86.0667 57.4099C86.1715 57.3289 86.2239 57.2385 86.2239 57.1385V56.7099C86.1096 56.667 85.9858 56.6337 85.8524 56.6051C85.7191 56.5813 85.5905 56.567 85.4667 56.567C85.2191 56.567 85.0144 56.6242 84.8572 56.7337C84.7001 56.848 84.6191 56.9861 84.6191 57.1575C84.6191 57.3289 84.681 57.4527 84.8048 57.5623C84.9286 57.667 85.081 57.7242 85.262 57.7242M84.9953 58.4242C84.8144 58.4242 84.6429 58.3956 84.4858 58.3337C84.3286 58.2766 84.1905 58.1908 84.0763 58.0813C83.962 57.9718 83.8715 57.848 83.8096 57.7051C83.7477 57.5623 83.7144 57.4051 83.7144 57.2337C83.7144 57.0623 83.7525 56.8956 83.8334 56.7432C83.9144 56.5956 84.0239 56.467 84.162 56.3623C84.3048 56.2575 84.4715 56.1766 84.6667 56.1146C84.862 56.0527 85.0763 56.0242 85.3144 56.0242C85.481 56.0242 85.6429 56.0385 85.8048 56.067C85.962 56.0956 86.1048 56.1337 86.2334 56.1908V55.9766C86.2334 55.7289 86.162 55.5385 86.0191 55.4051C85.8763 55.2718 85.6715 55.2051 85.3905 55.2051C85.1905 55.2051 84.9953 55.2385 84.8048 55.3099C84.6144 55.3813 84.4191 55.4861 84.2191 55.6242L83.9239 55.0146C84.4096 54.6908 84.9286 54.5337 85.4858 54.5337C86.0429 54.5337 86.4429 54.667 86.7429 54.9289C87.0429 55.1956 87.1905 55.5766 87.1905 56.0813V57.248C87.1905 57.348 87.2096 57.4194 87.2429 57.4623C87.2763 57.5051 87.3382 57.5289 87.4191 57.5337V58.3528C87.2572 58.3861 87.1144 58.4004 86.9953 58.4004C86.8144 58.4004 86.6715 58.3575 86.5763 58.2766C86.4763 58.1956 86.4191 58.0861 86.3905 57.9527L86.3715 57.748C86.2048 57.967 86.0001 58.1337 85.762 58.248C85.5239 58.3623 85.2667 58.4194 84.9953 58.4194" fill="#2E3092"/>
<path d="M90.0378 58.1619C89.9093 58.2191 89.7521 58.2762 89.5664 58.3334C89.3807 58.3905 89.1855 58.4191 88.9807 58.4191C88.8474 58.4191 88.7236 58.4048 88.6045 58.3715C88.4902 58.3381 88.3855 58.2858 88.295 58.2096C88.2093 58.1334 88.1378 58.0381 88.0855 57.9238C88.0331 57.8096 88.0045 57.6667 88.0045 57.5V55.3429H87.5093V54.6048H88.0045V53.3857H88.9664V54.6048H89.7569V55.3429H88.9664V57.1762C88.9664 57.3096 88.9998 57.4048 89.0712 57.4619C89.1378 57.5143 89.2236 57.5429 89.3236 57.5429C89.4236 57.5429 89.5236 57.5238 89.6188 57.4905C89.714 57.4572 89.7902 57.4286 89.8474 57.4048L90.0426 58.1619H90.0378Z" fill="#2E3092"/>
<path d="M90.3096 58.3574H91.2667V54.605H90.3096V58.3574ZM90.3096 54.0764H91.2667V53.124H90.3096V54.0764Z" fill="#2E3092"/>
<path d="M92.7001 56.4857C92.7001 56.6524 92.7239 56.8048 92.7763 56.9381C92.8239 57.0762 92.8953 57.1952 92.9858 57.2952C93.0715 57.3952 93.1763 57.4714 93.2953 57.5286C93.4144 57.5809 93.5429 57.6095 93.681 57.6095C93.8191 57.6095 93.9477 57.5809 94.0667 57.5286C94.1858 57.4714 94.2905 57.3952 94.381 57.2952C94.4667 57.1952 94.5382 57.0762 94.5905 56.9381C94.6382 56.8 94.6667 56.6476 94.6667 56.4809C94.6667 56.3143 94.6429 56.1667 94.5905 56.0286C94.5429 55.8905 94.4715 55.7714 94.381 55.6714C94.2905 55.5714 94.1905 55.4952 94.0667 55.4381C93.9477 55.3809 93.8191 55.3571 93.681 55.3571C93.5429 55.3571 93.4144 55.3857 93.2953 55.4429C93.1763 55.5 93.0715 55.5809 92.9858 55.6809C92.8953 55.7809 92.8286 55.9 92.7763 56.0381C92.7286 56.1762 92.7001 56.3286 92.7001 56.4905M93.6858 58.4238C93.381 58.4238 93.1048 58.3714 92.862 58.2667C92.6191 58.1619 92.4144 58.019 92.2429 57.8429C92.0763 57.6619 91.9429 57.4571 91.8524 57.2238C91.762 56.9905 91.7144 56.7429 91.7144 56.4857C91.7144 56.2286 91.762 55.9762 91.8524 55.7381C91.9429 55.5048 92.0763 55.3 92.2429 55.119C92.4144 54.9428 92.6191 54.8 92.862 54.6952C93.1048 54.5905 93.381 54.5381 93.6858 54.5381C93.9905 54.5381 94.2667 54.5905 94.5048 54.6952C94.7477 54.8 94.9524 54.9428 95.1191 55.119C95.2905 55.3 95.4191 55.5048 95.5096 55.7381C95.6001 55.9714 95.6477 56.219 95.6477 56.4857C95.6477 56.7524 95.6001 56.9905 95.5096 57.2238C95.4191 57.4571 95.2905 57.6619 95.1239 57.8429C94.9572 58.019 94.7524 58.1667 94.5096 58.2667C94.2667 58.3714 93.9905 58.4238 93.6858 58.4238Z" fill="#2E3092"/>
<path d="M99.5758 58.3524H98.6139V56.2476C98.6139 55.9476 98.5615 55.7286 98.4568 55.5905C98.352 55.4524 98.2044 55.3809 98.0187 55.3809C97.9234 55.3809 97.8234 55.4 97.7234 55.4381C97.6234 55.4762 97.5282 55.5286 97.4377 55.6C97.352 55.6667 97.271 55.7524 97.1996 55.8476C97.1282 55.9429 97.0758 56.0476 97.0425 56.1619V58.3524H96.0806V54.6H96.9472V55.2952C97.0853 55.0571 97.2853 54.8714 97.5472 54.7381C97.8091 54.6048 98.1044 54.5381 98.4377 54.5381C98.671 54.5381 98.8615 54.5809 99.0091 54.6667C99.1568 54.7524 99.271 54.8619 99.352 55.0048C99.4329 55.1429 99.4901 55.3 99.5187 55.4762C99.552 55.6524 99.5663 55.8333 99.5663 56.0143V58.3571L99.5758 58.3524Z" fill="#2E3092"/>
<path d="M101.519 57.7242C101.681 57.7242 101.833 57.6956 101.981 57.6385C102.129 57.5813 102.238 57.5051 102.319 57.4099C102.424 57.3289 102.476 57.2385 102.476 57.1385V56.7099C102.362 56.667 102.238 56.6337 102.105 56.6051C101.971 56.5813 101.843 56.567 101.719 56.567C101.471 56.567 101.267 56.6242 101.11 56.7337C100.952 56.848 100.871 56.9861 100.871 57.1575C100.871 57.3289 100.933 57.4527 101.057 57.5623C101.181 57.667 101.333 57.7242 101.514 57.7242M101.243 58.4242C101.062 58.4242 100.89 58.3956 100.733 58.3337C100.576 58.2766 100.438 58.1908 100.324 58.0813C100.21 57.9718 100.119 57.848 100.057 57.7051C99.9952 57.5623 99.9619 57.4051 99.9619 57.2337C99.9619 57.0623 100 56.8956 100.081 56.7432C100.162 56.5956 100.271 56.467 100.41 56.3623C100.552 56.2575 100.719 56.1766 100.914 56.1146C101.11 56.0527 101.324 56.0242 101.562 56.0242C101.729 56.0242 101.89 56.0385 102.052 56.067C102.21 56.0956 102.352 56.1337 102.476 56.1908V55.9766C102.476 55.7289 102.405 55.5385 102.267 55.4051C102.124 55.2718 101.919 55.2051 101.638 55.2051C101.438 55.2051 101.243 55.2385 101.052 55.3099C100.862 55.3813 100.667 55.4861 100.467 55.6242L100.171 55.0146C100.657 54.6908 101.176 54.5337 101.733 54.5337C102.29 54.5337 102.69 54.667 102.99 54.9289C103.29 55.1956 103.438 55.5766 103.438 56.0813V57.248C103.438 57.348 103.457 57.4194 103.49 57.4623C103.524 57.5051 103.586 57.5289 103.667 57.5337V58.3528C103.505 58.3861 103.362 58.4004 103.243 58.4004C103.062 58.4004 102.919 58.3575 102.824 58.2766C102.724 58.1956 102.667 58.0861 102.638 57.9527L102.619 57.748C102.452 57.967 102.248 58.1337 102.01 58.248C101.771 58.3623 101.514 58.4194 101.243 58.4194" fill="#2E3092"/>
<path d="M104.105 53.124H105.067V57.1526C105.067 57.2907 105.1 57.4002 105.167 57.4764C105.233 57.5526 105.329 57.5907 105.452 57.5907C105.51 57.5907 105.576 57.5812 105.643 57.5621C105.71 57.5431 105.776 57.5193 105.838 57.4907L105.967 58.2193C105.838 58.2812 105.686 58.3288 105.514 58.3621C105.343 58.3955 105.186 58.4098 105.048 58.4098C104.748 58.4098 104.514 58.3288 104.348 58.1717C104.181 58.0098 104.1 57.7812 104.1 57.4859V53.124H104.105Z" fill="#2E3092"/>
<path d="M109.614 57.6098C109.767 57.6098 109.909 57.5764 110.038 57.5193C110.167 57.4621 110.276 57.3812 110.367 57.2812C110.457 57.1812 110.529 57.0669 110.581 56.9336C110.629 56.8002 110.657 56.6574 110.657 56.505C110.657 56.3526 110.633 56.205 110.586 56.0669C110.538 55.9288 110.471 55.805 110.381 55.7002C110.29 55.5955 110.186 55.5145 110.067 55.4526C109.948 55.3907 109.814 55.3574 109.671 55.3574C109.457 55.3574 109.267 55.4288 109.095 55.5669C108.924 55.7097 108.795 55.8812 108.705 56.0859V56.9812C108.738 57.0764 108.786 57.1621 108.852 57.2383C108.914 57.3145 108.99 57.3812 109.071 57.4336C109.152 57.4907 109.238 57.5336 109.338 57.5621C109.438 57.5907 109.524 57.6098 109.619 57.6098M109.881 58.424C109.595 58.424 109.338 58.3574 109.114 58.2288C108.89 58.1002 108.714 57.924 108.586 57.7002V58.3526H107.748V53.124H108.709V55.2574C108.843 55.0288 109.019 54.8478 109.238 54.724C109.457 54.5955 109.709 54.5336 110 54.5336C110.243 54.5336 110.467 54.5859 110.667 54.6907C110.867 54.7955 111.038 54.9383 111.186 55.1145C111.329 55.2907 111.443 55.5002 111.524 55.7383C111.6 55.9764 111.643 56.2288 111.643 56.4907C111.643 56.7526 111.6 57.0145 111.509 57.2478C111.424 57.4812 111.3 57.6859 111.143 57.8621C110.986 58.0383 110.8 58.1717 110.586 58.2764C110.371 58.3764 110.138 58.424 109.89 58.424" fill="#2E3092"/>
<path d="M112.848 56.4857C112.848 56.6524 112.872 56.8048 112.924 56.9381C112.972 57.0762 113.043 57.1952 113.134 57.2952C113.219 57.3952 113.324 57.4714 113.448 57.5286C113.567 57.5809 113.696 57.6095 113.834 57.6095C113.972 57.6095 114.1 57.5809 114.219 57.5286C114.338 57.4714 114.443 57.3952 114.534 57.2952C114.619 57.1952 114.691 57.0762 114.743 56.9381C114.791 56.8 114.819 56.6476 114.819 56.4809C114.819 56.3143 114.796 56.1667 114.743 56.0286C114.696 55.8905 114.624 55.7714 114.534 55.6714C114.443 55.5714 114.343 55.4952 114.219 55.4381C114.1 55.3809 113.972 55.3571 113.834 55.3571C113.696 55.3571 113.567 55.3857 113.448 55.4429C113.329 55.5 113.224 55.5809 113.134 55.6809C113.043 55.7809 112.976 55.9 112.924 56.0381C112.876 56.1762 112.848 56.3286 112.848 56.4905M113.829 58.4238C113.524 58.4238 113.248 58.3714 113.005 58.2667C112.762 58.1619 112.557 58.019 112.386 57.8429C112.219 57.6619 112.086 57.4571 111.996 57.2238C111.905 56.9905 111.857 56.7429 111.857 56.4857C111.857 56.2286 111.905 55.9762 111.996 55.7381C112.086 55.5048 112.219 55.3 112.386 55.119C112.557 54.9428 112.762 54.8 113.005 54.6952C113.248 54.5905 113.524 54.5381 113.829 54.5381C114.134 54.5381 114.41 54.5905 114.648 54.6952C114.891 54.8 115.096 54.9428 115.262 55.119C115.434 55.3 115.562 55.5048 115.653 55.7381C115.743 55.9714 115.791 56.219 115.791 56.4857C115.791 56.7524 115.748 56.9905 115.653 57.2238C115.562 57.4571 115.434 57.6619 115.267 57.8429C115.1 58.019 114.896 58.1667 114.653 58.2667C114.41 58.3714 114.134 58.4238 113.829 58.4238Z" fill="#2E3092"/>
<path d="M116.147 59.0858C116.228 59.1096 116.304 59.1287 116.385 59.1382C116.462 59.1477 116.528 59.1573 116.581 59.1573C116.643 59.1573 116.7 59.143 116.752 59.1192C116.804 59.0953 116.852 59.0525 116.895 58.9953C116.938 58.9334 116.981 58.8525 117.024 58.7477C117.066 58.643 117.109 58.5144 117.162 58.3525L115.681 54.6001H116.671L117.69 57.5239L118.59 54.6001H119.49L117.914 59.1001C117.824 59.362 117.666 59.5763 117.447 59.7477C117.228 59.9144 116.957 60.0001 116.628 60.0001C116.552 60.0001 116.476 59.9953 116.395 59.9811C116.314 59.9668 116.233 59.9477 116.147 59.9192V59.0906V59.0858Z" fill="#2E3092"/>
<path d="M121.119 58.4239C120.805 58.4239 120.496 58.3763 120.196 58.2763C119.896 58.1763 119.638 58.0335 119.419 57.8477L119.777 57.2477C120.005 57.4096 120.229 57.5335 120.448 57.6144C120.667 57.6954 120.881 57.7382 121.096 57.7382C121.286 57.7382 121.438 57.7001 121.548 57.6287C121.658 57.5573 121.715 57.4525 121.715 57.3192C121.715 57.1858 121.653 57.0858 121.519 57.0239C121.391 56.962 121.181 56.8906 120.891 56.8096C120.648 56.743 120.438 56.6763 120.267 56.6144C120.096 56.5525 119.958 56.4811 119.853 56.4049C119.748 56.3287 119.672 56.2382 119.624 56.1335C119.577 56.0287 119.553 55.9049 119.553 55.762C119.553 55.5715 119.591 55.4001 119.667 55.2477C119.738 55.0954 119.843 54.9668 119.977 54.8573C120.11 54.7525 120.267 54.6668 120.448 54.6096C120.624 54.5525 120.824 54.5239 121.034 54.5239C121.315 54.5239 121.581 54.5668 121.824 54.6477C122.072 54.7287 122.296 54.862 122.5 55.043L122.115 55.6239C121.924 55.4811 121.738 55.3763 121.558 55.3096C121.377 55.243 121.2 55.2096 121.024 55.2096C120.862 55.2096 120.724 55.243 120.615 55.3096C120.505 55.3763 120.448 55.4858 120.448 55.6335C120.448 55.7001 120.462 55.7573 120.491 55.8001C120.515 55.843 120.558 55.8811 120.615 55.9144C120.672 55.9477 120.748 55.9811 120.838 56.0096C120.934 56.043 121.048 56.0715 121.186 56.1049C121.443 56.1715 121.662 56.2382 121.848 56.3049C122.029 56.3715 122.181 56.4477 122.296 56.5335C122.415 56.6192 122.5 56.7192 122.553 56.8287C122.61 56.943 122.634 57.0763 122.634 57.2335C122.634 57.6001 122.496 57.8906 122.224 58.1049C121.953 58.3192 121.581 58.4239 121.115 58.4239" fill="#2E3092"/>
<path d="M122.829 53.0811V54.0477H123.114L122.957 54.9239H123.538L123.791 54.062V53.0811H122.829Z" fill="#2E3092"/>
<path d="M127.367 58.4239C127.053 58.4239 126.743 58.3763 126.443 58.2763C126.143 58.1763 125.886 58.0335 125.667 57.8477L126.024 57.2477C126.253 57.4096 126.477 57.5335 126.696 57.6144C126.915 57.6954 127.129 57.7382 127.343 57.7382C127.534 57.7382 127.686 57.7001 127.796 57.6287C127.905 57.5573 127.962 57.4525 127.962 57.3192C127.962 57.1858 127.9 57.0858 127.767 57.0239C127.638 56.962 127.429 56.8906 127.138 56.8096C126.896 56.743 126.686 56.6763 126.515 56.6144C126.343 56.5525 126.205 56.4811 126.1 56.4049C125.996 56.3287 125.919 56.2382 125.872 56.1335C125.824 56.0287 125.8 55.9049 125.8 55.762C125.8 55.5715 125.838 55.4001 125.91 55.2477C125.981 55.0954 126.086 54.9668 126.219 54.8573C126.353 54.7525 126.51 54.6668 126.691 54.6096C126.872 54.5525 127.062 54.5239 127.277 54.5239C127.557 54.5239 127.824 54.5668 128.067 54.6477C128.315 54.7287 128.538 54.862 128.743 55.043L128.357 55.6239C128.167 55.4811 127.981 55.3763 127.8 55.3096C127.619 55.243 127.443 55.2096 127.267 55.2096C127.105 55.2096 126.967 55.243 126.857 55.3096C126.748 55.3763 126.696 55.4858 126.696 55.6335C126.696 55.7001 126.71 55.7573 126.734 55.8001C126.757 55.843 126.8 55.8811 126.857 55.9144C126.915 55.9477 126.991 55.9811 127.086 56.0096C127.181 56.043 127.296 56.0715 127.434 56.1049C127.691 56.1715 127.91 56.2382 128.096 56.3049C128.281 56.3715 128.429 56.4477 128.548 56.5335C128.662 56.6192 128.753 56.7192 128.805 56.8287C128.857 56.943 128.886 57.0763 128.886 57.2335C128.886 57.6001 128.753 57.8906 128.477 58.1049C128.205 58.3192 127.834 58.4239 127.367 58.4239Z" fill="#2E3092"/>
<path d="M129.071 56.4766C129.071 56.2146 129.119 55.967 129.209 55.7289C129.3 55.4956 129.433 55.2908 129.605 55.1146C129.776 54.9385 129.986 54.7956 130.228 54.6908C130.471 54.5861 130.747 54.5337 131.052 54.5337C131.462 54.5337 131.814 54.6194 132.1 54.8004C132.386 54.9813 132.605 55.2099 132.747 55.4956L131.809 55.7813C131.728 55.6432 131.619 55.5337 131.486 55.4623C131.352 55.3861 131.205 55.348 131.043 55.348C130.905 55.348 130.776 55.3766 130.657 55.4337C130.538 55.4861 130.433 55.567 130.343 55.6623C130.257 55.7623 130.186 55.8766 130.138 56.0194C130.086 56.1575 130.062 56.3099 130.062 56.4766C130.062 56.6432 130.086 56.7956 130.138 56.9337C130.19 57.0718 130.262 57.1908 130.352 57.2908C130.438 57.3908 130.543 57.467 130.662 57.5242C130.781 57.5813 130.909 57.6051 131.043 57.6051C131.214 57.6051 131.371 57.5623 131.519 57.4766C131.667 57.3908 131.767 57.2861 131.824 57.1623L132.762 57.448C132.633 57.7337 132.424 57.967 132.124 58.1528C131.828 58.3337 131.471 58.4242 131.057 58.4242C130.752 58.4242 130.476 58.3718 130.233 58.267C129.99 58.1623 129.781 58.0194 129.609 57.8432C129.438 57.6623 129.305 57.4575 129.209 57.2194C129.119 56.9813 129.071 56.7337 129.071 56.4766Z" fill="#2E3092"/>
<path d="M136.609 58.3525H135.648V56.2477C135.648 55.9525 135.595 55.7334 135.481 55.5906C135.371 55.4477 135.214 55.3763 135.014 55.3763C134.929 55.3763 134.838 55.3953 134.743 55.4334C134.648 55.4715 134.557 55.5239 134.471 55.5953C134.386 55.662 134.305 55.7477 134.233 55.843C134.162 55.9382 134.109 56.043 134.076 56.1572V58.3477H133.114V53.1191H134.076V55.2906C134.214 55.0477 134.4 54.862 134.638 54.7287C134.876 54.5953 135.138 54.5334 135.424 54.5334C135.667 54.5334 135.867 54.5763 136.019 54.6572C136.171 54.743 136.29 54.8525 136.376 54.9906C136.462 55.1287 136.524 55.2858 136.557 55.462C136.59 55.6382 136.605 55.8191 136.605 56.0049V58.3477L136.609 58.3525Z" fill="#2E3092"/>
<path d="M138.01 56.4857C138.01 56.6524 138.033 56.8048 138.086 56.9381C138.133 57.0762 138.205 57.1952 138.295 57.2952C138.381 57.3952 138.486 57.4714 138.61 57.5286C138.729 57.5809 138.857 57.6095 138.995 57.6095C139.133 57.6095 139.262 57.5809 139.381 57.5286C139.5 57.4714 139.605 57.3952 139.695 57.2952C139.781 57.1952 139.852 57.0762 139.905 56.9381C139.952 56.8 139.981 56.6476 139.981 56.4809C139.981 56.3143 139.957 56.1667 139.905 56.0286C139.857 55.8905 139.786 55.7714 139.695 55.6714C139.605 55.5714 139.505 55.4952 139.381 55.4381C139.262 55.3809 139.133 55.3571 138.995 55.3571C138.857 55.3571 138.729 55.3857 138.61 55.4429C138.49 55.5 138.386 55.5809 138.295 55.6809C138.205 55.7809 138.138 55.9 138.086 56.0381C138.038 56.1762 138.01 56.3286 138.01 56.4905M138.99 58.4238C138.686 58.4238 138.41 58.3714 138.167 58.2667C137.924 58.1619 137.719 58.019 137.548 57.8429C137.381 57.6619 137.248 57.4571 137.157 57.2238C137.067 56.9905 137.019 56.7429 137.019 56.4857C137.019 56.2286 137.067 55.9762 137.157 55.7381C137.248 55.5048 137.381 55.3 137.548 55.119C137.719 54.9428 137.924 54.8 138.167 54.6952C138.41 54.5905 138.686 54.5381 138.99 54.5381C139.295 54.5381 139.571 54.5905 139.81 54.6952C140.052 54.8 140.257 54.9428 140.424 55.119C140.595 55.3 140.724 55.5048 140.814 55.7381C140.905 55.9714 140.952 56.219 140.952 56.4857C140.952 56.7524 140.905 56.9905 140.814 57.2238C140.724 57.4571 140.595 57.6619 140.429 57.8429C140.262 58.019 140.057 58.1667 139.814 58.2667C139.571 58.3714 139.295 58.4238 138.99 58.4238Z" fill="#2E3092"/>
<path d="M142.162 56.4857C142.162 56.6524 142.186 56.8048 142.238 56.9381C142.286 57.0762 142.357 57.1952 142.448 57.2952C142.533 57.3952 142.638 57.4714 142.762 57.5286C142.881 57.5809 143.009 57.6095 143.148 57.6095C143.286 57.6095 143.414 57.5809 143.533 57.5286C143.652 57.4714 143.757 57.3952 143.843 57.2952C143.933 57.1952 144 57.0762 144.052 56.9381C144.1 56.8 144.129 56.6476 144.129 56.4809C144.129 56.3143 144.105 56.1667 144.052 56.0286C144.005 55.8905 143.933 55.7714 143.843 55.6714C143.757 55.5714 143.652 55.4952 143.533 55.4381C143.414 55.3809 143.286 55.3571 143.148 55.3571C143.009 55.3571 142.881 55.3857 142.762 55.4429C142.643 55.5 142.538 55.5809 142.448 55.6809C142.357 55.7809 142.29 55.9 142.238 56.0381C142.19 56.1762 142.162 56.3286 142.162 56.4905M143.143 58.4238C142.838 58.4238 142.562 58.3714 142.319 58.2667C142.076 58.1619 141.871 58.019 141.7 57.8429C141.533 57.6619 141.4 57.4571 141.309 57.2238C141.219 56.9905 141.171 56.7429 141.171 56.4857C141.171 56.2286 141.219 55.9762 141.309 55.7381C141.4 55.5048 141.533 55.3 141.7 55.119C141.871 54.9428 142.076 54.8 142.319 54.6952C142.562 54.5905 142.838 54.5381 143.143 54.5381C143.448 54.5381 143.724 54.5905 143.962 54.6952C144.205 54.8 144.409 54.9428 144.576 55.119C144.748 55.3 144.876 55.5048 144.967 55.7381C145.057 55.9714 145.1 56.219 145.1 56.4857C145.1 56.7524 145.057 56.9905 144.967 57.2238C144.876 57.4571 144.748 57.6619 144.581 57.8429C144.414 58.019 144.209 58.1667 143.967 58.2667C143.724 58.3714 143.448 58.4238 143.143 58.4238Z" fill="#2E3092"/>
<path d="M145.528 53.124H146.49V57.1526C146.49 57.2907 146.523 57.4002 146.59 57.4764C146.657 57.5526 146.752 57.5907 146.876 57.5907C146.933 57.5907 146.995 57.5812 147.066 57.5621C147.133 57.5431 147.2 57.5193 147.262 57.4907L147.39 58.2193C147.262 58.2812 147.109 58.3288 146.938 58.3621C146.766 58.3955 146.609 58.4098 146.471 58.4098C146.171 58.4098 145.938 58.3288 145.771 58.1717C145.604 58.0098 145.523 57.7812 145.523 57.4859V53.124H145.528Z" fill="#2E3092"/>
<path d="M149.153 58.4239C148.838 58.4239 148.529 58.3763 148.229 58.2763C147.929 58.1763 147.672 58.0335 147.453 57.8477L147.81 57.2477C148.038 57.4096 148.262 57.5335 148.481 57.6144C148.7 57.6954 148.915 57.7382 149.129 57.7382C149.319 57.7382 149.472 57.7001 149.581 57.6287C149.691 57.5573 149.748 57.4525 149.748 57.3192C149.748 57.1858 149.681 57.0858 149.553 57.0239C149.424 56.962 149.215 56.8906 148.924 56.8096C148.681 56.743 148.472 56.6763 148.3 56.6144C148.129 56.5525 147.991 56.4811 147.886 56.4049C147.781 56.3287 147.705 56.2382 147.657 56.1335C147.61 56.0287 147.586 55.9049 147.586 55.762C147.586 55.5715 147.624 55.4001 147.7 55.2477C147.772 55.0954 147.876 54.9668 148.01 54.8573C148.143 54.7525 148.3 54.6668 148.481 54.6096C148.657 54.5525 148.853 54.5239 149.067 54.5239C149.348 54.5239 149.615 54.5668 149.857 54.6477C150.105 54.7287 150.329 54.862 150.534 55.043L150.148 55.6239C149.957 55.4811 149.772 55.3763 149.591 55.3096C149.41 55.243 149.234 55.2096 149.057 55.2096C148.895 55.2096 148.757 55.243 148.648 55.3096C148.538 55.3763 148.481 55.4858 148.481 55.6335C148.481 55.7001 148.495 55.7573 148.524 55.8001C148.548 55.843 148.591 55.8811 148.648 55.9144C148.705 55.9477 148.781 55.9811 148.872 56.0096C148.967 56.043 149.081 56.0715 149.219 56.1049C149.476 56.1715 149.695 56.2382 149.881 56.3049C150.067 56.3715 150.215 56.4477 150.334 56.5335C150.453 56.6192 150.538 56.7192 150.591 56.8287C150.648 56.943 150.672 57.0763 150.672 57.2335C150.672 57.6001 150.534 57.8906 150.262 58.1049C149.991 58.3192 149.619 58.4239 149.153 58.4239Z" fill="#2E3092"/>
<path d="M152.419 56.4766C152.419 56.2146 152.467 55.967 152.557 55.7289C152.648 55.4956 152.781 55.2908 152.952 55.1146C153.124 54.9385 153.333 54.7956 153.576 54.6908C153.819 54.5861 154.095 54.5337 154.4 54.5337C154.809 54.5337 155.162 54.6194 155.448 54.8004C155.733 54.9813 155.952 55.2099 156.095 55.4956L155.157 55.7813C155.076 55.6432 154.967 55.5337 154.833 55.4623C154.7 55.3861 154.552 55.348 154.39 55.348C154.252 55.348 154.124 55.3766 154.005 55.4337C153.886 55.4861 153.781 55.567 153.69 55.6623C153.605 55.7623 153.533 55.8766 153.481 56.0194C153.433 56.1575 153.405 56.3099 153.405 56.4766C153.405 56.6432 153.428 56.7956 153.481 56.9337C153.533 57.0718 153.605 57.1908 153.695 57.2908C153.781 57.3908 153.886 57.467 154.009 57.5242C154.128 57.5813 154.257 57.6051 154.39 57.6051C154.562 57.6051 154.719 57.5623 154.867 57.4766C155.014 57.3908 155.114 57.2861 155.171 57.1623L156.109 57.448C155.981 57.7337 155.767 57.967 155.471 58.1528C155.176 58.3337 154.819 58.4242 154.405 58.4242C154.1 58.4242 153.824 58.3718 153.581 58.267C153.338 58.1623 153.128 58.0194 152.957 57.8432C152.786 57.6623 152.652 57.4575 152.562 57.2194C152.467 56.9813 152.419 56.7337 152.419 56.4766Z" fill="#2E3092"/>
<path d="M157.2 56.4857C157.2 56.6524 157.224 56.8048 157.276 56.9381C157.324 57.0762 157.395 57.1952 157.486 57.2952C157.571 57.3952 157.676 57.4714 157.8 57.5286C157.919 57.5809 158.048 57.6095 158.186 57.6095C158.324 57.6095 158.452 57.5809 158.571 57.5286C158.69 57.4714 158.795 57.3952 158.886 57.2952C158.971 57.1952 159.043 57.0762 159.095 56.9381C159.143 56.8 159.171 56.6476 159.171 56.4809C159.171 56.3143 159.148 56.1667 159.095 56.0286C159.048 55.8905 158.976 55.7714 158.886 55.6714C158.795 55.5714 158.695 55.4952 158.571 55.4381C158.452 55.3809 158.324 55.3571 158.186 55.3571C158.048 55.3571 157.919 55.3857 157.8 55.4429C157.681 55.5 157.576 55.5809 157.486 55.6809C157.395 55.7809 157.329 55.9 157.276 56.0381C157.229 56.1762 157.2 56.3286 157.2 56.4905M158.181 58.4238C157.876 58.4238 157.6 58.3714 157.357 58.2667C157.114 58.1619 156.909 58.019 156.738 57.8429C156.571 57.6619 156.438 57.4571 156.348 57.2238C156.257 56.9905 156.209 56.7429 156.209 56.4857C156.209 56.2286 156.257 55.9762 156.348 55.7381C156.438 55.5048 156.571 55.3 156.738 55.119C156.909 54.9428 157.114 54.8 157.357 54.6952C157.6 54.5905 157.876 54.5381 158.181 54.5381C158.486 54.5381 158.762 54.5905 159 54.6952C159.243 54.8 159.448 54.9428 159.614 55.119C159.786 55.3 159.914 55.5048 160.005 55.7381C160.095 55.9714 160.143 56.219 160.143 56.4857C160.143 56.7524 160.095 56.9905 160.005 57.2238C159.914 57.4571 159.786 57.6619 159.619 57.8429C159.452 58.019 159.248 58.1667 159.005 58.2667C158.762 58.3714 158.486 58.4238 158.181 58.4238Z" fill="#2E3092"/>
<path d="M161.881 57.7242C162.043 57.7242 162.2 57.6956 162.343 57.6385C162.486 57.5813 162.6 57.5051 162.681 57.4099C162.786 57.3289 162.838 57.2385 162.838 57.1385V56.7099C162.724 56.667 162.6 56.6337 162.467 56.6051C162.333 56.5813 162.205 56.567 162.081 56.567C161.833 56.567 161.629 56.6242 161.471 56.7337C161.314 56.848 161.233 56.9861 161.233 57.1575C161.233 57.3289 161.295 57.4527 161.419 57.5623C161.543 57.667 161.695 57.7242 161.876 57.7242M161.61 58.4242C161.429 58.4242 161.257 58.3956 161.1 58.3337C160.943 58.2766 160.805 58.1908 160.691 58.0813C160.576 57.9718 160.486 57.848 160.424 57.7051C160.362 57.5623 160.329 57.4051 160.329 57.2337C160.329 57.0623 160.371 56.8956 160.448 56.7432C160.524 56.5956 160.638 56.467 160.776 56.3623C160.914 56.2575 161.086 56.1766 161.281 56.1146C161.476 56.0527 161.691 56.0242 161.924 56.0242C162.091 56.0242 162.252 56.0385 162.414 56.067C162.571 56.0956 162.714 56.1337 162.838 56.1908V55.9766C162.838 55.7289 162.767 55.5385 162.629 55.4051C162.486 55.2718 162.281 55.2051 162 55.2051C161.8 55.2051 161.605 55.2385 161.414 55.3099C161.224 55.3813 161.029 55.4861 160.829 55.6242L160.533 55.0146C161.014 54.6908 161.538 54.5337 162.095 54.5337C162.652 54.5337 163.052 54.667 163.352 54.9289C163.648 55.1956 163.8 55.5766 163.8 56.0813V57.248C163.8 57.348 163.819 57.4194 163.852 57.4623C163.886 57.5051 163.948 57.5289 164.029 57.5337V58.3528C163.867 58.3861 163.724 58.4004 163.605 58.4004C163.424 58.4004 163.281 58.3575 163.186 58.2766C163.091 58.1956 163.029 58.0861 163.005 57.9527L162.981 57.748C162.814 57.967 162.61 58.1337 162.371 58.248C162.133 58.3623 161.876 58.4194 161.605 58.4194" fill="#2E3092"/>
<path d="M164.472 53.124H165.433V57.1526C165.433 57.2907 165.467 57.4002 165.533 57.4764C165.6 57.5526 165.695 57.5907 165.819 57.5907C165.876 57.5907 165.938 57.5812 166.01 57.5621C166.076 57.5431 166.143 57.5193 166.205 57.4907L166.333 58.2193C166.205 58.2812 166.053 58.3288 165.881 58.3621C165.71 58.3955 165.553 58.4098 165.414 58.4098C165.114 58.4098 164.881 58.3288 164.714 58.1717C164.548 58.0098 164.467 57.7812 164.467 57.4859V53.124H164.472Z" fill="#2E3092"/>
<path d="M166.557 58.3574H167.514V54.605H166.557V58.3574ZM166.557 54.0764H167.514V53.124H166.557V54.0764Z" fill="#2E3092"/>
<path d="M170.405 58.1619C170.276 58.2191 170.119 58.2762 169.933 58.3334C169.748 58.3905 169.552 58.4191 169.348 58.4191C169.214 58.4191 169.09 58.4048 168.971 58.3715C168.857 58.3381 168.752 58.2858 168.662 58.2096C168.576 58.1334 168.505 58.0381 168.452 57.9238C168.4 57.8096 168.376 57.6667 168.376 57.5V55.3429H167.881V54.6048H168.376V53.3857H169.333V54.6048H170.124V55.3429H169.333V57.1762C169.333 57.3096 169.367 57.4048 169.438 57.4619C169.505 57.5143 169.59 57.5429 169.69 57.5429C169.79 57.5429 169.89 57.5238 169.986 57.4905C170.081 57.4572 170.157 57.4286 170.214 57.4048L170.409 58.1619H170.405Z" fill="#2E3092"/>
<path d="M170.676 58.3574H171.638V54.605H170.676V58.3574ZM170.676 54.0764H171.638V53.124H170.676V54.0764Z" fill="#2E3092"/>
<path d="M173.067 56.4857C173.067 56.6524 173.091 56.8048 173.143 56.9381C173.191 57.0762 173.262 57.1952 173.352 57.2952C173.438 57.3952 173.543 57.4714 173.667 57.5286C173.786 57.5809 173.914 57.6095 174.052 57.6095C174.191 57.6095 174.319 57.5809 174.438 57.5286C174.557 57.4714 174.662 57.3952 174.752 57.2952C174.838 57.1952 174.91 57.0762 174.962 56.9381C175.01 56.8 175.038 56.6476 175.038 56.4809C175.038 56.3143 175.014 56.1667 174.962 56.0286C174.914 55.8905 174.843 55.7714 174.752 55.6714C174.662 55.5714 174.562 55.4952 174.438 55.4381C174.319 55.3809 174.191 55.3571 174.052 55.3571C173.914 55.3571 173.786 55.3857 173.667 55.4429C173.548 55.5 173.443 55.5809 173.352 55.6809C173.262 55.7809 173.195 55.9 173.143 56.0381C173.095 56.1762 173.067 56.3286 173.067 56.4905M174.052 58.4238C173.748 58.4238 173.472 58.3714 173.229 58.2667C172.986 58.1619 172.781 58.019 172.61 57.8429C172.443 57.6619 172.31 57.4571 172.219 57.2238C172.129 56.9905 172.081 56.7429 172.081 56.4857C172.081 56.2286 172.129 55.9762 172.219 55.7381C172.31 55.5048 172.443 55.3 172.61 55.119C172.781 54.9428 172.986 54.8 173.229 54.6952C173.472 54.5905 173.748 54.5381 174.052 54.5381C174.357 54.5381 174.633 54.5905 174.872 54.6952C175.114 54.8 175.319 54.9428 175.486 55.119C175.657 55.3 175.786 55.5048 175.876 55.7381C175.967 55.9714 176.01 56.219 176.01 56.4857C176.01 56.7524 175.962 56.9905 175.876 57.2238C175.786 57.4571 175.657 57.6619 175.491 57.8429C175.324 58.019 175.119 58.1667 174.876 58.2667C174.633 58.3714 174.357 58.4238 174.052 58.4238Z" fill="#2E3092"/>
<path d="M179.943 58.3524H178.981V56.2476C178.981 55.9476 178.928 55.7286 178.824 55.5905C178.719 55.4524 178.571 55.3809 178.385 55.3809C178.29 55.3809 178.19 55.4 178.09 55.4381C177.99 55.4762 177.895 55.5286 177.809 55.6C177.724 55.6667 177.643 55.7524 177.571 55.8476C177.5 55.9429 177.447 56.0476 177.414 56.1619V58.3524H176.452V54.6H177.319V55.2952C177.457 55.0571 177.657 54.8714 177.919 54.7381C178.181 54.6048 178.476 54.5381 178.809 54.5381C179.043 54.5381 179.233 54.5809 179.381 54.6667C179.528 54.7524 179.643 54.8619 179.724 55.0048C179.805 55.1429 179.862 55.3 179.89 55.4762C179.924 55.6524 179.938 55.8333 179.938 56.0143V58.3571L179.943 58.3524Z" fill="#2E3092"/>
<path d="M27.5383 5.35693C14.2907 5.35693 3.54785 16.0951 3.54785 29.3475C3.54785 42.5999 14.2907 53.338 27.5383 53.338C40.786 53.338 51.5288 42.5999 51.5288 29.3475C51.5288 16.0951 40.786 5.35693 27.5383 5.35693ZM27.5383 10.2093C38.0907 10.2093 46.6764 18.7951 46.6764 29.3475C46.6764 39.8999 38.0907 48.4808 27.5383 48.4808C16.986 48.4808 8.40023 39.8951 8.40023 29.3475C8.40023 18.7998 16.986 10.2093 27.5383 10.2093Z" fill="#2E3092"/>
<path d="M40.5813 15.4284L32.2194 24.3522L32.8908 24.5141L37.4337 19.6665L32.8908 24.5141L34.367 24.876L36.4384 21.3617L34.367 24.876L34.9718 25.0236L40.6813 15.3188L31.5908 21.4141L32.2194 24.3522L40.5813 15.4284Z" fill="#2E3092"/>
<path d="M14.3955 43.3712L23.486 37.276L22.8574 34.3379L14.3955 43.3712Z" fill="#2E3092"/>
<path d="M16.1431 17.1855L14.3955 15.3188L20.105 25.0236L22.8574 24.3522L23.0098 23.6332L23.3479 22.057L18.4669 18.7855L23.3479 22.057L23.486 21.4141L14.3955 15.3188L16.1431 17.1855Z" fill="#2E3092"/>
<path d="M22.186 34.176L20.705 33.8141L20.105 33.6665L14.3955 43.3713L22.8574 34.3379L22.186 34.176L17.6384 39.0284L17.6431 39.0237L22.186 34.176Z" fill="#2E3092"/>
<path d="M40.6813 43.3714L34.9718 33.6714L32.2194 34.3428L32.067 35.0619L31.7289 36.6381L31.5908 37.2809L40.6861 43.3762L40.6813 43.3714Z" fill="#2E3092"/>
<path d="M27.5384 29.3858L22.4146 23.9191L27.5384 0V29.3858Z" fill="#2E3092"/>
<path d="M27.5381 0V29.3858L32.6571 23.9191L27.5381 0Z" fill="#00ADD8"/>
<path d="M27.5381 29.3857L22.4143 34.8477L0 29.3857H27.5381Z" fill="#2E3092"/>
<path d="M22.4143 23.9189L0 29.3809H27.5381L22.4143 23.9189Z" fill="#00ADD8"/>
<path d="M27.5381 29.3857L32.6571 34.8477L27.5381 58.7668V29.3857Z" fill="#2E3092"/>
<path d="M27.5384 29.3857L22.4146 34.8477L27.5384 58.7668V29.3857Z" fill="#00ADD8"/>
<path d="M27.5381 29.3856L32.6571 23.9189L55.0762 29.3856H27.5381Z" fill="#2E3092"/>
<path d="M55.0714 29.3809H27.5381L32.6571 34.8475L55.0714 29.3809Z" fill="#00ADD8"/>
</svg>
